  0
SECTION
  2
HEADER
  9
$ACADVER
  1
AC1014
  9
$HANDSEED
  5
FFFF
  9
$MEASUREMENT
 70
     1
  0
ENDSEC
  0
SECTION
  2
TABLES
  0
TABLE
  2
VPORT
  5
8
330
0
100
AcDbSymbolTable
 70
     4
  0
VPORT
  5
2E
330
8
100
AcDbSymbolTableRecord
100
AcDbViewportTableRecord
  2
*ACTIVE
 70
     0
 10
0.0
 20
0.0
 11
1.0
 21
1.0
 12
210.0
 22
148.5
 13
0.0
 23
0.0
 14
10.0
 24
10.0
 15
10.0
 25
10.0
 16
0.0
 26
0.0
 36
1.0
 17
0.0
 27
0.0
 37
0.0
 40
341.0
 41
1.24
 42
50.0
 43
0.0
 44
0.0
 50
0.0
 51
0.0
 71
     0
 72
   100
 73
     1
 74
     3
 75
     0
 76
     0
 77
     0
 78
     0
  0
ENDTAB
  0
TABLE
  2
LTYPE
  5
5
330
0
100
AcDbSymbolTable
 70
     1
  0
LTYPE
  5
14
330
5
100
AcDbSymbolTableRecord
100
AcDbLinetypeTableRecord
  2
BYBLOCK
 70
     0
  3

 72
    65
 73
     0
 40
0.0
  0
LTYPE
  5
15
330
5
100
AcDbSymbolTableRecord
100
AcDbLinetypeTableRecord
  2
BYLAYER
 70
     0
  3

 72
    65
 73
     0
 40
0.0
  0
LTYPE
  5
16
330
5
100
AcDbSymbolTableRecord
100
AcDbLinetypeTableRecord
  2
CONTINUOUS
 70
     0
  3
Solid line
 72
    65
 73
     0
 40
0.0
  0
ENDTAB
  0
TABLE
  2
LAYER
  5
2
100
AcDbSymbolTable
 70
1
  0
LAYER
  5
50
100
AcDbSymbolTableRecord
100
AcDbLayerTableRecord
  2
0
 70
0
  6
CONTINUOUS
  0
ENDTAB
  0
TABLE
  2
STYLE
  5
3
330
0
100
AcDbSymbolTable
 70
     1
  0
STYLE
  5
11
330
3
100
AcDbSymbolTableRecord
100
AcDbTextStyleTableRecord
  2
STANDARD
 70
     0
 40
0.0
 41
1.0
 50
0.0
 71
     0
 42
2.5
  3
txt
  4

  0
ENDTAB
  0
TABLE
  2
VIEW
  5
6
330
0
100
AcDbSymbolTable
 70
     0
  0
ENDTAB
  0
TABLE
  2
UCS
  5
7
330
0
100
AcDbSymbolTable
 70
     0
  0
ENDTAB
  0
TABLE
  2
APPID
  5
9
330
0
100
AcDbSymbolTable
 70
     2
  0
APPID
  5
12
330
9
100
AcDbSymbolTableRecord
100
AcDbRegAppTableRecord
  2
ACAD
 70
     0
  0
ENDTAB
  0
TABLE
  2
DIMSTYLE
  5
A
330
0
100
AcDbSymbolTable
 70
     1
  0
DIMSTYLE
105
27
330
A
100
AcDbSymbolTableRecord
100
AcDbDimStyleTableRecord
  2
ISO-25
 70
     0
  3

  4

  5

  6

  7

 40
1.0
 41
2.5
 42
0.625
 43
3.75
 44
1.25
 45
0.0
 46
0.0
 47
0.0
 48
0.0
140
2.5
141
2.5
142
0.0
143
0.03937007874016
144
1.0
145
0.0
146
1.0
147
0.625
 71
     0
 72
     0
 73
     0
 74
     0
 75
     0
 76
     0
 77
     1
 78
     8
170
     0
171
     3
172
     1
173
     0
174
     0
175
     0
176
     0
177
     0
178
     0
270
     2
271
     2
272
     2
273
     2
274
     3
340
11
275
     0
280
     0
281
     0
282
     0
283
     0
284
     8
285
     0
286
     0
287
     3
288
     0
  0
ENDTAB
  0
TABLE
  2
BLOCK_RECORD
  5
1
330
0
100
AcDbSymbolTable
 70
     1
  0
BLOCK_RECORD
  5
1F
330
1
100
AcDbSymbolTableRecord
100
AcDbBlockTableRecord
  2
*MODEL_SPACE
  0
BLOCK_RECORD
  5
1B
330
1
100
AcDbSymbolTableRecord
100
AcDbBlockTableRecord
  2
*PAPER_SPACE
  0
ENDTAB
  0
ENDSEC
  0
SECTION
  2
BLOCKS
  0
BLOCK
  5
20
330
1F
100
AcDbEntity
  8
0
100
AcDbBlockBegin
  2
*MODEL_SPACE
 70
     0
 10
0.0
 20
0.0
 30
0.0
  3
*MODEL_SPACE
  1

  0
ENDBLK
  5
21
330
1F
100
AcDbEntity
  8
0
100
AcDbBlockEnd
  0
BLOCK
  5
1C
330
1B
100
AcDbEntity
 67
     1
  8
0
100
AcDbBlockBegin
  2
*PAPER_SPACE
  1

  0
ENDBLK
  5
1D
330
1B
100
AcDbEntity
 67
     1
  8
0
100
AcDbBlockEnd
  0
ENDSEC
  0
SECTION
  2
ENTITIES
  0
SPLINE
  5
100
100
AcDbEntity
  8
0
 62
1
100
AcDbSpline
 70
8
 71
3
 72
8
 73
4
 74
0
 40
0
 40
0
 40
0
 40
0
 40
1
 40
1
 40
1
 40
1
 10
154.420009
 20
50.443701
 30
0.0
 10
155.688787
 20
50.443701
 30
0.0
 10
156.640369
 20
51.677234
 30
0.0
 10
156.358418
 20
52.981254
 30
0.0
  0
LINE
  5
101
100
AcDbEntity
  8
0
 62
1
100
AcDbLine
 10
156.358418
 20
52.981254
 30
0.0
 11
146.490156
 21
99.644036
 31
0.0
  0
SPLINE
  5
102
100
AcDbEntity
  8
0
 62
1
100
AcDbSpline
 70
8
 71
3
 72
8
 73
4
 74
0
 40
0
 40
0
 40
0
 40
0
 40
1
 40
1
 40
1
 40
1
 10
146.490156
 20
99.644036
 30
0.0
 10
146.349180
 20
100.419400
 30
0.0
 10
146.631131
 20
101.230007
 30
0.0
 10
147.230275
 20
101.723420
 30
0.0
  0
SPLINE
  5
103
100
AcDbEntity
  8
0
 62
1
100
AcDbSpline
 70
8
 71
3
 72
8
 73
4
 74
0
 40
0
 40
0
 40
0
 40
0
 40
1
 40
1
 40
1
 40
1
 10
147.230275
 20
101.723420
 30
0.0
 10
150.472704
 20
104.331460
 30
0.0
 10
152.481600
 20
108.525471
 30
0.0
 10
152.164407
 20
113.177651
 30
0.0
  0
SPLINE
  5
104
100
AcDbEntity
  8
0
 62
1
100
AcDbSpline
 70
8
 71
3
 72
8
 73
4
 74
0
 40
0
 40
0
 40
0
 40
0
 40
1
 40
1
 40
1
 40
1
 10
152.164407
 20
113.177651
 30
0.0
 10
151.706236
 20
119.697754
 30
0.0
 10
146.595888
 20
124.949077
 30
0.0
 10
140.357736
 20
125.336760
 30
0.0
  0
SPLINE
  5
105
100
AcDbEntity
  8
0
 62
1
100
AcDbSpline
 70
8
 71
3
 72
8
 73
4
 74
0
 40
0
 40
0
 40
0
 40
0
 40
1
 40
1
 40
1
 40
1
 10
140.357736
 20
125.336760
 30
0.0
 10
137.256282
 20
125.548223
 30
0.0
 10
134.401536
 20
124.561396
 30
0.0
 10
132.145932
 20
122.834450
 30
0.0
  0
SPLINE
  5
106
100
AcDbEntity
  8
0
 62
1
100
AcDbSpline
 70
8
 71
3
 72
8
 73
4
 74
0
 40
0
 40
0
 40
0
 40
0
 40
1
 40
1
 40
1
 40
1
 10
132.145932
 20
122.834450
 30
0.0
 10
131.687763
 20
122.482012
 30
0.0
 10
131.088619
 20
122.341037
 30
0.0
 10
130.524718
 20
122.482012
 30
0.0
  0
SPLINE
  5
107
100
AcDbEntity
  8
0
 62
1
100
AcDbSpline
 70
8
 71
3
 72
8
 73
4
 74
0
 40
0
 40
0
 40
0
 40
0
 40
1
 40
1
 40
1
 40
1
 10
130.524718
 20
122.482012
 30
0.0
 10
127.035581
 20
123.327864
 30
0.0
 10
123.088278
 20
123.786032
 30
0.0
 10
118.929510
 20
123.786032
 30
0.0
  0
SPLINE
  5
108
100
AcDbEntity
  8
0
 62
1
100
AcDbSpline
 70
8
 71
3
 72
8
 73
4
 74
0
 40
0
 40
0
 40
0
 40
0
 40
1
 40
1
 40
1
 40
1
 10
118.929510
 20
123.786032
 30
0.0
 10
114.770744
 20
123.786032
 30
0.0
 10
110.823438
 20
123.327864
 30
0.0
 10
107.334301
 20
122.482012
 30
0.0
  0
SPLINE
  5
109
100
AcDbEntity
  8
0
 62
1
100
AcDbSpline
 70
8
 71
3
 72
8
 73
4
 74
0
 40
0
 40
0
 40
0
 40
0
 40
1
 40
1
 40
1
 40
1
 10
107.334301
 20
122.482012
 30
0.0
 10
106.770403
 20
122.341037
 30
0.0
 10
106.171257
 20
122.482012
 30
0.0
 10
105.713088
 20
122.834450
 30
0.0
  0
SPLINE
  5
10a
100
AcDbEntity
  8
0
 62
1
100
AcDbSpline
 70
8
 71
3
 72
8
 73
4
 74
0
 40
0
 40
0
 40
0
 40
0
 40
1
 40
1
 40
1
 40
1
 10
105.713088
 20
122.834450
 30
0.0
 10
103.422241
 20
124.561396
 30
0.0
 10
100.567495
 20
125.548223
 30
0.0
 10
97.501284
 20
125.336760
 30
0.0
  0
SPLINE
  5
10b
100
AcDbEntity
  8
0
 62
1
100
AcDbSpline
 70
8
 71
3
 72
8
 73
4
 74
0
 40
0
 40
0
 40
0
 40
0
 40
1
 40
1
 40
1
 40
1
 10
97.501284
 20
125.336760
 30
0.0
 10
91.227889
 20
124.949077
 30
0.0
 10
86.152784
 20
119.697754
 30
0.0
 10
85.694615
 20
113.177651
 30
0.0
  0
SPLINE
  5
10c
100
AcDbEntity
  8
0
 62
1
100
AcDbSpline
 70
8
 71
3
 72
8
 73
4
 74
0
 40
0
 40
0
 40
0
 40
0
 40
1
 40
1
 40
1
 40
1
 10
85.694615
 20
113.177651
 30
0.0
 10
85.377420
 20
108.490226
 30
0.0
 10
87.386316
 20
104.296215
 30
0.0
 10
90.628745
 20
101.723420
 30
0.0
  0
SPLINE
  5
10d
100
AcDbEntity
  8
0
 62
1
100
AcDbSpline
 70
8
 71
3
 72
8
 73
4
 74
0
 40
0
 40
0
 40
0
 40
0
 40
1
 40
1
 40
1
 40
1
 10
90.628745
 20
101.723420
 30
0.0
 10
91.227889
 20
101.230007
 30
0.0
 10
91.509839
 20
100.419400
 30
0.0
 10
91.368864
 20
99.644036
 30
0.0
  0
LINE
  5
10e
100
AcDbEntity
  8
0
 62
1
100
AcDbLine
 10
91.368864
 20
99.644036
 30
0.0
 11
81.571089
 21
52.981254
 31
0.0
  0
SPLINE
  5
10f
100
AcDbEntity
  8
0
 62
1
100
AcDbSpline
 70
8
 71
3
 72
8
 73
4
 74
0
 40
0
 40
0
 40
0
 40
0
 40
1
 40
1
 40
1
 40
1
 10
81.571089
 20
52.981254
 30
0.0
 10
81.289141
 20
51.677234
 30
0.0
 10
82.240723
 20
50.443701
 30
0.0
 10
83.509498
 20
50.443701
 30
0.0
  0
LINE
  5
110
100
AcDbEntity
  8
0
 62
1
100
AcDbLine
 10
83.509498
 20
50.443701
 30
0.0
 11
154.420009
 21
50.443701
 31
0.0
  0
SPLINE
  5
111
100
AcDbEntity
  8
0
 62
1
100
AcDbSpline
 70
8
 71
3
 72
8
 73
4
 74
0
 40
0
 40
0
 40
0
 40
0
 40
1
 40
1
 40
1
 40
1
 10
108.920272
 20
101.970130
 30
0.0
 10
108.920272
 20
101.076141
 30
0.0
 10
108.443335
 20
100.250061
 30
0.0
 10
107.669118
 20
99.803066
 30
0.0
  0
SPLINE
  5
112
100
AcDbEntity
  8
0
 62
1
100
AcDbSpline
 70
8
 71
3
 72
8
 73
4
 74
0
 40
0
 40
0
 40
0
 40
0
 40
1
 40
1
 40
1
 40
1
 10
107.669118
 20
99.803066
 30
0.0
 10
106.894900
 20
99.356072
 30
0.0
 10
105.941026
 20
99.356072
 30
0.0
 10
105.166808
 20
99.803066
 30
0.0
  0
SPLINE
  5
113
100
AcDbEntity
  8
0
 62
1
100
AcDbSpline
 70
8
 71
3
 72
8
 73
4
 74
0
 40
0
 40
0
 40
0
 40
0
 40
1
 40
1
 40
1
 40
1
 10
105.166808
 20
99.803066
 30
0.0
 10
104.392591
 20
100.250061
 30
0.0
 10
103.915654
 20
101.076141
 30
0.0
 10
103.915654
 20
101.970130
 30
0.0
  0
SPLINE
  5
114
100
AcDbEntity
  8
0
 62
1
100
AcDbSpline
 70
8
 71
3
 72
8
 73
4
 74
0
 40
0
 40
0
 40
0
 40
0
 40
1
 40
1
 40
1
 40
1
 10
103.915654
 20
101.970130
 30
0.0
 10
103.915654
 20
102.864119
 30
0.0
 10
104.392591
 20
103.690198
 30
0.0
 10
105.166808
 20
104.137193
 30
0.0
  0
SPLINE
  5
115
100
AcDbEntity
  8
0
 62
1
100
AcDbSpline
 70
8
 71
3
 72
8
 73
4
 74
0
 40
0
 40
0
 40
0
 40
0
 40
1
 40
1
 40
1
 40
1
 10
105.166808
 20
104.137193
 30
0.0
 10
105.941026
 20
104.584187
 30
0.0
 10
106.894900
 20
104.584187
 30
0.0
 10
107.669118
 20
104.137193
 30
0.0
  0
SPLINE
  5
116
100
AcDbEntity
  8
0
 62
1
100
AcDbSpline
 70
8
 71
3
 72
8
 73
4
 74
0
 40
0
 40
0
 40
0
 40
0
 40
1
 40
1
 40
1
 40
1
 10
107.669118
 20
104.137193
 30
0.0
 10
108.443335
 20
103.690198
 30
0.0
 10
108.920272
 20
102.864119
 30
0.0
 10
108.920272
 20
101.970130
 30
0.0
  0
LINE
  5
117
100
AcDbEntity
  8
0
 62
1
100
AcDbLine
 10
108.920272
 20
101.970130
 30
0.0
 11
108.920272
 21
101.970130
 31
0.0
  0
SPLINE
  5
118
100
AcDbEntity
  8
0
 62
1
100
AcDbSpline
 70
8
 71
3
 72
8
 73
4
 74
0
 40
0
 40
0
 40
0
 40
0
 40
1
 40
1
 40
1
 40
1
 10
133.943364
 20
101.970130
 30
0.0
 10
133.943364
 20
101.076141
 30
0.0
 10
133.466426
 20
100.250061
 30
0.0
 10
132.692209
 20
99.803066
 30
0.0
  0
SPLINE
  5
119
100
AcDbEntity
  8
0
 62
1
100
AcDbSpline
 70
8
 71
3
 72
8
 73
4
 74
0
 40
0
 40
0
 40
0
 40
0
 40
1
 40
1
 40
1
 40
1
 10
132.692209
 20
99.803066
 30
0.0
 10
131.917992
 20
99.356072
 30
0.0
 10
130.964117
 20
99.356072
 30
0.0
 10
130.189900
 20
99.803066
 30
0.0
  0
SPLINE
  5
11a
100
AcDbEntity
  8
0
 62
1
100
AcDbSpline
 70
8
 71
3
 72
8
 73
4
 74
0
 40
0
 40
0
 40
0
 40
0
 40
1
 40
1
 40
1
 40
1
 10
130.189900
 20
99.803066
 30
0.0
 10
129.415683
 20
100.250061
 30
0.0
 10
128.938746
 20
101.076141
 30
0.0
 10
128.938746
 20
101.970130
 30
0.0
  0
SPLINE
  5
11b
100
AcDbEntity
  8
0
 62
1
100
AcDbSpline
 70
8
 71
3
 72
8
 73
4
 74
0
 40
0
 40
0
 40
0
 40
0
 40
1
 40
1
 40
1
 40
1
 10
128.938746
 20
101.970130
 30
0.0
 10
128.938746
 20
102.864119
 30
0.0
 10
129.415683
 20
103.690198
 30
0.0
 10
130.189900
 20
104.137193
 30
0.0
  0
SPLINE
  5
11c
100
AcDbEntity
  8
0
 62
1
100
AcDbSpline
 70
8
 71
3
 72
8
 73
4
 74
0
 40
0
 40
0
 40
0
 40
0
 40
1
 40
1
 40
1
 40
1
 10
130.189900
 20
104.137193
 30
0.0
 10
130.964117
 20
104.584187
 30
0.0
 10
131.917992
 20
104.584187
 30
0.0
 10
132.692209
 20
104.137193
 30
0.0
  0
SPLINE
  5
11d
100
AcDbEntity
  8
0
 62
1
100
AcDbSpline
 70
8
 71
3
 72
8
 73
4
 74
0
 40
0
 40
0
 40
0
 40
0
 40
1
 40
1
 40
1
 40
1
 10
132.692209
 20
104.137193
 30
0.0
 10
133.466426
 20
103.690198
 30
0.0
 10
133.943364
 20
102.864119
 30
0.0
 10
133.943364
 20
101.970130
 30
0.0
  0
LINE
  5
11e
100
AcDbEntity
  8
0
 62
1
100
AcDbLine
 10
133.943364
 20
101.970130
 30
0.0
 11
133.943364
 21
101.970130
 31
0.0
  0
SPLINE
  5
11f
100
AcDbEntity
  8
0
 62
7
100
AcDbSpline
 70
8
 71
3
 72
8
 73
4
 74
0
 40
0
 40
0
 40
0
 40
0
 40
1
 40
1
 40
1
 40
1
 10
132.921290
 20
86.639080
 30
0.0
 10
132.886047
 20
86.956275
 30
0.0
 10
132.674584
 20
87.238225
 30
0.0
 10
132.251658
 20
87.238225
 30
0.0
  0
SPLINE
  5
120
100
AcDbEntity
  8
0
 62
7
100
AcDbSpline
 70
8
 71
3
 72
8
 73
4
 74
0
 40
0
 40
0
 40
0
 40
0
 40
1
 40
1
 40
1
 40
1
 10
132.251658
 20
87.238225
 30
0.0
 10
127.564234
 20
87.202981
 30
0.0
 10
122.876810
 20
87.343956
 30
0.0
 10
118.189386
 20
87.097250
 30
0.0
  0
SPLINE
  5
121
100
AcDbEntity
  8
0
 62
7
100
AcDbSpline
 70
8
 71
3
 72
8
 73
4
 74
0
 40
0
 40
0
 40
0
 40
0
 40
1
 40
1
 40
1
 40
1
 10
118.189386
 20
87.097250
 30
0.0
 10
113.783912
 20
86.850543
 30
0.0
 10
109.413682
 20
86.180911
 30
0.0
 10
105.008208
 20
85.934205
 30
0.0
  0
SPLINE
  5
122
100
AcDbEntity
  8
0
 62
7
100
AcDbSpline
 70
8
 71
3
 72
8
 73
4
 74
0
 40
0
 40
0
 40
0
 40
0
 40
1
 40
1
 40
1
 40
1
 10
105.008208
 20
85.934205
 30
0.0
 10
104.867233
 20
85.934205
 30
0.0
 10
104.585282
 20
85.934205
 30
0.0
 10
104.444307
 20
85.828473
 30
0.0
  0
SPLINE
  5
123
100
AcDbEntity
  8
0
 62
7
100
AcDbSpline
 70
8
 71
3
 72
8
 73
4
 74
0
 40
0
 40
0
 40
0
 40
0
 40
1
 40
1
 40
1
 40
1
 10
104.444307
 20
85.828473
 30
0.0
 10
103.845163
 20
85.581767
 30
0.0
 10
103.774675
 20
85.017866
 30
0.0
 10
104.091869
 20
83.713846
 30
0.0
  0
SPLINE
  5
124
100
AcDbEntity
  8
0
 62
7
100
AcDbSpline
 70
8
 71
3
 72
8
 73
4
 74
0
 40
0
 40
0
 40
0
 40
0
 40
1
 40
1
 40
1
 40
1
 10
104.091869
 20
83.713846
 30
0.0
 10
104.902476
 20
80.330442
 30
0.0
 10
109.977582
 20
77.440451
 30
0.0
 10
113.079036
 20
76.770819
 30
0.0
  0
SPLINE
  5
125
100
AcDbEntity
  8
0
 62
7
100
AcDbSpline
 70
8
 71
3
 72
8
 73
4
 74
0
 40
0
 40
0
 40
0
 40
0
 40
1
 40
1
 40
1
 40
1
 10
113.079036
 20
76.770819
 30
0.0
 10
119.916331
 20
75.325824
 30
0.0
 10
130.912394
 20
78.427277
 30
0.0
 10
133.344216
 20
85.652254
 30
0.0
  0
SPLINE
  5
126
100
AcDbEntity
  8
0
 62
7
100
AcDbSpline
 70
8
 71
3
 72
8
 73
4
 74
0
 40
0
 40
0
 40
0
 40
0
 40
1
 40
1
 40
1
 40
1
 10
133.344216
 20
85.652254
 30
0.0
 10
133.520435
 20
86.216155
 30
0.0
 10
133.273728
 20
86.568593
 30
0.0
 10
132.921290
 20
86.639080
 30
0.0
  0
LINE
  5
127
100
AcDbEntity
  8
0
 62
7
100
AcDbLine
 10
132.921290
 20
86.639080
 30
0.0
 11
132.921290
 21
86.639080
 31
0.0
  0
SPLINE
  5
128
100
AcDbEntity
  8
0
 62
7
100
AcDbSpline
 70
8
 71
3
 72
8
 73
4
 74
0
 40
0
 40
0
 40
0
 40
0
 40
1
 40
1
 40
1
 40
1
 10
125.484850
 20
85.440792
 30
0.0
 10
125.379119
 20
84.594941
 30
0.0
 10
125.097169
 20
81.881169
 30
0.0
 10
124.603756
 20
81.881169
 30
0.0
  0
SPLINE
  5
129
100
AcDbEntity
  8
0
 62
7
100
AcDbSpline
 70
8
 71
3
 72
8
 73
4
 74
0
 40
0
 40
0
 40
0
 40
0
 40
1
 40
1
 40
1
 40
1
 10
124.603756
 20
81.881169
 30
0.0
 10
124.427537
 20
81.881169
 30
0.0
 10
123.722661
 20
83.467139
 30
0.0
 10
123.616930
 20
83.608114
 30
0.0
  0
SPLINE
  5
12a
100
AcDbEntity
  8
0
 62
7
100
AcDbSpline
 70
8
 71
3
 72
8
 73
4
 74
0
 40
0
 40
0
 40
0
 40
0
 40
1
 40
1
 40
1
 40
1
 10
123.616930
 20
83.608114
 30
0.0
 10
123.194004
 20
84.242503
 30
0.0
 10
122.771079
 20
84.912135
 30
0.0
 10
122.277665
 20
85.511279
 30
0.0
  0
SPLINE
  5
12b
100
AcDbEntity
  8
0
 62
7
100
AcDbSpline
 70
8
 71
3
 72
8
 73
4
 74
0
 40
0
 40
0
 40
0
 40
0
 40
1
 40
1
 40
1
 40
1
 10
122.277665
 20
85.511279
 30
0.0
 10
123.334979
 20
85.511279
 30
0.0
 10
124.427537
 20
85.476035
 30
0.0
 10
125.484850
 20
85.440792
 30
0.0
  0
LINE
  5
12c
100
AcDbEntity
  8
0
 62
7
100
AcDbLine
 10
125.484850
 20
85.440792
 30
0.0
 11
125.484850
 21
85.440792
 31
0.0
  0
SPLINE
  5
12d
100
AcDbEntity
  8
0
 62
7
100
AcDbSpline
 70
8
 71
3
 72
8
 73
4
 74
0
 40
0
 40
0
 40
0
 40
0
 40
1
 40
1
 40
1
 40
1
 10
121.044133
 20
85.511279
 30
0.0
 10
120.797426
 20
84.876891
 30
0.0
 10
120.480232
 20
83.678602
 30
0.0
 10
120.374501
 20
83.608114
 30
0.0
  0
SPLINE
  5
12e
100
AcDbEntity
  8
0
 62
7
100
AcDbSpline
 70
8
 71
3
 72
8
 73
4
 74
0
 40
0
 40
0
 40
0
 40
0
 40
1
 40
1
 40
1
 40
1
 10
120.374501
 20
83.608114
 30
0.0
 10
119.845844
 20
83.361408
 30
0.0
 10
118.823774
 20
84.700672
 30
0.0
 10
118.295117
 20
85.476035
 30
0.0
  0
SPLINE
  5
12f
100
AcDbEntity
  8
0
 62
7
100
AcDbSpline
 70
8
 71
3
 72
8
 73
4
 74
0
 40
0
 40
0
 40
0
 40
0
 40
1
 40
1
 40
1
 40
1
 10
118.295117
 20
85.476035
 30
0.0
 10
119.211456
 20
85.476035
 30
0.0
 10
120.127794
 20
85.511279
 30
0.0
 10
121.044133
 20
85.511279
 30
0.0
  0
LINE
  5
130
100
AcDbEntity
  8
0
 62
7
100
AcDbLine
 10
121.044133
 20
85.511279
 30
0.0
 11
121.044133
 21
85.511279
 31
0.0
  0
SPLINE
  5
131
100
AcDbEntity
  8
0
 62
7
100
AcDbSpline
 70
8
 71
3
 72
8
 73
4
 74
0
 40
0
 40
0
 40
0
 40
0
 40
1
 40
1
 40
1
 40
1
 10
116.850122
 20
85.440792
 30
0.0
 10
116.814878
 20
85.370304
 30
0.0
 10
116.814878
 20
85.299816
 30
0.0
 10
116.779634
 20
85.264573
 30
0.0
  0
SPLINE
  5
132
100
AcDbEntity
  8
0
 62
7
100
AcDbSpline
 70
8
 71
3
 72
8
 73
4
 74
0
 40
0
 40
0
 40
0
 40
0
 40
1
 40
1
 40
1
 40
1
 10
116.779634
 20
85.264573
 30
0.0
 10
116.709146
 20
84.841647
 30
0.0
 10
116.039514
 20
82.762263
 30
0.0
 10
115.722320
 20
82.621288
 30
0.0
  0
SPLINE
  5
133
100
AcDbEntity
  8
0
 62
7
100
AcDbSpline
 70
8
 71
3
 72
8
 73
4
 74
0
 40
0
 40
0
 40
0
 40
0
 40
1
 40
1
 40
1
 40
1
 10
115.722320
 20
82.621288
 30
0.0
 10
115.405126
 20
82.480313
 30
0.0
 10
114.242081
 20
84.383478
 30
0.0
 10
113.748668
 20
85.158841
 30
0.0
  0
SPLINE
  5
134
100
AcDbEntity
  8
0
 62
7
100
AcDbSpline
 70
8
 71
3
 72
8
 73
4
 74
0
 40
0
 40
0
 40
0
 40
0
 40
1
 40
1
 40
1
 40
1
 10
113.748668
 20
85.158841
 30
0.0
 10
114.805982
 20
85.264573
 30
0.0
 10
115.863295
 20
85.370304
 30
0.0
 10
116.850122
 20
85.440792
 30
0.0
  0
LINE
  5
135
100
AcDbEntity
  8
0
 62
7
100
AcDbLine
 10
116.850122
 20
85.440792
 30
0.0
 11
116.850122
 21
85.440792
 31
0.0
  0
LINE
  5
136
100
AcDbEntity
  8
0
 62
7
100
AcDbLine
 10
112.374160
 20
84.982622
 30
0.0
 11
112.374160
 21
84.982622
 31
0.0
  0
SPLINE
  5
137
100
AcDbEntity
  8
0
 62
7
100
AcDbSpline
 70
8
 71
3
 72
8
 73
4
 74
0
 40
0
 40
0
 40
0
 40
0
 40
1
 40
1
 40
1
 40
1
 10
112.374160
 20
84.982622
 30
0.0
 10
112.268429
 20
83.255677
 30
0.0
 10
112.479892
 20
81.493487
 30
0.0
 10
112.197941
 20
79.766541
 30
0.0
  0
SPLINE
  5
138
100
AcDbEntity
  8
0
 62
7
100
AcDbSpline
 70
8
 71
3
 72
8
 73
4
 74
0
 40
0
 40
0
 40
0
 40
0
 40
1
 40
1
 40
1
 40
1
 10
112.197941
 20
79.766541
 30
0.0
 10
111.246359
 20
80.964830
 30
0.0
 10
110.682458
 20
84.136771
 30
0.0
 10
109.942339
 20
84.735916
 30
0.0
  0
SPLINE
  5
139
100
AcDbEntity
  8
0
 62
7
100
AcDbSpline
 70
8
 71
3
 72
8
 73
4
 74
0
 40
0
 40
0
 40
0
 40
0
 40
1
 40
1
 40
1
 40
1
 10
109.942339
 20
84.735916
 30
0.0
 10
110.752946
 20
84.806403
 30
0.0
 10
111.563553
 20
84.912135
 30
0.0
 10
112.374160
 20
84.982622
 30
0.0
  0
LINE
  5
13a
100
AcDbEntity
  8
0
 62
7
100
AcDbLine
 10
112.374160
 20
84.982622
 30
0.0
 11
112.374160
 21
84.982622
 31
0.0
  0
SPLINE
  5
13b
100
AcDbEntity
  8
0
 62
7
100
AcDbSpline
 70
8
 71
3
 72
8
 73
4
 74
0
 40
0
 40
0
 40
0
 40
0
 40
1
 40
1
 40
1
 40
1
 10
133.203241
 20
90.410166
 30
0.0
 10
131.300076
 20
92.736256
 30
0.0
 10
129.573130
 20
95.168078
 30
0.0
 10
127.599478
 20
97.388437
 30
0.0
  0
SPLINE
  5
13c
100
AcDbEntity
  8
0
 62
7
100
AcDbSpline
 70
8
 71
3
 72
8
 73
4
 74
0
 40
0
 40
0
 40
0
 40
0
 40
1
 40
1
 40
1
 40
1
 10
127.599478
 20
97.388437
 30
0.0
 10
127.070821
 20
97.987581
 30
0.0
 10
126.436433
 20
98.939164
 30
0.0
 10
125.696313
 20
99.432577
 30
0.0
  0
SPLINE
  5
13d
100
AcDbEntity
  8
0
 62
7
100
AcDbSpline
 70
8
 71
3
 72
8
 73
4
 74
0
 40
0
 40
0
 40
0
 40
0
 40
1
 40
1
 40
1
 40
1
 10
125.696313
 20
99.432577
 30
0.0
 10
125.449607
 20
99.714527
 30
0.0
 10
125.167656
 20
99.961234
 30
0.0
 10
124.779975
 20
100.031721
 30
0.0
  0
SPLINE
  5
13e
100
AcDbEntity
  8
0
 62
7
100
AcDbSpline
 70
8
 71
3
 72
8
 73
4
 74
0
 40
0
 40
0
 40
0
 40
0
 40
1
 40
1
 40
1
 40
1
 10
124.779975
 20
100.031721
 30
0.0
 10
124.850462
 20
100.348915
 30
0.0
 10
124.744731
 20
100.666109
 30
0.0
 10
124.357049
 20
100.771841
 30
0.0
  0
SPLINE
  5
13f
100
AcDbEntity
  8
0
 62
7
100
AcDbSpline
 70
8
 71
3
 72
8
 73
4
 74
0
 40
0
 40
0
 40
0
 40
0
 40
1
 40
1
 40
1
 40
1
 10
124.357049
 20
100.771841
 30
0.0
 10
121.643277
 20
101.511960
 30
0.0
 10
118.189386
 20
101.617692
 30
0.0
 10
115.334639
 20
100.842328
 30
0.0
  0
SPLINE
  5
140
100
AcDbEntity
  8
0
 62
7
100
AcDbSpline
 70
8
 71
3
 72
8
 73
4
 74
0
 40
0
 40
0
 40
0
 40
0
 40
1
 40
1
 40
1
 40
1
 10
115.334639
 20
100.842328
 30
0.0
 10
115.299395
 20
100.842328
 30
0.0
 10
115.264151
 20
100.877572
 30
0.0
 10
115.228907
 20
100.877572
 30
0.0
  0
SPLINE
  5
141
100
AcDbEntity
  8
0
 62
7
100
AcDbSpline
 70
8
 71
3
 72
8
 73
4
 74
0
 40
0
 40
0
 40
0
 40
0
 40
1
 40
1
 40
1
 40
1
 10
115.228907
 20
100.877572
 30
0.0
 10
114.383056
 20
100.842328
 30
0.0
 10
113.537205
 20
100.736597
 30
0.0
 10
112.761842
 20
100.454647
 30
0.0
  0
SPLINE
  5
142
100
AcDbEntity
  8
0
 62
7
100
AcDbSpline
 70
8
 71
3
 72
8
 73
4
 74
0
 40
0
 40
0
 40
0
 40
0
 40
1
 40
1
 40
1
 40
1
 10
112.761842
 20
100.454647
 30
0.0
 10
112.374160
 20
100.313671
 30
0.0
 10
111.951235
 20
100.172696
 30
0.0
 10
111.598797
 20
99.925990
 30
0.0
  0
SPLINE
  5
143
100
AcDbEntity
  8
0
 62
7
100
AcDbSpline
 70
8
 71
3
 72
8
 73
4
 74
0
 40
0
 40
0
 40
0
 40
0
 40
1
 40
1
 40
1
 40
1
 10
111.598797
 20
99.925990
 30
0.0
 10
111.563553
 20
99.961234
 30
0.0
 10
111.493065
 20
99.961234
 30
0.0
 10
111.457822
 20
99.961234
 30
0.0
  0
SPLINE
  5
144
100
AcDbEntity
  8
0
 62
7
100
AcDbSpline
 70
8
 71
3
 72
8
 73
4
 74
0
 40
0
 40
0
 40
0
 40
0
 40
1
 40
1
 40
1
 40
1
 10
111.457822
 20
99.961234
 30
0.0
 10
110.470995
 20
99.749771
 30
0.0
 10
110.118558
 20
98.939164
 30
0.0
 10
109.448926
 20
98.163800
 30
0.0
  0
SPLINE
  5
145
100
AcDbEntity
  8
0
 62
7
100
AcDbSpline
 70
8
 71
3
 72
8
 73
4
 74
0
 40
0
 40
0
 40
0
 40
0
 40
1
 40
1
 40
1
 40
1
 10
109.448926
 20
98.163800
 30
0.0
 10
107.898199
 20
96.366367
 30
0.0
 10
106.382716
 20
94.568934
 30
0.0
 10
105.008208
 20
92.595281
 30
0.0
  0
SPLINE
  5
146
100
AcDbEntity
  8
0
 62
7
100
AcDbSpline
 70
8
 71
3
 72
8
 73
4
 74
0
 40
0
 40
0
 40
0
 40
0
 40
1
 40
1
 40
1
 40
1
 10
105.008208
 20
92.595281
 30
0.0
 10
102.787849
 20
89.423340
 30
0.0
 10
99.686395
 20
86.075180
 30
0.0
 10
100.250296
 20
81.951656
 30
0.0
  0
SPLINE
  5
147
100
AcDbEntity
  8
0
 62
7
100
AcDbSpline
 70
8
 71
3
 72
8
 73
4
 74
0
 40
0
 40
0
 40
0
 40
0
 40
1
 40
1
 40
1
 40
1
 10
100.250296
 20
81.951656
 30
0.0
 10
100.426515
 20
80.718124
 30
0.0
 10
102.118217
 20
81.599218
 30
0.0
 10
101.941998
 20
82.656532
 30
0.0
  0
SPLINE
  5
148
100
AcDbEntity
  8
0
 62
7
100
AcDbSpline
 70
8
 71
3
 72
8
 73
4
 74
0
 40
0
 40
0
 40
0
 40
0
 40
1
 40
1
 40
1
 40
1
 10
101.941998
 20
82.656532
 30
0.0
 10
101.413341
 20
86.075180
 30
0.0
 10
105.431133
 20
90.903579
 30
0.0
 10
107.263810
 20
93.652595
 30
0.0
  0
SPLINE
  5
149
100
AcDbEntity
  8
0
 62
7
100
AcDbSpline
 70
8
 71
3
 72
8
 73
4
 74
0
 40
0
 40
0
 40
0
 40
0
 40
1
 40
1
 40
1
 40
1
 10
107.263810
 20
93.652595
 30
0.0
 10
108.074418
 20
94.850884
 30
0.0
 10
108.920269
 20
96.013929
 30
0.0
 10
109.766120
 20
97.176974
 30
0.0
  0
SPLINE
  5
14a
100
AcDbEntity
  8
0
 62
7
100
AcDbSpline
 70
8
 71
3
 72
8
 73
4
 74
0
 40
0
 40
0
 40
0
 40
0
 40
1
 40
1
 40
1
 40
1
 10
109.766120
 20
97.176974
 30
0.0
 10
109.801363
 20
97.141730
 30
0.0
 10
109.871851
 20
97.141730
 30
0.0
 10
109.907095
 20
97.141730
 30
0.0
  0
SPLINE
  5
14b
100
AcDbEntity
  8
0
 62
7
100
AcDbSpline
 70
8
 71
3
 72
8
 73
4
 74
0
 40
0
 40
0
 40
0
 40
0
 40
1
 40
1
 40
1
 40
1
 10
109.907095
 20
97.141730
 30
0.0
 10
108.920269
 20
95.273809
 30
0.0
 10
108.779293
 20
93.969789
 30
0.0
 10
109.166975
 20
91.890405
 30
0.0
  0
SPLINE
  5
14c
100
AcDbEntity
  8
0
 62
7
100
AcDbSpline
 70
8
 71
3
 72
8
 73
4
 74
0
 40
0
 40
0
 40
0
 40
0
 40
1
 40
1
 40
1
 40
1
 10
109.166975
 20
91.890405
 30
0.0
 10
109.202219
 20
91.643699
 30
0.0
 10
109.343194
 20
91.537967
 30
0.0
 10
109.484169
 20
91.502724
 30
0.0
  0
SPLINE
  5
14d
100
AcDbEntity
  8
0
 62
7
100
AcDbSpline
 70
8
 71
3
 72
8
 73
4
 74
0
 40
0
 40
0
 40
0
 40
0
 40
1
 40
1
 40
1
 40
1
 10
109.484169
 20
91.502724
 30
0.0
 10
110.048070
 20
90.410166
 30
0.0
 10
111.457822
 20
89.634803
 30
0.0
 10
112.797086
 20
89.599559
 30
0.0
  0
SPLINE
  5
14e
100
AcDbEntity
  8
0
 62
7
100
AcDbSpline
 70
8
 71
3
 72
8
 73
4
 74
0
 40
0
 40
0
 40
0
 40
0
 40
1
 40
1
 40
1
 40
1
 10
112.797086
 20
89.599559
 30
0.0
 10
115.405126
 20
89.493828
 30
0.0
 10
118.048411
 20
89.529071
 30
0.0
 10
120.656451
 20
89.493828
 30
0.0
  0
SPLINE
  5
14f
100
AcDbEntity
  8
0
 62
7
100
AcDbSpline
 70
8
 71
3
 72
8
 73
4
 74
0
 40
0
 40
0
 40
0
 40
0
 40
1
 40
1
 40
1
 40
1
 10
120.656451
 20
89.493828
 30
0.0
 10
122.348153
 20
89.493828
 30
0.0
 10
124.357049
 20
89.141390
 30
0.0
 10
125.802045
 20
90.163460
 30
0.0
  0
SPLINE
  5
150
100
AcDbEntity
  8
0
 62
7
100
AcDbSpline
 70
8
 71
3
 72
8
 73
4
 74
0
 40
0
 40
0
 40
0
 40
0
 40
1
 40
1
 40
1
 40
1
 10
125.802045
 20
90.163460
 30
0.0
 10
125.907776
 20
90.233947
 30
0.0
 10
125.978264
 20
90.339679
 30
0.0
 10
126.048751
 20
90.445410
 30
0.0
  0
SPLINE
  5
151
100
AcDbEntity
  8
0
 62
7
100
AcDbSpline
 70
8
 71
3
 72
8
 73
4
 74
0
 40
0
 40
0
 40
0
 40
0
 40
1
 40
1
 40
1
 40
1
 10
126.048751
 20
90.445410
 30
0.0
 10
126.224970
 20
90.551141
 30
0.0
 10
126.401189
 20
90.727360
 30
0.0
 10
126.471677
 20
90.974067
 30
0.0
  0
SPLINE
  5
152
100
AcDbEntity
  8
0
 62
7
100
AcDbSpline
 70
8
 71
3
 72
8
 73
4
 74
0
 40
0
 40
0
 40
0
 40
0
 40
1
 40
1
 40
1
 40
1
 10
126.471677
 20
90.974067
 30
0.0
 10
127.388015
 20
93.370645
 30
0.0
 10
127.423259
 20
94.040277
 30
0.0
 10
126.753627
 20
96.507342
 30
0.0
  0
SPLINE
  5
153
100
AcDbEntity
  8
0
 62
7
100
AcDbSpline
 70
8
 71
3
 72
8
 73
4
 74
0
 40
0
 40
0
 40
0
 40
0
 40
1
 40
1
 40
1
 40
1
 10
126.753627
 20
96.507342
 30
0.0
 10
126.718383
 20
96.648317
 30
0.0
 10
126.683139
 20
96.859780
 30
0.0
 10
126.612652
 20
97.035999
 30
0.0
  0
SPLINE
  5
154
100
AcDbEntity
  8
0
 62
7
100
AcDbSpline
 70
8
 71
3
 72
8
 73
4
 74
0
 40
0
 40
0
 40
0
 40
0
 40
1
 40
1
 40
1
 40
1
 10
126.612652
 20
97.035999
 30
0.0
 10
126.965090
 20
96.577830
 30
0.0
 10
127.317528
 20
96.154904
 30
0.0
 10
127.634722
 20
95.731979
 30
0.0
  0
SPLINE
  5
155
100
AcDbEntity
  8
0
 62
7
100
AcDbSpline
 70
8
 71
3
 72
8
 73
4
 74
0
 40
0
 40
0
 40
0
 40
0
 40
1
 40
1
 40
1
 40
1
 10
127.634722
 20
95.731979
 30
0.0
 10
128.762523
 20
94.110764
 30
0.0
 10
129.890324
 20
92.489550
 30
0.0
 10
130.982882
 20
90.868335
 30
0.0
  0
SPLINE
  5
156
100
AcDbEntity
  8
0
 62
7
100
AcDbSpline
 70
8
 71
3
 72
8
 73
4
 74
0
 40
0
 40
0
 40
0
 40
0
 40
1
 40
1
 40
1
 40
1
 10
130.982882
 20
90.868335
 30
0.0
 10
133.308972
 20
87.449688
 30
0.0
 10
135.917013
 20
84.700672
 30
0.0
 10
135.000674
 20
80.154223
 30
0.0
  0
SPLINE
  5
157
100
AcDbEntity
  8
0
 62
7
100
AcDbSpline
 70
8
 71
3
 72
8
 73
4
 74
0
 40
0
 40
0
 40
0
 40
0
 40
1
 40
1
 40
1
 40
1
 10
135.000674
 20
80.154223
 30
0.0
 10
134.753968
 20
78.885446
 30
0.0
 10
136.410426
 20
78.779715
 30
0.0
 10
136.692376
 20
79.942760
 30
0.0
  0
SPLINE
  5
158
100
AcDbEntity
  8
0
 62
7
100
AcDbSpline
 70
8
 71
3
 72
8
 73
4
 74
0
 40
0
 40
0
 40
0
 40
0
 40
1
 40
1
 40
1
 40
1
 10
136.692376
 20
79.942760
 30
0.0
 10
137.820177
 20
84.348234
 30
0.0
 10
135.917013
 20
87.062006
 30
0.0
 10
133.203241
 20
90.410166
 30
0.0
  0
LINE
  5
159
100
AcDbEntity
  8
0
 62
7
100
AcDbLine
 10
133.203241
 20
90.410166
 30
0.0
 11
133.203241
 21
90.410166
 31
0.0
  0
SPLINE
  5
15a
100
AcDbEntity
  8
0
 62
7
100
AcDbSpline
 70
8
 71
3
 72
8
 73
4
 74
0
 40
0
 40
0
 40
0
 40
0
 40
1
 40
1
 40
1
 40
1
 10
133.802385
 20
76.982282
 30
0.0
 10
132.780315
 20
73.175952
 30
0.0
 10
131.617270
 20
69.228648
 30
0.0
 10
128.022403
 20
66.973045
 30
0.0
  0
SPLINE
  5
15b
100
AcDbEntity
  8
0
 62
7
100
AcDbSpline
 70
8
 71
3
 72
8
 73
4
 74
0
 40
0
 40
0
 40
0
 40
0
 40
1
 40
1
 40
1
 40
1
 10
128.022403
 20
66.973045
 30
0.0
 10
124.357049
 20
64.682199
 30
0.0
 10
119.070480
 20
64.964149
 30
0.0
 10
114.911713
 20
65.246099
 30
0.0
  0
SPLINE
  5
15c
100
AcDbEntity
  8
0
 62
7
100
AcDbSpline
 70
8
 71
3
 72
8
 73
4
 74
0
 40
0
 40
0
 40
0
 40
0
 40
1
 40
1
 40
1
 40
1
 10
114.911713
 20
65.246099
 30
0.0
 10
110.189045
 20
65.598537
 30
0.0
 10
106.558935
 20
67.184508
 30
0.0
 10
104.585282
 20
71.589982
 30
0.0
  0
SPLINE
  5
15d
100
AcDbEntity
  8
0
 62
7
100
AcDbSpline
 70
8
 71
3
 72
8
 73
4
 74
0
 40
0
 40
0
 40
0
 40
0
 40
1
 40
1
 40
1
 40
1
 10
104.585282
 20
71.589982
 30
0.0
 10
103.140287
 20
74.761923
 30
0.0
 10
102.682118
 20
77.792889
 30
0.0
 10
101.589560
 20
81.070561
 30
0.0
  0
SPLINE
  5
15e
100
AcDbEntity
  8
0
 62
7
100
AcDbSpline
 70
8
 71
3
 72
8
 73
4
 74
0
 40
0
 40
0
 40
0
 40
0
 40
1
 40
1
 40
1
 40
1
 10
101.589560
 20
81.070561
 30
0.0
 10
101.519072
 20
81.246780
 30
0.0
 10
101.237122
 20
81.070561
 30
0.0
 10
101.272366
 20
80.929586
 30
0.0
  0
SPLINE
  5
15f
100
AcDbEntity
  8
0
 62
7
100
AcDbSpline
 70
8
 71
3
 72
8
 73
4
 74
0
 40
0
 40
0
 40
0
 40
0
 40
1
 40
1
 40
1
 40
1
 10
101.272366
 20
80.929586
 30
0.0
 10
101.483829
 20
76.700331
 30
0.0
 10
101.871510
 20
72.471076
 30
0.0
 10
103.950894
 20
68.664747
 30
0.0
  0
SPLINE
  5
160
100
AcDbEntity
  8
0
 62
7
100
AcDbSpline
 70
8
 71
3
 72
8
 73
4
 74
0
 40
0
 40
0
 40
0
 40
0
 40
1
 40
1
 40
1
 40
1
 10
103.950894
 20
68.664747
 30
0.0
 10
106.206497
 20
64.505980
 30
0.0
 10
110.823433
 20
63.342935
 30
0.0
 10
115.193663
 20
63.025740
 30
0.0
  0
SPLINE
  5
161
100
AcDbEntity
  8
0
 62
7
100
AcDbSpline
 70
8
 71
3
 72
8
 73
4
 74
0
 40
0
 40
0
 40
0
 40
0
 40
1
 40
1
 40
1
 40
1
 10
115.193663
 20
63.025740
 30
0.0
 10
119.845844
 20
62.708546
 30
0.0
 10
125.731557
 20
62.532327
 30
0.0
 10
129.643618
 20
65.492806
 30
0.0
  0
SPLINE
  5
162
100
AcDbEntity
  8
0
 62
7
100
AcDbSpline
 70
8
 71
3
 72
8
 73
4
 74
0
 40
0
 40
0
 40
0
 40
0
 40
1
 40
1
 40
1
 40
1
 10
129.643618
 20
65.492806
 30
0.0
 10
133.344216
 20
68.277065
 30
0.0
 10
134.753968
 20
72.294857
 30
0.0
 10
135.740794
 20
76.559356
 30
0.0
  0
SPLINE
  5
163
100
AcDbEntity
  8
0
 62
7
100
AcDbSpline
 70
8
 71
3
 72
8
 73
4
 74
0
 40
0
 40
0
 40
0
 40
0
 40
1
 40
1
 40
1
 40
1
 10
135.740794
 20
76.559356
 30
0.0
 10
136.022744
 20
77.863376
 30
0.0
 10
134.154823
 20
78.215814
 30
0.0
 10
133.802385
 20
76.982282
 30
0.0
  0
LINE
  5
164
100
AcDbEntity
  8
0
 62
7
100
AcDbLine
 10
133.802385
 20
76.982282
 30
0.0
 11
133.802385
 21
76.982282
 31
0.0
  0
SPLINE
  5
165
100
AcDbEntity
  8
0
 62
7
100
AcDbSpline
 70
8
 71
3
 72
8
 73
4
 74
0
 40
0
 40
0
 40
0
 40
0
 40
1
 40
1
 40
1
 40
1
 10
121.960471
 20
122.200066
 30
0.0
 10
119.563894
 20
120.261657
 30
0.0
 10
117.061584
 20
118.675687
 30
0.0
 10
114.171594
 20
117.583129
 30
0.0
  0
SPLINE
  5
166
100
AcDbEntity
  8
0
 62
7
100
AcDbSpline
 70
8
 71
3
 72
8
 73
4
 74
0
 40
0
 40
0
 40
0
 40
0
 40
1
 40
1
 40
1
 40
1
 10
114.171594
 20
117.583129
 30
0.0
 10
111.739772
 20
116.666791
 30
0.0
 10
110.400508
 20
116.702034
 30
0.0
 10
107.968686
 20
115.926671
 30
0.0
  0
SPLINE
  5
167
100
AcDbEntity
  8
0
 62
7
100
AcDbSpline
 70
8
 71
3
 72
8
 73
4
 74
0
 40
0
 40
0
 40
0
 40
0
 40
1
 40
1
 40
1
 40
1
 10
107.968686
 20
115.926671
 30
0.0
 10
107.122835
 20
117.900323
 30
0.0
 10
104.972964
 20
120.473120
 30
0.0
 10
102.611630
 20
121.213240
 30
0.0
  0
SPLINE
  5
168
100
AcDbEntity
  8
0
 62
7
100
AcDbSpline
 70
8
 71
3
 72
8
 73
4
 74
0
 40
0
 40
0
 40
0
 40
0
 40
1
 40
1
 40
1
 40
1
 10
102.611630
 20
121.213240
 30
0.0
 10
102.541142
 20
121.389459
 30
0.0
 10
102.435411
 20
121.530434
 30
0.0
 10
102.223948
 20
121.600921
 30
0.0
  0
SPLINE
  5
169
100
AcDbEntity
  8
0
 62
7
100
AcDbSpline
 70
8
 71
3
 72
8
 73
4
 74
0
 40
0
 40
0
 40
0
 40
0
 40
1
 40
1
 40
1
 40
1
 10
102.223948
 20
121.600921
 30
0.0
 10
100.391271
 20
122.376285
 30
0.0
 10
98.805301
 20
122.552504
 30
0.0
 10
96.902136
 20
121.847628
 30
0.0
  0
SPLINE
  5
16a
100
AcDbEntity
  8
0
 62
7
100
AcDbSpline
 70
8
 71
3
 72
8
 73
4
 74
0
 40
0
 40
0
 40
0
 40
0
 40
1
 40
1
 40
1
 40
1
 10
96.902136
 20
121.847628
 30
0.0
 10
95.280921
 20
121.248483
 30
0.0
 10
93.483488
 20
120.473120
 30
0.0
 10
92.249955
 20
119.239587
 30
0.0
  0
SPLINE
  5
16b
100
AcDbEntity
  8
0
 62
7
100
AcDbSpline
 70
8
 71
3
 72
8
 73
4
 74
0
 40
0
 40
0
 40
0
 40
0
 40
1
 40
1
 40
1
 40
1
 10
92.249955
 20
119.239587
 30
0.0
 10
86.928143
 20
114.869357
 30
0.0
 10
88.337895
 20
105.987922
 30
0.0
 10
93.906414
 20
102.287324
 30
0.0
  0
SPLINE
  5
16c
100
AcDbEntity
  8
0
 62
7
100
AcDbSpline
 70
8
 71
3
 72
8
 73
4
 74
0
 40
0
 40
0
 40
0
 40
0
 40
1
 40
1
 40
1
 40
1
 10
93.906414
 20
102.287324
 30
0.0
 10
94.012145
 20
102.216836
 30
0.0
 10
94.117876
 20
102.181592
 30
0.0
 10
94.223608
 20
102.146349
 30
0.0
  0
SPLINE
  5
16d
100
AcDbEntity
  8
0
 62
7
100
AcDbSpline
 70
8
 71
3
 72
8
 73
4
 74
0
 40
0
 40
0
 40
0
 40
0
 40
1
 40
1
 40
1
 40
1
 10
94.223608
 20
102.146349
 30
0.0
 10
93.483488
 20
96.401611
 30
0.0
 10
91.791786
 20
89.070902
 30
0.0
 10
90.840204
 20
83.361408
 30
0.0
  0
SPLINE
  5
16e
100
AcDbEntity
  8
0
 62
7
100
AcDbSpline
 70
8
 71
3
 72
8
 73
4
 74
0
 40
0
 40
0
 40
0
 40
0
 40
1
 40
1
 40
1
 40
1
 10
90.840204
 20
83.361408
 30
0.0
 10
89.677159
 20
76.453625
 30
0.0
 10
87.033874
 20
63.131472
 30
0.0
 10
86.364242
 20
56.153201
 30
0.0
  0
SPLINE
  5
16f
100
AcDbEntity
  8
0
 62
7
100
AcDbSpline
 70
8
 71
3
 72
8
 73
4
 74
0
 40
0
 40
0
 40
0
 40
0
 40
1
 40
1
 40
1
 40
1
 10
86.364242
 20
56.153201
 30
0.0
 10
86.223267
 20
54.637718
 30
0.0
 10
88.055944
 20
54.849181
 30
0.0
 10
88.161676
 20
56.223689
 30
0.0
  0
SPLINE
  5
170
100
AcDbEntity
  8
0
 62
7
100
AcDbSpline
 70
8
 71
3
 72
8
 73
4
 74
0
 40
0
 40
0
 40
0
 40
0
 40
1
 40
1
 40
1
 40
1
 10
88.161676
 20
56.223689
 30
0.0
 10
88.725576
 20
63.624885
 30
0.0
 10
91.368861
 20
77.369963
 30
0.0
 10
92.426174
 20
84.700672
 30
0.0
  0
SPLINE
  5
171
100
AcDbEntity
  8
0
 62
7
100
AcDbSpline
 70
8
 71
3
 72
8
 73
4
 74
0
 40
0
 40
0
 40
0
 40
0
 40
1
 40
1
 40
1
 40
1
 10
92.426174
 20
84.700672
 30
0.0
 10
92.849100
 20
87.731638
 30
0.0
 10
93.307269
 20
90.727360
 30
0.0
 10
93.765438
 20
93.723083
 30
0.0
  0
SPLINE
  5
172
100
AcDbEntity
  8
0
 62
7
100
AcDbSpline
 70
8
 71
3
 72
8
 73
4
 74
0
 40
0
 40
0
 40
0
 40
0
 40
1
 40
1
 40
1
 40
1
 10
93.765438
 20
93.723083
 30
0.0
 10
94.117876
 20
95.943441
 30
0.0
 10
94.963727
 20
99.996477
 30
0.0
 10
94.963727
 20
102.322568
 30
0.0
  0
SPLINE
  5
173
100
AcDbEntity
  8
0
 62
7
100
AcDbSpline
 70
8
 71
3
 72
8
 73
4
 74
0
 40
0
 40
0
 40
0
 40
0
 40
1
 40
1
 40
1
 40
1
 10
94.963727
 20
102.322568
 30
0.0
 10
95.457140
 20
102.710249
 30
0.0
 10
95.739091
 20
103.450369
 30
0.0
 10
95.175190
 20
103.908538
 30
0.0
  0
SPLINE
  5
174
100
AcDbEntity
  8
0
 62
7
100
AcDbSpline
 70
8
 71
3
 72
8
 73
4
 74
0
 40
0
 40
0
 40
0
 40
0
 40
1
 40
1
 40
1
 40
1
 10
95.175190
 20
103.908538
 30
0.0
 10
92.426174
 20
105.987922
 30
0.0
 10
91.016423
 20
108.983644
 30
0.0
 10
90.769716
 20
112.437536
 30
0.0
  0
SPLINE
  5
175
100
AcDbEntity
  8
0
 62
7
100
AcDbSpline
 70
8
 71
3
 72
8
 73
4
 74
0
 40
0
 40
0
 40
0
 40
0
 40
1
 40
1
 40
1
 40
1
 10
90.769716
 20
112.437536
 30
0.0
 10
90.593497
 20
115.327526
 30
0.0
 10
91.897517
 20
115.961915
 30
0.0
 10
93.871170
 20
118.957637
 30
0.0
  0
SPLINE
  5
176
100
AcDbEntity
  8
0
 62
7
100
AcDbSpline
 70
8
 71
3
 72
8
 73
4
 74
0
 40
0
 40
0
 40
0
 40
0
 40
1
 40
1
 40
1
 40
1
 10
93.871170
 20
118.957637
 30
0.0
 10
96.373479
 20
120.155926
 30
0.0
 10
98.981520
 20
121.072264
 30
0.0
 10
101.624804
 20
120.120682
 30
0.0
  0
SPLINE
  5
177
100
AcDbEntity
  8
0
 62
7
100
AcDbSpline
 70
8
 71
3
 72
8
 73
4
 74
0
 40
0
 40
0
 40
0
 40
0
 40
1
 40
1
 40
1
 40
1
 10
101.624804
 20
120.120682
 30
0.0
 10
101.906754
 20
120.014951
 30
0.0
 10
102.188705
 20
120.120682
 30
0.0
 10
102.364923
 20
120.332145
 30
0.0
  0
SPLINE
  5
178
100
AcDbEntity
  8
0
 62
7
100
AcDbSpline
 70
8
 71
3
 72
8
 73
4
 74
0
 40
0
 40
0
 40
0
 40
0
 40
1
 40
1
 40
1
 40
1
 10
102.364923
 20
120.332145
 30
0.0
 10
103.140287
 20
119.803488
 30
0.0
 10
103.809919
 20
119.028125
 30
0.0
 10
104.303332
 20
118.358493
 30
0.0
  0
SPLINE
  5
179
100
AcDbEntity
  8
0
 62
7
100
AcDbSpline
 70
8
 71
3
 72
8
 73
4
 74
0
 40
0
 40
0
 40
0
 40
0
 40
1
 40
1
 40
1
 40
1
 10
104.303332
 20
118.358493
 30
0.0
 10
105.149183
 20
117.265935
 30
0.0
 10
105.818815
 20
116.173377
 30
0.0
 10
106.312228
 20
114.869357
 30
0.0
  0
SPLINE
  5
17a
100
AcDbEntity
  8
0
 62
7
100
AcDbSpline
 70
8
 71
3
 72
8
 73
4
 74
0
 40
0
 40
0
 40
0
 40
0
 40
1
 40
1
 40
1
 40
1
 10
106.312228
 20
114.869357
 30
0.0
 10
106.699910
 20
113.847287
 30
0.0
 10
107.757224
 20
114.305457
 30
0.0
 10
108.003930
 20
115.116064
 30
0.0
  0
SPLINE
  5
17b
100
AcDbEntity
  8
0
 62
7
100
AcDbSpline
 70
8
 71
3
 72
8
 73
4
 74
0
 40
0
 40
0
 40
0
 40
0
 40
1
 40
1
 40
1
 40
1
 10
108.003930
 20
115.116064
 30
0.0
 10
110.752946
 20
114.657894
 30
0.0
 10
112.797086
 20
115.327526
 30
0.0
 10
115.334639
 20
116.279109
 30
0.0
  0
SPLINE
  5
17c
100
AcDbEntity
  8
0
 62
7
100
AcDbSpline
 70
8
 71
3
 72
8
 73
4
 74
0
 40
0
 40
0
 40
0
 40
0
 40
1
 40
1
 40
1
 40
1
 10
115.334639
 20
116.279109
 30
0.0
 10
118.118898
 20
117.301179
 30
0.0
 10
120.762182
 20
118.816662
 30
0.0
 10
122.912054
 20
120.825558
 30
0.0
  0
SPLINE
  5
17d
100
AcDbEntity
  8
0
 62
7
100
AcDbSpline
 70
8
 71
3
 72
8
 73
4
 74
0
 40
0
 40
0
 40
0
 40
0
 40
1
 40
1
 40
1
 40
1
 10
122.912054
 20
120.825558
 30
0.0
 10
123.652173
 20
121.495190
 30
0.0
 10
122.841566
 20
122.904942
 30
0.0
 10
121.960471
 20
122.200066
 30
0.0
  0
LINE
  5
17e
100
AcDbEntity
  8
0
 62
7
100
AcDbLine
 10
121.960471
 20
122.200066
 30
0.0
 11
121.960471
 21
122.200066
 31
0.0
  0
SPLINE
  5
17f
100
AcDbEntity
  8
0
 62
7
100
AcDbSpline
 70
8
 71
3
 72
8
 73
4
 74
0
 40
0
 40
0
 40
0
 40
0
 40
1
 40
1
 40
1
 40
1
 10
126.260214
 20
119.733000
 30
0.0
 10
123.158760
 20
119.098612
 30
0.0
 10
119.810600
 20
118.006055
 30
0.0
 10
117.096828
 20
116.420084
 30
0.0
  0
SPLINE
  5
180
100
AcDbEntity
  8
0
 62
7
100
AcDbSpline
 70
8
 71
3
 72
8
 73
4
 74
0
 40
0
 40
0
 40
0
 40
0
 40
1
 40
1
 40
1
 40
1
 10
117.096828
 20
116.420084
 30
0.0
 10
116.814878
 20
116.279109
 30
0.0
 10
116.638659
 20
115.644721
 30
0.0
 10
117.132072
 20
115.679964
 30
0.0
  0
SPLINE
  5
181
100
AcDbEntity
  8
0
 62
7
100
AcDbSpline
 70
8
 71
3
 72
8
 73
4
 74
0
 40
0
 40
0
 40
0
 40
0
 40
1
 40
1
 40
1
 40
1
 10
117.132072
 20
115.679964
 30
0.0
 10
118.330361
 20
115.785696
 30
0.0
 10
119.528650
 20
116.349596
 30
0.0
 10
120.726939
 20
116.631547
 30
0.0
  0
SPLINE
  5
182
100
AcDbEntity
  8
0
 62
7
100
AcDbSpline
 70
8
 71
3
 72
8
 73
4
 74
0
 40
0
 40
0
 40
0
 40
0
 40
1
 40
1
 40
1
 40
1
 10
120.726939
 20
116.631547
 30
0.0
 10
122.524372
 20
117.089716
 30
0.0
 10
124.286562
 20
117.688861
 30
0.0
 10
126.119239
 20
117.970811
 30
0.0
  0
SPLINE
  5
183
100
AcDbEntity
  8
0
 62
7
100
AcDbSpline
 70
8
 71
3
 72
8
 73
4
 74
0
 40
0
 40
0
 40
0
 40
0
 40
1
 40
1
 40
1
 40
1
 10
126.119239
 20
117.970811
 30
0.0
 10
127.106065
 20
118.147030
 30
0.0
 10
127.317528
 20
119.944463
 30
0.0
 10
126.260214
 20
119.733000
 30
0.0
  0
LINE
  5
184
100
AcDbEntity
  8
0
 62
7
100
AcDbLine
 10
126.260214
 20
119.733000
 30
0.0
 11
126.260214
 21
119.733000
 31
0.0
  0
SPLINE
  5
185
100
AcDbEntity
  8
0
 62
7
100
AcDbSpline
 70
8
 71
3
 72
8
 73
4
 74
0
 40
0
 40
0
 40
0
 40
0
 40
1
 40
1
 40
1
 40
1
 10
152.129157
 20
56.082714
 30
0.0
 10
150.507942
 20
63.483910
 30
0.0
 10
148.710509
 20
72.506320
 30
0.0
 10
147.476976
 20
79.978004
 30
0.0
  0
SPLINE
  5
186
100
AcDbEntity
  8
0
 62
7
100
AcDbSpline
 70
8
 71
3
 72
8
 73
4
 74
0
 40
0
 40
0
 40
0
 40
0
 40
1
 40
1
 40
1
 40
1
 10
147.476976
 20
79.978004
 30
0.0
 10
146.807344
 20
83.890065
 30
0.0
 10
146.208200
 20
87.837369
 30
0.0
 10
145.573811
 20
91.749430
 30
0.0
  0
SPLINE
  5
187
100
AcDbEntity
  8
0
 62
7
100
AcDbSpline
 70
8
 71
3
 72
8
 73
4
 74
0
 40
0
 40
0
 40
0
 40
0
 40
1
 40
1
 40
1
 40
1
 10
145.573811
 20
91.749430
 30
0.0
 10
145.256617
 20
93.617351
 30
0.0
 10
144.974667
 20
95.520516
 30
0.0
 10
144.727960
 20
97.423681
 30
0.0
  0
SPLINE
  5
188
100
AcDbEntity
  8
0
 62
7
100
AcDbSpline
 70
8
 71
3
 72
8
 73
4
 74
0
 40
0
 40
0
 40
0
 40
0
 40
1
 40
1
 40
1
 40
1
 10
144.727960
 20
97.423681
 30
0.0
 10
144.622229
 20
98.269532
 30
0.0
 10
144.586985
 20
99.080139
 30
0.0
 10
144.446010
 20
99.925990
 30
0.0
  0
SPLINE
  5
189
100
AcDbEntity
  8
0
 62
7
100
AcDbSpline
 70
8
 71
3
 72
8
 73
4
 74
0
 40
0
 40
0
 40
0
 40
0
 40
1
 40
1
 40
1
 40
1
 10
144.446010
 20
99.925990
 30
0.0
 10
144.375523
 20
100.454647
 30
0.0
 10
144.234547
 20
100.983303
 30
0.0
 10
144.164060
 20
101.547204
 30
0.0
  0
SPLINE
  5
18a
100
AcDbEntity
  8
0
 62
7
100
AcDbSpline
 70
8
 71
3
 72
8
 73
4
 74
0
 40
0
 40
0
 40
0
 40
0
 40
1
 40
1
 40
1
 40
1
 10
144.164060
 20
101.547204
 30
0.0
 10
144.128816
 20
101.793911
 30
0.0
 10
144.128816
 20
102.005373
 30
0.0
 10
144.128816
 20
102.252080
 30
0.0
  0
SPLINE
  5
18b
100
AcDbEntity
  8
0
 62
7
100
AcDbSpline
 70
8
 71
3
 72
8
 73
4
 74
0
 40
0
 40
0
 40
0
 40
0
 40
1
 40
1
 40
1
 40
1
 10
144.128816
 20
102.252080
 30
0.0
 10
144.128816
 20
102.428299
 30
0.0
 10
144.058328
 20
102.639762
 30
0.0
 10
144.164060
 20
102.815981
 30
0.0
  0
SPLINE
  5
18c
100
AcDbEntity
  8
0
 62
7
100
AcDbSpline
 70
8
 71
3
 72
8
 73
4
 74
0
 40
0
 40
0
 40
0
 40
0
 40
1
 40
1
 40
1
 40
1
 10
144.164060
 20
102.815981
 30
0.0
 10
144.340279
 20
103.027443
 30
0.0
 10
144.586985
 20
103.097931
 30
0.0
 10
144.798448
 20
103.238906
 30
0.0
  0
SPLINE
  5
18d
100
AcDbEntity
  8
0
 62
7
100
AcDbSpline
 70
8
 71
3
 72
8
 73
4
 74
0
 40
0
 40
0
 40
0
 40
0
 40
1
 40
1
 40
1
 40
1
 10
144.798448
 20
103.238906
 30
0.0
 10
144.974667
 20
103.415125
 30
0.0
 10
145.115642
 20
103.626588
 30
0.0
 10
145.291861
 20
103.802807
 30
0.0
  0
SPLINE
  5
18e
100
AcDbEntity
  8
0
 62
7
100
AcDbSpline
 70
8
 71
3
 72
8
 73
4
 74
0
 40
0
 40
0
 40
0
 40
0
 40
1
 40
1
 40
1
 40
1
 10
145.291861
 20
103.802807
 30
0.0
 10
145.785274
 20
104.366707
 30
0.0
 10
146.208200
 20
104.930608
 30
0.0
 10
146.631125
 20
105.564996
 30
0.0
  0
SPLINE
  5
18f
100
AcDbEntity
  8
0
 62
7
100
AcDbSpline
 70
8
 71
3
 72
8
 73
4
 74
0
 40
0
 40
0
 40
0
 40
0
 40
1
 40
1
 40
1
 40
1
 10
146.631125
 20
105.564996
 30
0.0
 10
147.970389
 20
107.609136
 30
0.0
 10
148.957215
 20
109.970470
 30
0.0
 10
149.133434
 20
112.402292
 30
0.0
  0
SPLINE
  5
190
100
AcDbEntity
  8
0
 62
7
100
AcDbSpline
 70
8
 71
3
 72
8
 73
4
 74
0
 40
0
 40
0
 40
0
 40
0
 40
1
 40
1
 40
1
 40
1
 10
149.133434
 20
112.402292
 30
0.0
 10
149.203922
 20
113.318630
 30
0.0
 10
148.957215
 20
115.362770
 30
0.0
 10
148.252340
 20
116.631547
 30
0.0
  0
SPLINE
  5
191
100
AcDbEntity
  8
0
 62
7
100
AcDbSpline
 70
8
 71
3
 72
8
 73
4
 74
0
 40
0
 40
0
 40
0
 40
0
 40
1
 40
1
 40
1
 40
1
 10
148.252340
 20
116.631547
 30
0.0
 10
147.441732
 20
121.107508
 30
0.0
 10
143.811622
 20
123.151648
 30
0.0
 10
139.300417
 20
122.799210
 30
0.0
  0
SPLINE
  5
192
100
AcDbEntity
  8
0
 62
7
100
AcDbSpline
 70
8
 71
3
 72
8
 73
4
 74
0
 40
0
 40
0
 40
0
 40
0
 40
1
 40
1
 40
1
 40
1
 10
139.300417
 20
122.799210
 30
0.0
 10
136.375182
 20
122.552504
 30
0.0
 10
131.863977
 20
120.473120
 30
0.0
 10
130.806663
 20
117.371666
 30
0.0
  0
SPLINE
  5
193
100
AcDbEntity
  8
0
 62
7
100
AcDbSpline
 70
8
 71
3
 72
8
 73
4
 74
0
 40
0
 40
0
 40
0
 40
0
 40
1
 40
1
 40
1
 40
1
 10
130.806663
 20
117.371666
 30
0.0
 10
128.515817
 20
117.547885
 30
0.0
 10
126.013507
 20
117.547885
 30
0.0
 10
123.757905
 20
116.878253
 30
0.0
  0
SPLINE
  5
194
100
AcDbEntity
  8
0
 62
7
100
AcDbSpline
 70
8
 71
3
 72
8
 73
4
 74
0
 40
0
 40
0
 40
0
 40
0
 40
1
 40
1
 40
1
 40
1
 10
123.757905
 20
116.878253
 30
0.0
 10
123.652173
 20
116.843010
 30
0.0
 10
123.546442
 20
116.737278
 30
0.0
 10
123.511198
 20
116.631547
 30
0.0
  0
SPLINE
  5
195
100
AcDbEntity
  8
0
 62
7
100
AcDbSpline
 70
8
 71
3
 72
8
 73
4
 74
0
 40
0
 40
0
 40
0
 40
0
 40
1
 40
1
 40
1
 40
1
 10
123.511198
 20
116.631547
 30
0.0
 10
123.511198
 20
116.561059
 30
0.0
 10
123.475954
 20
116.490572
 30
0.0
 10
123.475954
 20
116.420084
 30
0.0
  0
SPLINE
  5
196
100
AcDbEntity
  8
0
 62
7
100
AcDbSpline
 70
8
 71
3
 72
8
 73
4
 74
0
 40
0
 40
0
 40
0
 40
0
 40
1
 40
1
 40
1
 40
1
 10
123.475954
 20
116.420084
 30
0.0
 10
123.440711
 20
116.279109
 30
0.0
 10
123.616930
 20
116.208621
 30
0.0
 10
123.722661
 20
116.279109
 30
0.0
  0
SPLINE
  5
197
100
AcDbEntity
  8
0
 62
7
100
AcDbSpline
 70
8
 71
3
 72
8
 73
4
 74
0
 40
0
 40
0
 40
0
 40
0
 40
1
 40
1
 40
1
 40
1
 10
123.722661
 20
116.279109
 30
0.0
 10
124.568512
 20
116.596303
 30
0.0
 10
126.013507
 20
116.243865
 30
0.0
 10
126.894602
 20
116.173377
 30
0.0
  0
SPLINE
  5
198
100
AcDbEntity
  8
0
 62
7
100
AcDbSpline
 70
8
 71
3
 72
8
 73
4
 74
0
 40
0
 40
0
 40
0
 40
0
 40
1
 40
1
 40
1
 40
1
 10
126.894602
 20
116.173377
 30
0.0
 10
128.128135
 20
116.102890
 30
0.0
 10
129.326424
 20
115.820940
 30
0.0
 10
130.524713
 20
115.538989
 30
0.0
  0
SPLINE
  5
199
100
AcDbEntity
  8
0
 62
7
100
AcDbSpline
 70
8
 71
3
 72
8
 73
4
 74
0
 40
0
 40
0
 40
0
 40
0
 40
1
 40
1
 40
1
 40
1
 10
130.524713
 20
115.538989
 30
0.0
 10
131.335320
 20
115.327526
 30
0.0
 10
131.828733
 20
116.455328
 30
0.0
 10
131.511539
 20
117.054472
 30
0.0
  0
SPLINE
  5
19a
100
AcDbEntity
  8
0
 62
7
100
AcDbSpline
 70
8
 71
3
 72
8
 73
4
 74
0
 40
0
 40
0
 40
0
 40
0
 40
1
 40
1
 40
1
 40
1
 10
131.511539
 20
117.054472
 30
0.0
 10
133.203241
 20
119.133856
 30
0.0
 10
136.128475
 20
120.649339
 30
0.0
 10
138.701272
 20
120.896046
 30
0.0
  0
SPLINE
  5
19b
100
AcDbEntity
  8
0
 62
7
100
AcDbSpline
 70
8
 71
3
 72
8
 73
4
 74
0
 40
0
 40
0
 40
0
 40
0
 40
1
 40
1
 40
1
 40
1
 10
138.701272
 20
120.896046
 30
0.0
 10
143.212477
 20
121.318971
 30
0.0
 10
145.221374
 20
119.204344
 30
0.0
 10
147.089294
 20
115.574233
 30
0.0
  0
LINE
  5
19c
100
AcDbEntity
  8
0
 62
7
100
AcDbLine
 10
147.089294
 20
115.574233
 30
0.0
 11
147.089294
 21
115.574233
 31
0.0
  0
SPLINE
  5
19d
100
AcDbEntity
  8
0
 62
7
100
AcDbSpline
 70
8
 71
3
 72
8
 73
4
 74
0
 40
0
 40
0
 40
0
 40
0
 40
1
 40
1
 40
1
 40
1
 10
147.089294
 20
115.574233
 30
0.0
 10
147.512220
 20
114.058750
 30
0.0
 10
147.723683
 20
112.684242
 30
0.0
 10
146.983563
 20
110.745834
 30
0.0
  0
SPLINE
  5
19e
100
AcDbEntity
  8
0
 62
7
100
AcDbSpline
 70
8
 71
3
 72
8
 73
4
 74
0
 40
0
 40
0
 40
0
 40
0
 40
1
 40
1
 40
1
 40
1
 10
146.983563
 20
110.745834
 30
0.0
 10
146.067225
 20
108.208281
 30
0.0
 10
144.692717
 20
106.199385
 30
0.0
 10
142.965771
 20
104.155245
 30
0.0
  0
SPLINE
  5
19f
100
AcDbEntity
  8
0
 62
7
100
AcDbSpline
 70
8
 71
3
 72
8
 73
4
 74
0
 40
0
 40
0
 40
0
 40
0
 40
1
 40
1
 40
1
 40
1
 10
142.965771
 20
104.155245
 30
0.0
 10
142.613333
 20
103.732319
 30
0.0
 10
142.683821
 20
103.133175
 30
0.0
 10
143.001015
 20
102.780737
 30
0.0
  0
SPLINE
  5
1a0
100
AcDbEntity
  8
0
 62
7
100
AcDbSpline
 70
8
 71
3
 72
8
 73
4
 74
0
 40
0
 40
0
 40
0
 40
0
 40
1
 40
1
 40
1
 40
1
 10
143.001015
 20
102.780737
 30
0.0
 10
142.965771
 20
102.075861
 30
0.0
 10
143.106746
 20
101.406229
 30
0.0
 10
143.141990
 20
100.701353
 30
0.0
  0
SPLINE
  5
1a1
100
AcDbEntity
  8
0
 62
7
100
AcDbSpline
 70
8
 71
3
 72
8
 73
4
 74
0
 40
0
 40
0
 40
0
 40
0
 40
1
 40
1
 40
1
 40
1
 10
143.141990
 20
100.701353
 30
0.0
 10
143.177234
 20
100.348915
 30
0.0
 10
143.212477
 20
99.996477
 30
0.0
 10
143.247721
 20
99.644039
 30
0.0
  0
SPLINE
  5
1a2
100
AcDbEntity
  8
0
 62
7
100
AcDbSpline
 70
8
 71
3
 72
8
 73
4
 74
0
 40
0
 40
0
 40
0
 40
0
 40
1
 40
1
 40
1
 40
1
 10
143.247721
 20
99.644039
 30
0.0
 10
143.282965
 20
99.291602
 30
0.0
 10
143.282965
 20
99.044895
 30
0.0
 10
143.318209
 20
98.586726
 30
0.0
  0
SPLINE
  5
1a3
100
AcDbEntity
  8
0
 62
7
100
AcDbSpline
 70
8
 71
3
 72
8
 73
4
 74
0
 40
0
 40
0
 40
0
 40
0
 40
1
 40
1
 40
1
 40
1
 10
143.318209
 20
98.586726
 30
0.0
 10
143.353453
 20
97.917094
 30
0.0
 10
143.459184
 20
97.247462
 30
0.0
 10
143.494428
 20
96.577830
 30
0.0
  0
SPLINE
  5
1a4
100
AcDbEntity
  8
0
 62
7
100
AcDbSpline
 70
8
 71
3
 72
8
 73
4
 74
0
 40
0
 40
0
 40
0
 40
0
 40
1
 40
1
 40
1
 40
1
 10
143.494428
 20
96.577830
 30
0.0
 10
143.600159
 20
95.097590
 30
0.0
 10
143.741134
 20
93.617351
 30
0.0
 10
143.917353
 20
92.101868
 30
0.0
  0
SPLINE
  5
1a5
100
AcDbEntity
  8
0
 62
7
100
AcDbSpline
 70
8
 71
3
 72
8
 73
4
 74
0
 40
0
 40
0
 40
0
 40
0
 40
1
 40
1
 40
1
 40
1
 10
143.917353
 20
92.101868
 30
0.0
 10
144.234547
 20
89.141390
 30
0.0
 10
144.692717
 20
86.180911
 30
0.0
 10
145.115642
 20
83.220433
 30
0.0
  0
SPLINE
  5
1a6
100
AcDbEntity
  8
0
 62
7
100
AcDbSpline
 70
8
 71
3
 72
8
 73
4
 74
0
 40
0
 40
0
 40
0
 40
0
 40
1
 40
1
 40
1
 40
1
 10
145.115642
 20
83.220433
 30
0.0
 10
145.256617
 20
82.163119
 30
0.0
 10
145.432836
 20
81.070561
 30
0.0
 10
145.573811
 20
80.013248
 30
0.0
  0
SPLINE
  5
1a7
100
AcDbEntity
  8
0
 62
7
100
AcDbSpline
 70
8
 71
3
 72
8
 73
4
 74
0
 40
0
 40
0
 40
0
 40
0
 40
1
 40
1
 40
1
 40
1
 10
145.573811
 20
80.013248
 30
0.0
 10
146.631125
 20
72.365345
 30
0.0
 10
148.252340
 20
62.990497
 30
0.0
 10
150.366967
 20
55.554057
 30
0.0
  0
SPLINE
  5
1a8
100
AcDbEntity
  8
0
 62
7
100
AcDbSpline
 70
8
 71
3
 72
8
 73
4
 74
0
 40
0
 40
0
 40
0
 40
0
 40
1
 40
1
 40
1
 40
1
 10
150.366967
 20
55.554057
 30
0.0
 10
150.719405
 20
54.320524
 30
0.0
 10
152.340619
 20
55.025400
 30
0.0
 10
152.129157
 20
56.082714
 30
0.0
  0
LINE
  5
1a9
100
AcDbEntity
  8
0
 62
7
100
AcDbLine
 10
152.129157
 20
56.082714
 30
0.0
 11
152.129157
 21
56.082714
 31
0.0
  0
SPLINE
  5
1aa
100
AcDbEntity
  8
0
 62
7
100
AcDbSpline
 70
8
 71
3
 72
8
 73
4
 74
0
 40
0
 40
0
 40
0
 40
0
 40
1
 40
1
 40
1
 40
1
 10
142.683821
 20
116.420084
 30
0.0
 10
141.732238
 20
117.512642
 30
0.0
 10
140.357730
 20
118.288005
 30
0.0
 10
138.947979
 20
117.724104
 30
0.0
  0
SPLINE
  5
1ab
100
AcDbEntity
  8
0
 62
7
100
AcDbSpline
 70
8
 71
3
 72
8
 73
4
 74
0
 40
0
 40
0
 40
0
 40
0
 40
1
 40
1
 40
1
 40
1
 10
138.947979
 20
117.724104
 30
0.0
 10
137.467739
 20
117.160204
 30
0.0
 10
136.269451
 20
116.173377
 30
0.0
 10
135.635062
 20
114.728382
 30
0.0
  0
SPLINE
  5
1ac
100
AcDbEntity
  8
0
 62
7
100
AcDbSpline
 70
8
 71
3
 72
8
 73
4
 74
0
 40
0
 40
0
 40
0
 40
0
 40
1
 40
1
 40
1
 40
1
 10
135.635062
 20
114.728382
 30
0.0
 10
135.564575
 20
114.657894
 30
0.0
 10
135.529331
 20
114.587407
 30
0.0
 10
135.529331
 20
114.481676
 30
0.0
  0
LINE
  5
1ad
100
AcDbEntity
  8
0
 62
7
100
AcDbLine
 10
135.529331
 20
114.481676
 30
0.0
 11
135.529331
 21
114.446432
 31
0.0
  0
SPLINE
  5
1ae
100
AcDbEntity
  8
0
 62
7
100
AcDbSpline
 70
8
 71
3
 72
8
 73
4
 74
0
 40
0
 40
0
 40
0
 40
0
 40
1
 40
1
 40
1
 40
1
 10
135.529331
 20
114.446432
 30
0.0
 10
135.494087
 20
114.375944
 30
0.0
 10
135.529331
 20
114.305457
 30
0.0
 10
135.564575
 20
114.270213
 30
0.0
  0
SPLINE
  5
1af
100
AcDbEntity
  8
0
 62
7
100
AcDbSpline
 70
8
 71
3
 72
8
 73
4
 74
0
 40
0
 40
0
 40
0
 40
0
 40
1
 40
1
 40
1
 40
1
 10
135.564575
 20
114.270213
 30
0.0
 10
135.599819
 20
114.058750
 30
0.0
 10
135.635062
 20
113.882531
 30
0.0
 10
135.705550
 20
113.706312
 30
0.0
  0
SPLINE
  5
1b0
100
AcDbEntity
  8
0
 62
7
100
AcDbSpline
 70
8
 71
3
 72
8
 73
4
 74
0
 40
0
 40
0
 40
0
 40
0
 40
1
 40
1
 40
1
 40
1
 10
135.705550
 20
113.706312
 30
0.0
 10
135.740794
 20
113.600581
 30
0.0
 10
135.811281
 20
113.530093
 30
0.0
 10
135.881769
 20
113.494849
 30
0.0
  0
SPLINE
  5
1b1
100
AcDbEntity
  8
0
 62
7
100
AcDbSpline
 70
8
 71
3
 72
8
 73
4
 74
0
 40
0
 40
0
 40
0
 40
0
 40
1
 40
1
 40
1
 40
1
 10
135.881769
 20
113.494849
 30
0.0
 10
136.269451
 20
112.578511
 30
0.0
 10
136.974326
 20
111.767904
 30
0.0
 10
137.608715
 20
110.992540
 30
0.0
  0
SPLINE
  5
1b2
100
AcDbEntity
  8
0
 62
7
100
AcDbSpline
 70
8
 71
3
 72
8
 73
4
 74
0
 40
0
 40
0
 40
0
 40
0
 40
1
 40
1
 40
1
 40
1
 10
137.608715
 20
110.992540
 30
0.0
 10
138.348834
 20
110.040958
 30
0.0
 10
139.088954
 20
109.089375
 30
0.0
 10
139.829073
 20
108.137793
 30
0.0
  0
SPLINE
  5
1b3
100
AcDbEntity
  8
0
 62
7
100
AcDbSpline
 70
8
 71
3
 72
8
 73
4
 74
0
 40
0
 40
0
 40
0
 40
0
 40
1
 40
1
 40
1
 40
1
 10
139.829073
 20
108.137793
 30
0.0
 10
139.934805
 20
107.996818
 30
0.0
 10
140.111024
 20
107.996818
 30
0.0
 10
140.251999
 20
108.032062
 30
0.0
  0
SPLINE
  5
1b4
100
AcDbEntity
  8
0
 62
7
100
AcDbSpline
 70
8
 71
3
 72
8
 73
4
 74
0
 40
0
 40
0
 40
0
 40
0
 40
1
 40
1
 40
1
 40
1
 10
140.251999
 20
108.032062
 30
0.0
 10
140.357730
 20
107.996818
 30
0.0
 10
140.498706
 20
107.996818
 30
0.0
 10
140.639681
 20
108.102549
 30
0.0
  0
SPLINE
  5
1b5
100
AcDbEntity
  8
0
 62
7
100
AcDbSpline
 70
8
 71
3
 72
8
 73
4
 74
0
 40
0
 40
0
 40
0
 40
0
 40
1
 40
1
 40
1
 40
1
 10
140.639681
 20
108.102549
 30
0.0
 10
142.155164
 20
108.877913
 30
0.0
 10
143.318209
 20
110.322908
 30
0.0
 10
143.811622
 20
111.944123
 30
0.0
  0
SPLINE
  5
1b6
100
AcDbEntity
  8
0
 62
7
100
AcDbSpline
 70
8
 71
3
 72
8
 73
4
 74
0
 40
0
 40
0
 40
0
 40
0
 40
1
 40
1
 40
1
 40
1
 10
143.811622
 20
111.944123
 30
0.0
 10
144.340279
 20
113.741556
 30
0.0
 10
143.917353
 20
115.045576
 30
0.0
 10
142.683821
 20
116.420084
 30
0.0
  0
LINE
  5
1b7
100
AcDbEntity
  8
0
 62
7
100
AcDbLine
 10
142.683821
 20
116.420084
 30
0.0
 11
142.683821
 21
116.420084
 31
0.0
  0
SPLINE
  5
1b8
100
AcDbEntity
  8
0
 62
7
100
AcDbSpline
 70
8
 71
3
 72
8
 73
4
 74
0
 40
0
 40
0
 40
0
 40
0
 40
1
 40
1
 40
1
 40
1
 10
103.316506
 20
113.706312
 30
0.0
 10
102.400167
 20
115.221795
 30
0.0
 10
100.320784
 20
117.265935
 30
0.0
 10
98.452863
 20
117.301179
 30
0.0
  0
SPLINE
  5
1b9
100
AcDbEntity
  8
0
 62
7
100
AcDbSpline
 70
8
 71
3
 72
8
 73
4
 74
0
 40
0
 40
0
 40
0
 40
0
 40
1
 40
1
 40
1
 40
1
 10
98.452863
 20
117.301179
 30
0.0
 10
97.325061
 20
117.336423
 30
0.0
 10
96.056285
 20
116.561059
 30
0.0
 10
95.562872
 20
115.503745
 30
0.0
  0
SPLINE
  5
1ba
100
AcDbEntity
  8
0
 62
7
100
AcDbSpline
 70
8
 71
3
 72
8
 73
4
 74
0
 40
0
 40
0
 40
0
 40
0
 40
1
 40
1
 40
1
 40
1
 10
95.562872
 20
115.503745
 30
0.0
 10
94.576046
 20
114.375944
 30
0.0
 10
93.941657
 20
113.142411
 30
0.0
 10
94.047389
 20
111.556441
 30
0.0
  0
SPLINE
  5
1bb
100
AcDbEntity
  8
0
 62
7
100
AcDbSpline
 70
8
 71
3
 72
8
 73
4
 74
0
 40
0
 40
0
 40
0
 40
0
 40
1
 40
1
 40
1
 40
1
 10
94.047389
 20
111.556441
 30
0.0
 10
94.188364
 20
109.829495
 30
0.0
 10
95.210434
 20
108.208281
 30
0.0
 10
96.514454
 20
107.150967
 30
0.0
  0
SPLINE
  5
1bc
100
AcDbEntity
  8
0
 62
7
100
AcDbSpline
 70
8
 71
3
 72
8
 73
4
 74
0
 40
0
 40
0
 40
0
 40
0
 40
1
 40
1
 40
1
 40
1
 10
96.514454
 20
107.150967
 30
0.0
 10
96.690673
 20
107.009992
 30
0.0
 10
96.902136
 20
107.009992
 30
0.0
 10
97.113599
 20
107.080479
 30
0.0
  0
SPLINE
  5
1bd
100
AcDbEntity
  8
0
 62
7
100
AcDbSpline
 70
8
 71
3
 72
8
 73
4
 74
0
 40
0
 40
0
 40
0
 40
0
 40
1
 40
1
 40
1
 40
1
 10
97.113599
 20
107.080479
 30
0.0
 10
97.184086
 20
107.045236
 30
0.0
 10
97.289818
 20
107.045236
 30
0.0
 10
97.395549
 20
107.080479
 30
0.0
  0
LINE
  5
1be
100
AcDbEntity
  8
0
 62
7
100
AcDbLine
 10
97.395549
 20
107.080479
 30
0.0
 11
97.501280
 21
107.115723
 31
0.0
  0
SPLINE
  5
1bf
100
AcDbEntity
  8
0
 62
7
100
AcDbSpline
 70
8
 71
3
 72
8
 73
4
 74
0
 40
0
 40
0
 40
0
 40
0
 40
1
 40
1
 40
1
 40
1
 10
97.501280
 20
107.115723
 30
0.0
 10
97.888962
 20
107.327186
 30
0.0
 10
98.029937
 20
107.714868
 30
0.0
 10
98.347131
 20
108.032062
 30
0.0
  0
SPLINE
  5
1c0
100
AcDbEntity
  8
0
 62
7
100
AcDbSpline
 70
8
 71
3
 72
8
 73
4
 74
0
 40
0
 40
0
 40
0
 40
0
 40
1
 40
1
 40
1
 40
1
 10
98.347131
 20
108.032062
 30
0.0
 10
98.805301
 20
108.525475
 30
0.0
 10
99.263470
 20
109.018888
 30
0.0
 10
99.721639
 20
109.512301
 30
0.0
  0
SPLINE
  5
1c1
100
AcDbEntity
  8
0
 62
7
100
AcDbSpline
 70
8
 71
3
 72
8
 73
4
 74
0
 40
0
 40
0
 40
0
 40
0
 40
1
 40
1
 40
1
 40
1
 10
99.721639
 20
109.512301
 30
0.0
 10
100.673222
 20
110.604858
 30
0.0
 10
101.977242
 20
111.450709
 30
0.0
 10
102.787849
 20
112.648998
 30
0.0
  0
SPLINE
  5
1c2
100
AcDbEntity
  8
0
 62
7
100
AcDbSpline
 70
8
 71
3
 72
8
 73
4
 74
0
 40
0
 40
0
 40
0
 40
0
 40
1
 40
1
 40
1
 40
1
 10
102.787849
 20
112.648998
 30
0.0
 10
103.175531
 20
112.719486
 30
0.0
 10
103.598456
 20
113.283387
 30
0.0
 10
103.316506
 20
113.706312
 30
0.0
  0
LINE
  5
1c3
100
AcDbEntity
  8
0
 62
7
100
AcDbLine
 10
103.316506
 20
113.706312
 30
0.0
 11
103.316506
 21
113.706312
 31
0.0
  0
ENDSEC
  0
SECTION
  2
OBJECTS
  0
DICTIONARY
  5
C
330
0
100
AcDbDictionary
  3
ACAD_GROUP
350
D
  3
ACAD_MLINESTYLE
350
17
  0
DICTIONARY
  5
D
330
C
100
AcDbDictionary
  0
DICTIONARY
  5
1A
330
C
100
AcDbDictionary
  0
DICTIONARY
  5
17
330
C
100
AcDbDictionary
  3
STANDARD
350
18
  0
DICTIONARY
  5
19
330
C
100
AcDbDictionary
  0
ENDSEC
  0
EOF
