0
SECTION
2
HEADER
9
$INSUNITS
70
4
9
$ACADVER
1
AC1014
9
$HANDSEED
5
FFFF
0
ENDSEC
0
SECTION
2
TABLES
0
TABLE
2
VPORT
5
8
100
AcDbSymbolTable
0
ENDTAB
0
TABLE
2
LTYPE
5
5
100
AcDbSymbolTable
70
2
0
LTYPE
5
14
100
AcDbSymbolTableRecord
100
AcDbLinetypeTableRecord
2
BYBLOCK
70
0
0
LTYPE
5
15
100
AcDbSymbolTableRecord
100
AcDbLinetypeTableRecord
2
BYLAYER
70
0
0
ENDTAB
0
TABLE
2
LAYER
5
2
100
AcDbSymbolTable
70
3
0
LAYER
5
50
100
AcDbSymbolTableRecord
100
AcDbLayerTableRecord
2
0
70
0
6
CONTINUOUS
0
LAYER
5
51
100
AcDbSymbolTableRecord
100
AcDbLayerTableRecord
2
CUTOUTS
70
0
62
1
6
CONTINUOUS
0
LAYER
5
52
100
AcDbSymbolTableRecord
100
AcDbLayerTableRecord
2
PERIMETER
70
0
62
5
6
CONTINUOUS
0
ENDTAB
0
TABLE
2
STYLE
5
3
100
AcDbSymbolTable
70
1
0
STYLE
5
11
100
AcDbSymbolTableRecord
100
AcDbTextStyleTableRecord
2
STANDARD
70
0
0
ENDTAB
0
TABLE
2
VIEW
5
6
100
AcDbSymbolTable
0
ENDTAB
0
TABLE
2
UCS
5
7
100
AcDbSymbolTable
0
ENDTAB
0
TABLE
2
APPID
5
9
100
AcDbSymbolTable
70
1
0
APPID
5
12
100
AcDbSymbolTableRecord
100
AcDbRegAppTableRecord
2
ACAD
70
0
0
ENDTAB
0
TABLE
2
DIMSTYLE
5
A
100
AcDbSymbolTable
0
ENDTAB
0
TABLE
2
BLOCK_RECORD
5
1
100
AcDbSymbolTable
70
2
0
BLOCK_RECORD
5
1F
100
AcDbSymbolTableRecord
100
AcDbBlockTableRecord
2
*MODEL_SPACE
0
BLOCK_RECORD
5
1B
100
AcDbSymbolTableRecord
100
AcDbBlockTableRecord
2
*PAPER_SPACE
0
ENDTAB
0
ENDSEC
0
SECTION
2
BLOCKS
0
BLOCK
5
20
100
AcDbEntity
100
AcDbBlockBegin
2
*MODEL_SPACE
0
ENDBLK
5
21
100
AcDbEntity
100
AcDbBlockEnd
0
BLOCK
5
1C
100
AcDbEntity
100
AcDbBlockBegin
2
*PAPER_SPACE
0
ENDBLK
5
1D
100
AcDbEntity
100
AcDbBlockEnd
0
ENDSEC
0
SECTION
2
ENTITIES
0
CIRCLE
5
100
100
AcDbEntity
8
CUTOUTS
100
AcDbCircle
10
-62.000000000000064
20
-37.64999999999997
30
0
40
1.4249999999999918
0
CIRCLE
5
101
100
AcDbEntity
8
CUTOUTS
100
AcDbCircle
10
-62.000000000000064
20
37.650000000000006
30
0
40
1.4249999999999918
0
CIRCLE
5
102
100
AcDbEntity
8
CUTOUTS
100
AcDbCircle
10
62.000000000000099
20
-37.64999999999997
30
0
40
1.4250000000000185
0
CIRCLE
5
103
100
AcDbEntity
8
CUTOUTS
100
AcDbCircle
10
62.000000000000099
20
37.650000000000006
30
0
40
1.4249999999999829
0
CIRCLE
5
104
100
AcDbEntity
8
CUTOUTS
100
AcDbCircle
10
43.999999999999986
20
-12.999999999999972
30
0
40
1.5249999999999986
0
CIRCLE
5
105
100
AcDbEntity
8
CUTOUTS
100
AcDbCircle
10
43.999999999999986
20
13.000000000000007
30
0
40
1.5249999999999986
0
ARC
5
106
100
AcDbEntity
8
CUTOUTS
100
AcDbCircle
10
16.800024169228678
20
-22.299999999999969
30
0
40
0.92499999999997584
100
AcDbArc
50
90
51
180
0
LINE
5
107
100
AcDbEntity
8
CUTOUTS
100
AcDbLine
10
16.800024169228678
20
-21.374999999999993
30
0
11
46.124975830771291
21
-21.374999999999993
31
0
0
LINE
5
108
100
AcDbEntity
8
CUTOUTS
100
AcDbLine
10
46.124975830771291
20
-21.374999999999993
30
0
11
46.124975830771291
21
-26.624951661542724
31
0
0
LINE
5
109
100
AcDbEntity
8
CUTOUTS
100
AcDbLine
10
46.124975830771291
20
-26.624951661542724
30
0
11
15.875024169228666
21
-26.624951661542724
31
0
0
LINE
5
10A
100
AcDbEntity
8
CUTOUTS
100
AcDbLine
10
15.875024169228666
20
-26.624951661542724
30
0
11
15.875024169228666
21
-22.299999999999969
31
0
0
ARC
5
10B
100
AcDbEntity
8
CUTOUTS
100
AcDbCircle
10
10
20
-9.9999999999999289
30
0
40
9.9249999999999972
100
AcDbArc
50
-90
51
0
0
LINE
5
10C
100
AcDbEntity
8
CUTOUTS
100
AcDbLine
10
19.924999999999997
20
9.9999999999999645
30
0
11
19.924999999999997
21
-9.9999999999999289
31
0
0
ARC
5
10D
100
AcDbEntity
8
CUTOUTS
100
AcDbCircle
10
10
20
9.9999999999999645
30
0
40
9.9249999999999972
100
AcDbArc
50
0
51
90
0
LINE
5
10E
100
AcDbEntity
8
CUTOUTS
100
AcDbLine
10
-10.925000000000011
20
19.924999999999962
30
0
11
10
21
19.924999999999979
31
0
0
LINE
5
10F
100
AcDbEntity
8
CUTOUTS
100
AcDbLine
10
-10.925000000000011
20
13.740077292023969
30
0
11
-10.925000000000011
21
19.924999999999962
31
0
0
LINE
5
110
100
AcDbEntity
8
CUTOUTS
100
AcDbLine
10
-35.925000000000011
20
13.740077292023969
30
0
11
-10.925000000000011
21
13.740077292023969
31
0
0
LINE
5
111
100
AcDbEntity
8
CUTOUTS
100
AcDbLine
10
-35.925000000000082
20
-13.740077292023933
30
0
11
-35.925000000000011
21
13.740077292023969
31
0
0
LINE
5
112
100
AcDbEntity
8
CUTOUTS
100
AcDbLine
10
-10.925000000000082
20
-13.740077292023933
30
0
11
-35.925000000000082
21
-13.740077292023933
31
0
0
LINE
5
113
100
AcDbEntity
8
CUTOUTS
100
AcDbLine
10
-10.925000000000011
20
-19.924999999999926
30
0
11
-10.925000000000082
21
-13.740077292023933
31
0
0
LINE
5
114
100
AcDbEntity
8
CUTOUTS
100
AcDbLine
10
10
20
-19.924999999999926
30
0
11
-10.925000000000011
21
-19.924999999999926
31
0
0
LINE
5
115
100
AcDbEntity
8
CUTOUTS
100
AcDbLine
10
51.075000000000017
20
-19.924999999999997
30
0
11
51.075000000000017
21
19.925000000000015
31
0
0
LINE
5
116
100
AcDbEntity
8
CUTOUTS
100
AcDbLine
10
51.075000000000017
20
19.925000000000015
30
0
11
65.925000000000011
21
19.924999999999962
31
0
0
LINE
5
117
100
AcDbEntity
8
CUTOUTS
100
AcDbLine
10
65.925000000000011
20
19.924999999999962
30
0
11
65.92499999999994
21
-19.924999999999997
31
0
0
LINE
5
118
100
AcDbEntity
8
CUTOUTS
100
AcDbLine
10
65.92499999999994
20
-19.924999999999997
30
0
11
51.075000000000017
21
-19.924999999999997
31
0
0
LINE
5
119
100
AcDbEntity
8
PERIMETER
100
AcDbLine
10
71.075000000000088
20
46.725000000000009
30
0
11
-71.075000000000045
21
46.725000000000009
31
0
0
LINE
5
11A
100
AcDbEntity
8
PERIMETER
100
AcDbLine
10
-71.075000000000045
20
46.725000000000009
30
0
11
-71.075000000000045
21
-46.72500000000003
31
0
0
LINE
5
11B
100
AcDbEntity
8
PERIMETER
100
AcDbLine
10
-71.075000000000045
20
-46.72500000000003
30
0
11
71.075000000000088
21
-46.724999999999994
31
0
0
LINE
5
11C
100
AcDbEntity
8
PERIMETER
100
AcDbLine
10
71.075000000000088
20
-46.724999999999994
30
0
11
71.075000000000088
21
46.725000000000009
31
0
0
ENDSEC
0
SECTION
2
OBJECTS
0
DICTIONARY
5
C
100
AcDbDictionary
3
ACAD_GROUP
350
D
3
ACAD_MLINESTYLE
350
17
0
DICTIONARY
5
D
100
AcDbDictionary
0
DICTIONARY
5
1A
330
C
100
AcDbDictionary
0
DICTIONARY
5
17
100
AcDbDictionary
0
ENDSEC
0
EOF
