0
SECTION
2
HEADER
9
$INSUNITS
70
4
9
$ACADVER
1
AC1014
9
$HANDSEED
5
FFFF
0
ENDSEC
0
SECTION
2
TABLES
0
TABLE
2
VPORT
5
8
100
AcDbSymbolTable
0
ENDTAB
0
TABLE
2
LTYPE
5
5
100
AcDbSymbolTable
70
2
0
LTYPE
5
14
100
AcDbSymbolTableRecord
100
AcDbLinetypeTableRecord
2
BYBLOCK
70
0
0
LTYPE
5
15
100
AcDbSymbolTableRecord
100
AcDbLinetypeTableRecord
2
BYLAYER
70
0
0
ENDTAB
0
TABLE
2
LAYER
5
2
100
AcDbSymbolTable
70
3
0
LAYER
5
50
100
AcDbSymbolTableRecord
100
AcDbLayerTableRecord
2
0
70
0
6
CONTINUOUS
0
LAYER
5
51
100
AcDbSymbolTableRecord
100
AcDbLayerTableRecord
2
CUTOUTS
70
0
62
1
6
CONTINUOUS
0
LAYER
5
52
100
AcDbSymbolTableRecord
100
AcDbLayerTableRecord
2
PERIMETER
70
0
62
5
6
CONTINUOUS
0
ENDTAB
0
TABLE
2
STYLE
5
3
100
AcDbSymbolTable
70
1
0
STYLE
5
11
100
AcDbSymbolTableRecord
100
AcDbTextStyleTableRecord
2
STANDARD
70
0
0
ENDTAB
0
TABLE
2
VIEW
5
6
100
AcDbSymbolTable
0
ENDTAB
0
TABLE
2
UCS
5
7
100
AcDbSymbolTable
0
ENDTAB
0
TABLE
2
APPID
5
9
100
AcDbSymbolTable
70
1
0
APPID
5
12
100
AcDbSymbolTableRecord
100
AcDbRegAppTableRecord
2
ACAD
70
0
0
ENDTAB
0
TABLE
2
DIMSTYLE
5
A
100
AcDbSymbolTable
0
ENDTAB
0
TABLE
2
BLOCK_RECORD
5
1
100
AcDbSymbolTable
70
2
0
BLOCK_RECORD
5
1F
100
AcDbSymbolTableRecord
100
AcDbBlockTableRecord
2
*MODEL_SPACE
0
BLOCK_RECORD
5
1B
100
AcDbSymbolTableRecord
100
AcDbBlockTableRecord
2
*PAPER_SPACE
0
ENDTAB
0
ENDSEC
0
SECTION
2
BLOCKS
0
BLOCK
5
20
100
AcDbEntity
100
AcDbBlockBegin
2
*MODEL_SPACE
0
ENDBLK
5
21
100
AcDbEntity
100
AcDbBlockEnd
0
BLOCK
5
1C
100
AcDbEntity
100
AcDbBlockBegin
2
*PAPER_SPACE
0
ENDBLK
5
1D
100
AcDbEntity
100
AcDbBlockEnd
0
ENDSEC
0
SECTION
2
ENTITIES
0
LINE
5
100
100
AcDbEntity
8
CUTOUTS
100
AcDbLine
10
-28.334494445992675
20
2.0750000000000135
30
0
11
-28.334494445992675
21
3.9250000000000007
31
0
0
LINE
5
101
100
AcDbEntity
8
CUTOUTS
100
AcDbLine
10
-28.334494445992675
20
3.9250000000000007
30
0
11
-23.484494445992681
21
3.9250000000000007
31
0
0
LINE
5
102
100
AcDbEntity
8
CUTOUTS
100
AcDbLine
10
-23.484494445992681
20
3.9250000000000007
30
0
11
-23.484494445992681
21
2.0750000000000135
31
0
0
LINE
5
103
100
AcDbEntity
8
CUTOUTS
100
AcDbLine
10
-23.484494445992681
20
2.0750000000000135
30
0
11
-28.334494445992675
21
2.0750000000000135
31
0
0
LINE
5
104
100
AcDbEntity
8
CUTOUTS
100
AcDbLine
10
-1.074999999999946
20
-6.7644577266725925
30
0
11
-1.074999999999946
21
-4.9144577266726053
31
0
0
LINE
5
105
100
AcDbEntity
8
CUTOUTS
100
AcDbLine
10
-1.074999999999946
20
-4.9144577266726053
30
0
11
3.7750000000000483
21
-4.9144577266726053
31
0
0
LINE
5
106
100
AcDbEntity
8
CUTOUTS
100
AcDbLine
10
3.7750000000000483
20
-4.9144577266726053
30
0
11
3.7750000000000483
21
-6.7644577266725925
31
0
0
LINE
5
107
100
AcDbEntity
8
CUTOUTS
100
AcDbLine
10
3.7750000000000483
20
-6.7644577266725925
30
0
11
-1.074999999999946
21
-6.7644577266725925
31
0
0
LINE
5
108
100
AcDbEntity
8
CUTOUTS
100
AcDbLine
10
18.925000000000054
20
-6.9250000000000078
30
0
11
18.925000000000054
21
-5.0750000000000206
31
0
0
LINE
5
109
100
AcDbEntity
8
CUTOUTS
100
AcDbLine
10
18.925000000000054
20
-5.0750000000000206
30
0
11
23.775000000000048
21
-5.0750000000000028
31
0
0
LINE
5
10A
100
AcDbEntity
8
CUTOUTS
100
AcDbLine
10
23.775000000000048
20
-5.0750000000000028
30
0
11
23.775000000000048
21
-6.9250000000000078
31
0
0
LINE
5
10B
100
AcDbEntity
8
CUTOUTS
100
AcDbLine
10
23.775000000000048
20
-6.9250000000000078
30
0
11
18.925000000000054
21
-6.9250000000000078
31
0
0
LINE
5
10C
100
AcDbEntity
8
CUTOUTS
100
AcDbLine
10
-28.334494445992675
20
-3.9250000000000362
30
0
11
-28.334494445992675
21
-2.075000000000049
31
0
0
LINE
5
10D
100
AcDbEntity
8
CUTOUTS
100
AcDbLine
10
-28.334494445992675
20
-2.075000000000049
30
0
11
-23.484494445992681
21
-2.075000000000049
31
0
0
LINE
5
10E
100
AcDbEntity
8
CUTOUTS
100
AcDbLine
10
-23.484494445992681
20
-2.075000000000049
30
0
11
-23.484494445992681
21
-3.9250000000000362
31
0
0
LINE
5
10F
100
AcDbEntity
8
CUTOUTS
100
AcDbLine
10
-23.484494445992681
20
-3.9250000000000362
30
0
11
-28.334494445992675
21
-3.9250000000000362
31
0
0
LINE
5
110
100
AcDbEntity
8
CUTOUTS
100
AcDbLine
10
-21.074999999999946
20
-3.925000000000054
30
0
11
-21.074999999999946
21
-2.075000000000049
31
0
0
LINE
5
111
100
AcDbEntity
8
CUTOUTS
100
AcDbLine
10
-21.074999999999946
20
-2.075000000000049
30
0
11
-16.224999999999952
21
-2.075000000000049
31
0
0
LINE
5
112
100
AcDbEntity
8
CUTOUTS
100
AcDbLine
10
-16.224999999999952
20
-2.075000000000049
30
0
11
-16.224999999999952
21
-3.925000000000054
31
0
0
LINE
5
113
100
AcDbEntity
8
CUTOUTS
100
AcDbLine
10
-16.224999999999952
20
-3.925000000000054
30
0
11
-21.074999999999946
21
-3.925000000000054
31
0
0
LINE
5
114
100
AcDbEntity
8
CUTOUTS
100
AcDbLine
10
-1.074999999999946
20
6.764457726672557
30
0
11
3.7750000000000483
21
6.764457726672557
31
0
0
LINE
5
115
100
AcDbEntity
8
CUTOUTS
100
AcDbLine
10
3.7750000000000483
20
6.764457726672557
30
0
11
3.7750000000000483
21
4.9144577266725697
31
0
0
LINE
5
116
100
AcDbEntity
8
CUTOUTS
100
AcDbLine
10
3.7750000000000483
20
4.9144577266725697
30
0
11
-1.074999999999946
21
4.9144577266725697
31
0
0
LINE
5
117
100
AcDbEntity
8
CUTOUTS
100
AcDbLine
10
-1.074999999999946
20
4.9144577266725697
30
0
11
-1.074999999999946
21
6.764457726672557
31
0
0
LINE
5
118
100
AcDbEntity
8
CUTOUTS
100
AcDbLine
10
-21.074999999999946
20
2.0750000000000135
30
0
11
-21.074999999999946
21
3.9250000000000007
31
0
0
LINE
5
119
100
AcDbEntity
8
CUTOUTS
100
AcDbLine
10
-21.074999999999946
20
3.9250000000000007
30
0
11
-16.224999999999952
21
3.9250000000000007
31
0
0
LINE
5
11A
100
AcDbEntity
8
CUTOUTS
100
AcDbLine
10
-16.224999999999952
20
3.9250000000000007
30
0
11
-16.224999999999952
21
2.0750000000000135
31
0
0
LINE
5
11B
100
AcDbEntity
8
CUTOUTS
100
AcDbLine
10
-16.224999999999952
20
2.0750000000000135
30
0
11
-21.074999999999946
21
2.0750000000000135
31
0
0
LINE
5
11C
100
AcDbEntity
8
CUTOUTS
100
AcDbLine
10
18.925000000000054
20
5.0750000000000206
30
0
11
18.925000000000054
21
6.9250000000000078
31
0
0
LINE
5
11D
100
AcDbEntity
8
CUTOUTS
100
AcDbLine
10
18.925000000000054
20
6.9250000000000078
30
0
11
23.775000000000048
21
6.9250000000000078
31
0
0
LINE
5
11E
100
AcDbEntity
8
CUTOUTS
100
AcDbLine
10
23.775000000000048
20
6.9250000000000078
30
0
11
23.775000000000048
21
5.0750000000000206
31
0
0
LINE
5
11F
100
AcDbEntity
8
CUTOUTS
100
AcDbLine
10
23.775000000000048
20
5.0750000000000206
30
0
11
18.925000000000054
21
5.0750000000000206
31
0
0
LINE
5
120
100
AcDbEntity
8
PERIMETER
100
AcDbLine
10
31.925000000000026
20
-11.075000000000017
30
0
11
31.925000000000026
21
11.075000000000017
31
0
0
LINE
5
121
100
AcDbEntity
8
PERIMETER
100
AcDbLine
10
31.925000000000026
20
11.075000000000017
30
0
11
-31.925000000000026
21
11.075000000000017
31
0
0
LINE
5
122
100
AcDbEntity
8
PERIMETER
100
AcDbLine
10
-31.925000000000026
20
11.075000000000017
30
0
11
-31.925000000000026
21
-11.075000000000017
31
0
0
LINE
5
123
100
AcDbEntity
8
PERIMETER
100
AcDbLine
10
-31.925000000000026
20
-11.075000000000017
30
0
11
31.925000000000026
21
-11.075000000000017
31
0
0
ENDSEC
0
SECTION
2
OBJECTS
0
DICTIONARY
5
C
100
AcDbDictionary
3
ACAD_GROUP
350
D
3
ACAD_MLINESTYLE
350
17
0
DICTIONARY
5
D
100
AcDbDictionary
0
DICTIONARY
5
1A
330
C
100
AcDbDictionary
0
DICTIONARY
5
17
100
AcDbDictionary
0
ENDSEC
0
EOF
