0
SECTION
2
HEADER
9
$INSUNITS
70
4
9
$ACADVER
1
AC1014
9
$HANDSEED
5
FFFF
0
ENDSEC
0
SECTION
2
TABLES
0
TABLE
2
VPORT
5
8
100
AcDbSymbolTable
0
ENDTAB
0
TABLE
2
LTYPE
5
5
100
AcDbSymbolTable
70
2
0
LTYPE
5
14
100
AcDbSymbolTableRecord
100
AcDbLinetypeTableRecord
2
BYBLOCK
70
0
0
LTYPE
5
15
100
AcDbSymbolTableRecord
100
AcDbLinetypeTableRecord
2
BYLAYER
70
0
0
ENDTAB
0
TABLE
2
LAYER
5
2
100
AcDbSymbolTable
70
3
0
LAYER
5
50
100
AcDbSymbolTableRecord
100
AcDbLayerTableRecord
2
0
70
0
6
CONTINUOUS
0
LAYER
5
51
100
AcDbSymbolTableRecord
100
AcDbLayerTableRecord
2
CUTOUTS
70
0
62
1
6
CONTINUOUS
0
LAYER
5
52
100
AcDbSymbolTableRecord
100
AcDbLayerTableRecord
2
PERIMETER
70
0
62
5
6
CONTINUOUS
0
ENDTAB
0
TABLE
2
STYLE
5
3
100
AcDbSymbolTable
70
1
0
STYLE
5
11
100
AcDbSymbolTableRecord
100
AcDbTextStyleTableRecord
2
STANDARD
70
0
0
ENDTAB
0
TABLE
2
VIEW
5
6
100
AcDbSymbolTable
0
ENDTAB
0
TABLE
2
UCS
5
7
100
AcDbSymbolTable
0
ENDTAB
0
TABLE
2
APPID
5
9
100
AcDbSymbolTable
70
1
0
APPID
5
12
100
AcDbSymbolTableRecord
100
AcDbRegAppTableRecord
2
ACAD
70
0
0
ENDTAB
0
TABLE
2
DIMSTYLE
5
A
100
AcDbSymbolTable
0
ENDTAB
0
TABLE
2
BLOCK_RECORD
5
1
100
AcDbSymbolTable
70
2
0
BLOCK_RECORD
5
1F
100
AcDbSymbolTableRecord
100
AcDbBlockTableRecord
2
*MODEL_SPACE
0
BLOCK_RECORD
5
1B
100
AcDbSymbolTableRecord
100
AcDbBlockTableRecord
2
*PAPER_SPACE
0
ENDTAB
0
ENDSEC
0
SECTION
2
BLOCKS
0
BLOCK
5
20
100
AcDbEntity
100
AcDbBlockBegin
2
*MODEL_SPACE
0
ENDBLK
5
21
100
AcDbEntity
100
AcDbBlockEnd
0
BLOCK
5
1C
100
AcDbEntity
100
AcDbBlockBegin
2
*PAPER_SPACE
0
ENDBLK
5
1D
100
AcDbEntity
100
AcDbBlockEnd
0
ENDSEC
0
SECTION
2
ENTITIES
0
CIRCLE
5
100
100
AcDbEntity
8
CUTOUTS
100
AcDbCircle
10
62.000000000000099
20
37.650000000000013
30
0
40
1.4250000000000185
0
CIRCLE
5
101
100
AcDbEntity
8
CUTOUTS
100
AcDbCircle
10
-62.000000000000028
20
37.650000000000013
30
0
40
1.4250000000000007
0
CIRCLE
5
102
100
AcDbEntity
8
CUTOUTS
100
AcDbCircle
10
-62.000000000000028
20
-37.65000000000002
30
0
40
1.4249999999999918
0
CIRCLE
5
103
100
AcDbEntity
8
CUTOUTS
100
AcDbCircle
10
62.000000000000099
20
-37.650000000000006
30
0
40
1.4250000000000185
0
CIRCLE
5
104
100
AcDbEntity
8
CUTOUTS
100
AcDbCircle
10
10.700000000000003
20
24.150000000000031
30
0
40
1.4250000000000029
0
CIRCLE
5
105
100
AcDbEntity
8
CUTOUTS
100
AcDbCircle
10
12.000000000000028
20
-24.149999999999991
30
0
40
1.4250000000000029
0
CIRCLE
5
106
100
AcDbEntity
8
CUTOUTS
100
AcDbCircle
10
62.800000000000082
20
-8.3499999999999641
30
0
40
1.4249999999999829
0
CIRCLE
5
107
100
AcDbEntity
8
CUTOUTS
100
AcDbCircle
10
62.800000000000011
20
19.650000000000031
30
0
40
1.4249999999999829
0
LINE
5
108
100
AcDbEntity
8
CUTOUTS
100
AcDbLine
10
-53.375000000000021
20
8.7249999999999872
30
0
11
-58.225000000000016
21
8.7249999999999783
31
0
0
LINE
5
109
100
AcDbEntity
8
CUTOUTS
100
AcDbLine
10
-58.225000000000016
20
8.7249999999999783
30
0
11
-58.225000000000016
21
10.574999999999974
31
0
0
LINE
5
10A
100
AcDbEntity
8
CUTOUTS
100
AcDbLine
10
-58.225000000000016
20
10.574999999999974
30
0
11
-53.375000000000021
21
10.574999999999974
31
0
0
LINE
5
10B
100
AcDbEntity
8
CUTOUTS
100
AcDbLine
10
-53.375000000000021
20
10.574999999999974
30
0
11
-53.375000000000021
21
8.7249999999999872
31
0
0
LINE
5
10C
100
AcDbEntity
8
CUTOUTS
100
AcDbLine
10
-60.634494445992715
20
16.575000000000038
30
0
11
-60.634494445992715
21
14.725000000000033
31
0
0
LINE
5
10D
100
AcDbEntity
8
CUTOUTS
100
AcDbLine
10
-60.634494445992715
20
14.725000000000033
30
0
11
-65.484494445992709
21
14.72500000000001
31
0
0
LINE
5
10E
100
AcDbEntity
8
CUTOUTS
100
AcDbLine
10
-65.484494445992709
20
14.72500000000001
30
0
11
-65.484494445992709
21
16.575000000000017
31
0
0
LINE
5
10F
100
AcDbEntity
8
CUTOUTS
100
AcDbLine
10
-65.484494445992709
20
16.575000000000017
30
0
11
-60.634494445992715
21
16.575000000000038
31
0
0
LINE
5
110
100
AcDbEntity
8
CUTOUTS
100
AcDbLine
10
-58.225000000000016
20
14.725000000000033
30
0
11
-58.225000000000016
21
16.575000000000038
31
0
0
LINE
5
111
100
AcDbEntity
8
CUTOUTS
100
AcDbLine
10
-58.225000000000016
20
16.575000000000038
30
0
11
-53.375000000000021
21
16.575000000000024
31
0
0
LINE
5
112
100
AcDbEntity
8
CUTOUTS
100
AcDbLine
10
-53.375000000000021
20
16.575000000000024
30
0
11
-53.375000000000021
21
14.725000000000019
31
0
0
LINE
5
113
100
AcDbEntity
8
CUTOUTS
100
AcDbLine
10
-53.375000000000021
20
14.725000000000019
30
0
11
-58.225000000000016
21
14.725000000000033
31
0
0
LINE
5
114
100
AcDbEntity
8
CUTOUTS
100
AcDbLine
10
-65.484494445992709
20
8.7249999999999694
30
0
11
-65.484494445992709
21
10.574999999999974
31
0
0
LINE
5
115
100
AcDbEntity
8
CUTOUTS
100
AcDbLine
10
-65.484494445992709
20
10.574999999999974
30
0
11
-60.634494445992715
21
10.574999999999974
31
0
0
LINE
5
116
100
AcDbEntity
8
CUTOUTS
100
AcDbLine
10
-60.634494445992715
20
10.574999999999974
30
0
11
-60.634494445992715
21
8.7249999999999783
31
0
0
LINE
5
117
100
AcDbEntity
8
CUTOUTS
100
AcDbLine
10
-60.634494445992715
20
8.7249999999999783
30
0
11
-65.484494445992709
21
8.7249999999999694
31
0
0
LINE
5
118
100
AcDbEntity
8
CUTOUTS
100
AcDbLine
10
-13.375000000000021
20
-5.7249999999999801
30
0
11
-13.375000000000021
21
-7.5749999999999762
31
0
0
LINE
5
119
100
AcDbEntity
8
CUTOUTS
100
AcDbLine
10
-13.375000000000021
20
-7.5749999999999762
30
0
11
-18.225000000000016
21
-7.5749999999999762
31
0
0
LINE
5
11A
100
AcDbEntity
8
CUTOUTS
100
AcDbLine
10
-18.225000000000016
20
-7.5749999999999762
30
0
11
-18.225000000000016
21
-5.7249999999999801
31
0
0
LINE
5
11B
100
AcDbEntity
8
CUTOUTS
100
AcDbLine
10
-18.225000000000016
20
-5.7249999999999801
30
0
11
-13.375000000000021
21
-5.7249999999999801
31
0
0
LINE
5
11C
100
AcDbEntity
8
CUTOUTS
100
AcDbLine
10
-38.225000000000016
20
-5.8855422733274221
30
0
11
-33.374999999999986
21
-5.8855422733274221
31
0
0
LINE
5
11D
100
AcDbEntity
8
CUTOUTS
100
AcDbLine
10
-33.374999999999986
20
-5.8855422733274221
30
0
11
-33.374999999999986
21
-7.7355422733274182
31
0
0
LINE
5
11E
100
AcDbEntity
8
CUTOUTS
100
AcDbLine
10
-33.374999999999986
20
-7.7355422733274182
30
0
11
-38.225000000000016
21
-7.7355422733274182
31
0
0
LINE
5
11F
100
AcDbEntity
8
CUTOUTS
100
AcDbLine
10
-38.225000000000016
20
-7.7355422733274182
30
0
11
-38.225000000000016
21
-5.8855422733274221
31
0
0
LINE
5
120
100
AcDbEntity
8
CUTOUTS
100
AcDbLine
10
-38.22499999999998
20
-17.564457726672593
30
0
11
-33.374999999999986
21
-17.564457726672586
31
0
0
LINE
5
121
100
AcDbEntity
8
CUTOUTS
100
AcDbLine
10
-33.374999999999986
20
-17.564457726672586
30
0
11
-33.374999999999986
21
-19.41445772667258
31
0
0
LINE
5
122
100
AcDbEntity
8
CUTOUTS
100
AcDbLine
10
-33.374999999999986
20
-19.41445772667258
30
0
11
-38.22499999999998
21
-19.414457726672588
31
0
0
LINE
5
123
100
AcDbEntity
8
CUTOUTS
100
AcDbLine
10
-38.22499999999998
20
-19.414457726672588
30
0
11
-38.22499999999998
21
-17.564457726672593
31
0
0
LINE
5
124
100
AcDbEntity
8
CUTOUTS
100
AcDbLine
10
-13.375000000000021
20
-17.724999999999991
30
0
11
-13.375000000000021
21
-19.574999999999996
31
0
0
LINE
5
125
100
AcDbEntity
8
CUTOUTS
100
AcDbLine
10
-13.375000000000021
20
-19.574999999999996
30
0
11
-18.225000000000016
21
-19.574999999999996
31
0
0
LINE
5
126
100
AcDbEntity
8
CUTOUTS
100
AcDbLine
10
-18.225000000000016
20
-19.574999999999996
30
0
11
-18.225000000000016
21
-17.725000000000001
31
0
0
LINE
5
127
100
AcDbEntity
8
CUTOUTS
100
AcDbLine
10
-18.225000000000016
20
-17.725000000000001
30
0
11
-13.375000000000021
21
-17.724999999999991
31
0
0
LINE
5
128
100
AcDbEntity
8
CUTOUTS
100
AcDbLine
10
-53.375000000000021
20
-14.725000000000028
30
0
11
-53.375000000000021
21
-16.575000000000042
31
0
0
LINE
5
129
100
AcDbEntity
8
CUTOUTS
100
AcDbLine
10
-53.375000000000021
20
-16.575000000000042
30
0
11
-58.225000000000016
21
-16.575000000000042
31
0
0
LINE
5
12A
100
AcDbEntity
8
CUTOUTS
100
AcDbLine
10
-58.225000000000016
20
-16.575000000000042
30
0
11
-58.225000000000016
21
-14.725000000000028
31
0
0
LINE
5
12B
100
AcDbEntity
8
CUTOUTS
100
AcDbLine
10
-58.225000000000016
20
-14.725000000000028
30
0
11
-53.375000000000021
21
-14.725000000000028
31
0
0
LINE
5
12C
100
AcDbEntity
8
CUTOUTS
100
AcDbLine
10
-60.634494445992715
20
-14.725000000000046
30
0
11
-60.634494445992715
21
-16.575000000000024
31
0
0
LINE
5
12D
100
AcDbEntity
8
CUTOUTS
100
AcDbLine
10
-60.634494445992715
20
-16.575000000000024
30
0
11
-65.484494445992709
21
-16.575000000000024
31
0
0
LINE
5
12E
100
AcDbEntity
8
CUTOUTS
100
AcDbLine
10
-65.484494445992709
20
-16.575000000000024
30
0
11
-65.484494445992709
21
-14.725000000000046
31
0
0
LINE
5
12F
100
AcDbEntity
8
CUTOUTS
100
AcDbLine
10
-65.484494445992709
20
-14.725000000000046
30
0
11
-60.634494445992715
21
-14.725000000000046
31
0
0
LINE
5
130
100
AcDbEntity
8
CUTOUTS
100
AcDbLine
10
-60.634494445992715
20
-8.7249999999999872
30
0
11
-60.634494445992715
21
-10.574999999999983
31
0
0
LINE
5
131
100
AcDbEntity
8
CUTOUTS
100
AcDbLine
10
-60.634494445992715
20
-10.574999999999983
30
0
11
-65.484494445992709
21
-10.574999999999983
31
0
0
LINE
5
132
100
AcDbEntity
8
CUTOUTS
100
AcDbLine
10
-65.484494445992709
20
-10.574999999999983
30
0
11
-65.484494445992709
21
-8.7249999999999872
31
0
0
LINE
5
133
100
AcDbEntity
8
CUTOUTS
100
AcDbLine
10
-65.484494445992709
20
-8.7249999999999872
30
0
11
-60.634494445992715
21
-8.7249999999999872
31
0
0
LINE
5
134
100
AcDbEntity
8
CUTOUTS
100
AcDbLine
10
-53.375000000000021
20
-8.7249999999999872
30
0
11
-53.375000000000021
21
-10.574999999999983
31
0
0
LINE
5
135
100
AcDbEntity
8
CUTOUTS
100
AcDbLine
10
-53.375000000000021
20
-10.574999999999983
30
0
11
-58.225000000000016
21
-10.574999999999983
31
0
0
LINE
5
136
100
AcDbEntity
8
CUTOUTS
100
AcDbLine
10
-58.225000000000016
20
-10.574999999999983
30
0
11
-58.225000000000016
21
-8.7249999999999872
31
0
0
LINE
5
137
100
AcDbEntity
8
CUTOUTS
100
AcDbLine
10
-58.225000000000016
20
-8.7249999999999872
30
0
11
-53.375000000000021
21
-8.7249999999999872
31
0
0
LINE
5
138
100
AcDbEntity
8
PERIMETER
100
AcDbLine
10
-71.075000000000045
20
46.725000000000009
30
0
11
-71.075000000000045
21
-46.72500000000003
31
0
0
LINE
5
139
100
AcDbEntity
8
PERIMETER
100
AcDbLine
10
-71.075000000000045
20
-46.72500000000003
30
0
11
71.075000000000088
21
-46.725000000000009
31
0
0
LINE
5
13A
100
AcDbEntity
8
PERIMETER
100
AcDbLine
10
71.075000000000088
20
-46.725000000000009
30
0
11
71.075000000000088
21
46.725000000000009
31
0
0
LINE
5
13B
100
AcDbEntity
8
PERIMETER
100
AcDbLine
10
71.075000000000088
20
46.725000000000009
30
0
11
-71.075000000000045
21
46.725000000000009
31
0
0
ENDSEC
0
SECTION
2
OBJECTS
0
DICTIONARY
5
C
100
AcDbDictionary
3
ACAD_GROUP
350
D
3
ACAD_MLINESTYLE
350
17
0
DICTIONARY
5
D
100
AcDbDictionary
0
DICTIONARY
5
1A
330
C
100
AcDbDictionary
0
DICTIONARY
5
17
100
AcDbDictionary
0
ENDSEC
0
EOF
