0
SECTION
2
HEADER
9
$INSUNITS
70
4
9
$ACADVER
1
AC1014
9
$HANDSEED
5
FFFF
0
ENDSEC
0
SECTION
2
TABLES
0
TABLE
2
VPORT
5
8
100
AcDbSymbolTable
0
ENDTAB
0
TABLE
2
LTYPE
5
5
100
AcDbSymbolTable
70
2
0
LTYPE
5
14
100
AcDbSymbolTableRecord
100
AcDbLinetypeTableRecord
2
BYBLOCK
70
0
0
LTYPE
5
15
100
AcDbSymbolTableRecord
100
AcDbLinetypeTableRecord
2
BYLAYER
70
0
0
ENDTAB
0
TABLE
2
LAYER
5
2
100
AcDbSymbolTable
70
3
0
LAYER
5
50
100
AcDbSymbolTableRecord
100
AcDbLayerTableRecord
2
0
70
0
6
CONTINUOUS
0
LAYER
5
51
100
AcDbSymbolTableRecord
100
AcDbLayerTableRecord
2
CUTOUTS
70
0
62
1
6
CONTINUOUS
0
LAYER
5
52
100
AcDbSymbolTableRecord
100
AcDbLayerTableRecord
2
PERIMETER
70
0
62
5
6
CONTINUOUS
0
ENDTAB
0
TABLE
2
STYLE
5
3
100
AcDbSymbolTable
70
1
0
STYLE
5
11
100
AcDbSymbolTableRecord
100
AcDbTextStyleTableRecord
2
STANDARD
70
0
0
ENDTAB
0
TABLE
2
VIEW
5
6
100
AcDbSymbolTable
0
ENDTAB
0
TABLE
2
UCS
5
7
100
AcDbSymbolTable
0
ENDTAB
0
TABLE
2
APPID
5
9
100
AcDbSymbolTable
70
1
0
APPID
5
12
100
AcDbSymbolTableRecord
100
AcDbRegAppTableRecord
2
ACAD
70
0
0
ENDTAB
0
TABLE
2
DIMSTYLE
5
A
100
AcDbSymbolTable
0
ENDTAB
0
TABLE
2
BLOCK_RECORD
5
1
100
AcDbSymbolTable
70
2
0
BLOCK_RECORD
5
1F
100
AcDbSymbolTableRecord
100
AcDbBlockTableRecord
2
*MODEL_SPACE
0
BLOCK_RECORD
5
1B
100
AcDbSymbolTableRecord
100
AcDbBlockTableRecord
2
*PAPER_SPACE
0
ENDTAB
0
ENDSEC
0
SECTION
2
BLOCKS
0
BLOCK
5
20
100
AcDbEntity
100
AcDbBlockBegin
2
*MODEL_SPACE
0
ENDBLK
5
21
100
AcDbEntity
100
AcDbBlockEnd
0
BLOCK
5
1C
100
AcDbEntity
100
AcDbBlockBegin
2
*PAPER_SPACE
0
ENDBLK
5
1D
100
AcDbEntity
100
AcDbBlockEnd
0
ENDSEC
0
SECTION
2
ENTITIES
0
CIRCLE
5
100
100
AcDbEntity
8
CUTOUTS
100
AcDbCircle
10
-53.500000000000014
20
-57.500000000000284
30
0
40
1.4250000000000007
0
CIRCLE
5
101
100
AcDbEntity
8
CUTOUTS
100
AcDbCircle
10
103.50000000000001
20
-57.5
30
0
40
1.4250000000000007
0
CIRCLE
5
102
100
AcDbEntity
8
CUTOUTS
100
AcDbCircle
10
-53.500000000000014
20
57.5
30
0
40
1.4250000000000007
0
CIRCLE
5
103
100
AcDbEntity
8
CUTOUTS
100
AcDbCircle
10
103.5
20
57.5
30
0
40
1.4250000000000007
0
LINE
5
104
100
AcDbEntity
8
CUTOUTS
100
AcDbLine
10
-103.42500000000001
20
-40.925000000000267
30
0
11
-103.42500000000001
21
-39.075000000000273
31
0
0
LINE
5
105
100
AcDbEntity
8
CUTOUTS
100
AcDbLine
10
-103.42500000000001
20
-39.075000000000273
30
0
11
-98.575000000000017
21
-39.075000000000273
31
0
0
LINE
5
106
100
AcDbEntity
8
CUTOUTS
100
AcDbLine
10
-98.575000000000017
20
-39.075000000000273
30
0
11
-98.575000000000017
21
-40.925000000000267
31
0
0
LINE
5
107
100
AcDbEntity
8
CUTOUTS
100
AcDbLine
10
-98.575000000000017
20
-40.925000000000267
30
0
11
-103.42500000000001
21
-40.925000000000267
31
0
0
LINE
5
108
100
AcDbEntity
8
CUTOUTS
100
AcDbLine
10
-91.053845241201543
20
-33.925000000000281
30
0
11
-95.903845241201537
21
-33.925000000000281
31
0
0
LINE
5
109
100
AcDbEntity
8
CUTOUTS
100
AcDbLine
10
-95.903845241201537
20
-33.925000000000281
30
0
11
-95.903845241201537
21
-32.075000000000287
31
0
0
LINE
5
10A
100
AcDbEntity
8
CUTOUTS
100
AcDbLine
10
-95.903845241201537
20
-32.075000000000287
30
0
11
-91.053845241201543
21
-32.075000000000287
31
0
0
LINE
5
10B
100
AcDbEntity
8
CUTOUTS
100
AcDbLine
10
-91.053845241201543
20
-32.075000000000287
30
0
11
-91.053845241201543
21
-33.925000000000281
31
0
0
LINE
5
10C
100
AcDbEntity
8
CUTOUTS
100
AcDbLine
10
-98.575000000000017
20
-14.925000000000054
30
0
11
-103.42500000000001
21
-14.925000000000054
31
0
0
LINE
5
10D
100
AcDbEntity
8
CUTOUTS
100
AcDbLine
10
-103.42500000000001
20
-14.925000000000054
30
0
11
-103.42500000000001
21
-13.075000000000063
31
0
0
LINE
5
10E
100
AcDbEntity
8
CUTOUTS
100
AcDbLine
10
-103.42500000000001
20
-13.075000000000063
30
0
11
-98.575000000000017
21
-13.075000000000063
31
0
0
LINE
5
10F
100
AcDbEntity
8
CUTOUTS
100
AcDbLine
10
-98.575000000000017
20
-13.075000000000063
30
0
11
-98.575000000000017
21
-14.925000000000054
31
0
0
LINE
5
110
100
AcDbEntity
8
CUTOUTS
100
AcDbLine
10
-91.053845241201543
20
-40.925000000000267
30
0
11
-95.903845241201537
21
-40.925000000000267
31
0
0
LINE
5
111
100
AcDbEntity
8
CUTOUTS
100
AcDbLine
10
-95.903845241201537
20
-40.925000000000267
30
0
11
-95.903845241201537
21
-39.075000000000273
31
0
0
LINE
5
112
100
AcDbEntity
8
CUTOUTS
100
AcDbLine
10
-95.903845241201537
20
-39.075000000000273
30
0
11
-91.053845241201543
21
-39.075000000000273
31
0
0
LINE
5
113
100
AcDbEntity
8
CUTOUTS
100
AcDbLine
10
-91.053845241201543
20
-39.075000000000273
30
0
11
-91.053845241201543
21
-40.925000000000267
31
0
0
LINE
5
114
100
AcDbEntity
8
CUTOUTS
100
AcDbLine
10
-103.42500000000001
20
-32.075000000000287
30
0
11
-98.575000000000017
21
-32.075000000000287
31
0
0
LINE
5
115
100
AcDbEntity
8
CUTOUTS
100
AcDbLine
10
-98.575000000000017
20
-32.075000000000287
30
0
11
-98.575000000000017
21
-33.925000000000281
31
0
0
LINE
5
116
100
AcDbEntity
8
CUTOUTS
100
AcDbLine
10
-98.575000000000017
20
-33.925000000000281
30
0
11
-103.42500000000001
21
-33.925000000000281
31
0
0
LINE
5
117
100
AcDbEntity
8
CUTOUTS
100
AcDbLine
10
-103.42500000000001
20
-33.925000000000281
30
0
11
-103.42500000000001
21
-32.075000000000287
31
0
0
LINE
5
118
100
AcDbEntity
8
CUTOUTS
100
AcDbLine
10
-98.575000000000017
20
-18.075000000000028
30
0
11
-98.575000000000017
21
-19.925000000000029
31
0
0
LINE
5
119
100
AcDbEntity
8
CUTOUTS
100
AcDbLine
10
-98.575000000000017
20
-19.925000000000029
30
0
11
-103.42500000000001
21
-19.925000000000029
31
0
0
LINE
5
11A
100
AcDbEntity
8
CUTOUTS
100
AcDbLine
10
-103.42500000000001
20
-19.925000000000029
30
0
11
-103.42500000000001
21
-18.075000000000028
31
0
0
LINE
5
11B
100
AcDbEntity
8
CUTOUTS
100
AcDbLine
10
-103.42500000000001
20
-18.075000000000028
30
0
11
-98.575000000000017
21
-18.075000000000028
31
0
0
LINE
5
11C
100
AcDbEntity
8
CUTOUTS
100
AcDbLine
10
-95.903845241201537
20
-18.075000000000028
30
0
11
-91.053845241201543
21
-18.075000000000028
31
0
0
LINE
5
11D
100
AcDbEntity
8
CUTOUTS
100
AcDbLine
10
-91.053845241201543
20
-18.075000000000028
30
0
11
-91.053845241201543
21
-19.925000000000029
31
0
0
LINE
5
11E
100
AcDbEntity
8
CUTOUTS
100
AcDbLine
10
-91.053845241201543
20
-19.925000000000029
30
0
11
-95.903845241201537
21
-19.925000000000029
31
0
0
LINE
5
11F
100
AcDbEntity
8
CUTOUTS
100
AcDbLine
10
-95.903845241201537
20
-19.925000000000029
30
0
11
-95.903845241201537
21
-18.075000000000028
31
0
0
LINE
5
120
100
AcDbEntity
8
CUTOUTS
100
AcDbLine
10
-91.053845241201543
20
-14.925000000000059
30
0
11
-95.903845241201537
21
-14.925000000000059
31
0
0
LINE
5
121
100
AcDbEntity
8
CUTOUTS
100
AcDbLine
10
-95.903845241201537
20
-14.925000000000059
30
0
11
-95.903845241201537
21
-13.07500000000006
31
0
0
LINE
5
122
100
AcDbEntity
8
CUTOUTS
100
AcDbLine
10
-95.903845241201537
20
-13.07500000000006
30
0
11
-91.053845241201543
21
-13.07500000000006
31
0
0
LINE
5
123
100
AcDbEntity
8
CUTOUTS
100
AcDbLine
10
-91.053845241201543
20
-13.07500000000006
30
0
11
-91.053845241201543
21
-14.925000000000059
31
0
0
LINE
5
124
100
AcDbEntity
8
PERIMETER
100
AcDbLine
10
-113.57500000000002
20
-92.575000000000003
30
0
11
113.57500000000002
21
-92.575000000000003
31
0
0
LINE
5
125
100
AcDbEntity
8
PERIMETER
100
AcDbLine
10
113.57500000000002
20
-92.575000000000003
30
0
11
113.57499999999999
21
92.575000000000003
31
0
0
LINE
5
126
100
AcDbEntity
8
PERIMETER
100
AcDbLine
10
113.57499999999999
20
92.575000000000003
30
0
11
-113.57500000000002
21
92.575000000000003
31
0
0
LINE
5
127
100
AcDbEntity
8
PERIMETER
100
AcDbLine
10
-113.57500000000002
20
92.575000000000003
30
0
11
-113.57500000000002
21
-92.575000000000003
31
0
0
ENDSEC
0
SECTION
2
OBJECTS
0
DICTIONARY
5
C
100
AcDbDictionary
3
ACAD_GROUP
350
D
3
ACAD_MLINESTYLE
350
17
0
DICTIONARY
5
D
100
AcDbDictionary
0
DICTIONARY
5
1A
330
C
100
AcDbDictionary
0
DICTIONARY
5
17
100
AcDbDictionary
0
ENDSEC
0
EOF
