0
SECTION
2
HEADER
9
$INSUNITS
70
4
9
$ACADVER
1
AC1014
9
$HANDSEED
5
FFFF
0
ENDSEC
0
SECTION
2
TABLES
0
TABLE
2
VPORT
5
8
100
AcDbSymbolTable
0
ENDTAB
0
TABLE
2
LTYPE
5
5
100
AcDbSymbolTable
70
2
0
LTYPE
5
14
100
AcDbSymbolTableRecord
100
AcDbLinetypeTableRecord
2
BYBLOCK
70
0
0
LTYPE
5
15
100
AcDbSymbolTableRecord
100
AcDbLinetypeTableRecord
2
BYLAYER
70
0
0
ENDTAB
0
TABLE
2
LAYER
5
2
100
AcDbSymbolTable
70
3
0
LAYER
5
50
100
AcDbSymbolTableRecord
100
AcDbLayerTableRecord
2
0
70
0
6
CONTINUOUS
0
LAYER
5
51
100
AcDbSymbolTableRecord
100
AcDbLayerTableRecord
2
CUTOUTS
70
0
62
1
6
CONTINUOUS
0
LAYER
5
52
100
AcDbSymbolTableRecord
100
AcDbLayerTableRecord
2
PERIMETER
70
0
62
5
6
CONTINUOUS
0
ENDTAB
0
TABLE
2
STYLE
5
3
100
AcDbSymbolTable
70
1
0
STYLE
5
11
100
AcDbSymbolTableRecord
100
AcDbTextStyleTableRecord
2
STANDARD
70
0
0
ENDTAB
0
TABLE
2
VIEW
5
6
100
AcDbSymbolTable
0
ENDTAB
0
TABLE
2
UCS
5
7
100
AcDbSymbolTable
0
ENDTAB
0
TABLE
2
APPID
5
9
100
AcDbSymbolTable
70
1
0
APPID
5
12
100
AcDbSymbolTableRecord
100
AcDbRegAppTableRecord
2
ACAD
70
0
0
ENDTAB
0
TABLE
2
DIMSTYLE
5
A
100
AcDbSymbolTable
0
ENDTAB
0
TABLE
2
BLOCK_RECORD
5
1
100
AcDbSymbolTable
70
2
0
BLOCK_RECORD
5
1F
100
AcDbSymbolTableRecord
100
AcDbBlockTableRecord
2
*MODEL_SPACE
0
BLOCK_RECORD
5
1B
100
AcDbSymbolTableRecord
100
AcDbBlockTableRecord
2
*PAPER_SPACE
0
ENDTAB
0
ENDSEC
0
SECTION
2
BLOCKS
0
BLOCK
5
20
100
AcDbEntity
100
AcDbBlockBegin
2
*MODEL_SPACE
0
ENDBLK
5
21
100
AcDbEntity
100
AcDbBlockEnd
0
BLOCK
5
1C
100
AcDbEntity
100
AcDbBlockBegin
2
*PAPER_SPACE
0
ENDBLK
5
1D
100
AcDbEntity
100
AcDbBlockEnd
0
ENDSEC
0
SECTION
2
ENTITIES
0
CIRCLE
5
100
100
AcDbEntity
8
CUTOUTS
100
AcDbCircle
10
66.999999999999957
20
57.500000000000149
30
0
40
1.4499999999999957
0
CIRCLE
5
101
100
AcDbEntity
8
CUTOUTS
100
AcDbCircle
10
-105.5
20
-57.500000000000135
30
0
40
1.449999999999978
0
CIRCLE
5
102
100
AcDbEntity
8
CUTOUTS
100
AcDbCircle
10
-13.000000000000043
20
57.500000000000149
30
0
40
1.4500000000000046
0
CIRCLE
5
103
100
AcDbEntity
8
CUTOUTS
100
AcDbCircle
10
-13.000000000000007
20
-57.500000000000064
30
0
40
1.4500000000000046
0
CIRCLE
5
104
100
AcDbEntity
8
CUTOUTS
100
AcDbCircle
10
67
20
-57.499999999999922
30
0
40
1.4499999999999957
0
CIRCLE
5
105
100
AcDbEntity
8
CUTOUTS
100
AcDbCircle
10
-105.5
20
57.500000000000149
30
0
40
1.449999999999978
0
CIRCLE
5
106
100
AcDbEntity
8
CUTOUTS
100
AcDbCircle
10
26.999999999999993
20
-57.499999999999993
30
0
40
1.4500000000000046
0
CIRCLE
5
107
100
AcDbEntity
8
CUTOUTS
100
AcDbCircle
10
26.999999999999957
20
57.500000000000149
30
0
40
1.4500000000000046
0
CIRCLE
5
108
100
AcDbEntity
8
CUTOUTS
100
AcDbCircle
10
105.49999999999997
20
57.500000000000149
30
0
40
1.4499999999999957
0
CIRCLE
5
109
100
AcDbEntity
8
CUTOUTS
100
AcDbCircle
10
-51.500000000000021
20
57.500000000000149
30
0
40
1.4500000000000046
0
CIRCLE
5
10A
100
AcDbEntity
8
CUTOUTS
100
AcDbCircle
10
105.5
20
-57.499999999999851
30
0
40
1.4499999999999957
0
CIRCLE
5
10B
100
AcDbEntity
8
CUTOUTS
100
AcDbCircle
10
-51.500000000000021
20
-57.500000000000135
30
0
40
1.4500000000000046
0
LINE
5
10C
100
AcDbEntity
8
CUTOUTS
100
AcDbLine
10
-93.928845241201557
20
-14.949999999999903
30
0
11
-93.928845241201557
21
-13.049999999999899
31
0
0
LINE
5
10D
100
AcDbEntity
8
CUTOUTS
100
AcDbLine
10
-93.928845241201557
20
-13.049999999999899
30
0
11
-89.028845241201537
21
-13.049999999999899
31
0
0
LINE
5
10E
100
AcDbEntity
8
CUTOUTS
100
AcDbLine
10
-89.028845241201537
20
-13.049999999999899
30
0
11
-89.028845241201537
21
-14.949999999999903
31
0
0
LINE
5
10F
100
AcDbEntity
8
CUTOUTS
100
AcDbLine
10
-89.028845241201537
20
-14.949999999999903
30
0
11
-93.928845241201557
21
-14.949999999999903
31
0
0
LINE
5
110
100
AcDbEntity
8
CUTOUTS
100
AcDbLine
10
-89.028845241201537
20
-18.049999999999873
30
0
11
-89.028845241201537
21
-19.949999999999868
31
0
0
LINE
5
111
100
AcDbEntity
8
CUTOUTS
100
AcDbLine
10
-89.028845241201537
20
-19.949999999999868
30
0
11
-93.928845241201557
21
-19.949999999999868
31
0
0
LINE
5
112
100
AcDbEntity
8
CUTOUTS
100
AcDbLine
10
-93.928845241201557
20
-19.949999999999868
30
0
11
-93.928845241201557
21
-18.049999999999873
31
0
0
LINE
5
113
100
AcDbEntity
8
CUTOUTS
100
AcDbLine
10
-93.928845241201557
20
-18.049999999999873
30
0
11
-89.028845241201537
21
-18.049999999999873
31
0
0
LINE
5
114
100
AcDbEntity
8
CUTOUTS
100
AcDbLine
10
-101.45000000000002
20
-13.049999999999908
30
0
11
-96.550000000000026
21
-13.049999999999908
31
0
0
LINE
5
115
100
AcDbEntity
8
CUTOUTS
100
AcDbLine
10
-96.550000000000026
20
-13.049999999999908
30
0
11
-96.550000000000026
21
-14.949999999999894
31
0
0
LINE
5
116
100
AcDbEntity
8
CUTOUTS
100
AcDbLine
10
-96.550000000000026
20
-14.949999999999894
30
0
11
-101.45000000000002
21
-14.949999999999894
31
0
0
LINE
5
117
100
AcDbEntity
8
CUTOUTS
100
AcDbLine
10
-101.45000000000002
20
-14.949999999999894
30
0
11
-101.45000000000002
21
-13.049999999999908
31
0
0
LINE
5
118
100
AcDbEntity
8
CUTOUTS
100
AcDbLine
10
-96.550000000000011
20
-19.949999999999868
30
0
11
-101.45000000000003
21
-19.949999999999868
31
0
0
LINE
5
119
100
AcDbEntity
8
CUTOUTS
100
AcDbLine
10
-101.45000000000003
20
-19.949999999999868
30
0
11
-101.45000000000003
21
-18.049999999999873
31
0
0
LINE
5
11A
100
AcDbEntity
8
CUTOUTS
100
AcDbLine
10
-101.45000000000003
20
-18.049999999999873
30
0
11
-96.550000000000011
21
-18.049999999999873
31
0
0
LINE
5
11B
100
AcDbEntity
8
CUTOUTS
100
AcDbLine
10
-96.550000000000011
20
-18.049999999999873
30
0
11
-96.550000000000011
21
-19.949999999999868
31
0
0
LINE
5
11C
100
AcDbEntity
8
CUTOUTS
100
AcDbLine
10
-93.928845241201557
20
-33.950000000000138
30
0
11
-93.928845241201557
21
-32.050000000000139
31
0
0
LINE
5
11D
100
AcDbEntity
8
CUTOUTS
100
AcDbLine
10
-93.928845241201557
20
-32.050000000000139
30
0
11
-89.028845241201537
21
-32.050000000000139
31
0
0
LINE
5
11E
100
AcDbEntity
8
CUTOUTS
100
AcDbLine
10
-89.028845241201537
20
-32.050000000000139
30
0
11
-89.028845241201537
21
-33.950000000000138
31
0
0
LINE
5
11F
100
AcDbEntity
8
CUTOUTS
100
AcDbLine
10
-89.028845241201537
20
-33.950000000000138
30
0
11
-93.928845241201557
21
-33.950000000000138
31
0
0
LINE
5
120
100
AcDbEntity
8
CUTOUTS
100
AcDbLine
10
-93.928845241201543
20
-39.050000000000125
30
0
11
-89.028845241201552
21
-39.050000000000125
31
0
0
LINE
5
121
100
AcDbEntity
8
CUTOUTS
100
AcDbLine
10
-89.028845241201552
20
-39.050000000000125
30
0
11
-89.028845241201552
21
-40.950000000000102
31
0
0
LINE
5
122
100
AcDbEntity
8
CUTOUTS
100
AcDbLine
10
-89.028845241201552
20
-40.950000000000102
30
0
11
-93.928845241201543
21
-40.950000000000102
31
0
0
LINE
5
123
100
AcDbEntity
8
CUTOUTS
100
AcDbLine
10
-93.928845241201543
20
-40.950000000000102
30
0
11
-93.928845241201543
21
-39.050000000000125
31
0
0
LINE
5
124
100
AcDbEntity
8
CUTOUTS
100
AcDbLine
10
-96.550000000000026
20
-33.950000000000131
30
0
11
-101.45000000000002
21
-33.950000000000131
31
0
0
LINE
5
125
100
AcDbEntity
8
CUTOUTS
100
AcDbLine
10
-101.45000000000002
20
-33.950000000000131
30
0
11
-101.45000000000002
21
-32.050000000000153
31
0
0
LINE
5
126
100
AcDbEntity
8
CUTOUTS
100
AcDbLine
10
-101.45000000000002
20
-32.050000000000153
30
0
11
-96.550000000000026
21
-32.050000000000153
31
0
0
LINE
5
127
100
AcDbEntity
8
CUTOUTS
100
AcDbLine
10
-96.550000000000026
20
-32.050000000000153
30
0
11
-96.550000000000026
21
-33.950000000000131
31
0
0
LINE
5
128
100
AcDbEntity
8
CUTOUTS
100
AcDbLine
10
-96.550000000000011
20
-39.050000000000118
30
0
11
-96.550000000000011
21
-40.950000000000117
31
0
0
LINE
5
129
100
AcDbEntity
8
CUTOUTS
100
AcDbLine
10
-96.550000000000011
20
-40.950000000000117
30
0
11
-101.45000000000003
21
-40.950000000000117
31
0
0
LINE
5
12A
100
AcDbEntity
8
CUTOUTS
100
AcDbLine
10
-101.45000000000003
20
-40.950000000000117
30
0
11
-101.45000000000003
21
-39.050000000000118
31
0
0
LINE
5
12B
100
AcDbEntity
8
CUTOUTS
100
AcDbLine
10
-101.45000000000003
20
-39.050000000000118
30
0
11
-96.550000000000011
21
-39.050000000000118
31
0
0
LINE
5
12C
100
AcDbEntity
8
PERIMETER
100
AcDbLine
10
111.54999999999998
20
63.550000000000139
30
0
11
-111.55000000000001
21
63.550000000000125
31
0
0
LINE
5
12D
100
AcDbEntity
8
PERIMETER
100
AcDbLine
10
-111.55000000000001
20
63.550000000000125
30
0
11
-111.55000000000001
21
-63.550000000000125
31
0
0
LINE
5
12E
100
AcDbEntity
8
PERIMETER
100
AcDbLine
10
-111.55000000000001
20
-63.550000000000125
30
0
11
111.55000000000001
21
-63.549999999999834
31
0
0
LINE
5
12F
100
AcDbEntity
8
PERIMETER
100
AcDbLine
10
111.55000000000001
20
-63.549999999999834
30
0
11
111.54999999999998
21
63.550000000000139
31
0
0
ENDSEC
0
SECTION
2
OBJECTS
0
DICTIONARY
5
C
100
AcDbDictionary
3
ACAD_GROUP
350
D
3
ACAD_MLINESTYLE
350
17
0
DICTIONARY
5
D
100
AcDbDictionary
0
DICTIONARY
5
1A
330
C
100
AcDbDictionary
0
DICTIONARY
5
17
100
AcDbDictionary
0
ENDSEC
0
EOF
