0
SECTION
2
HEADER
9
$INSUNITS
70
4
9
$ACADVER
1
AC1014
9
$HANDSEED
5
FFFF
0
ENDSEC
0
SECTION
2
TABLES
0
TABLE
2
VPORT
5
8
100
AcDbSymbolTable
0
ENDTAB
0
TABLE
2
LTYPE
5
5
100
AcDbSymbolTable
70
2
0
LTYPE
5
14
100
AcDbSymbolTableRecord
100
AcDbLinetypeTableRecord
2
BYBLOCK
70
0
0
LTYPE
5
15
100
AcDbSymbolTableRecord
100
AcDbLinetypeTableRecord
2
BYLAYER
70
0
0
ENDTAB
0
TABLE
2
LAYER
5
2
100
AcDbSymbolTable
70
3
0
LAYER
5
50
100
AcDbSymbolTableRecord
100
AcDbLayerTableRecord
2
0
70
0
6
CONTINUOUS
0
LAYER
5
51
100
AcDbSymbolTableRecord
100
AcDbLayerTableRecord
2
CUTOUTS
70
0
62
1
6
CONTINUOUS
0
LAYER
5
52
100
AcDbSymbolTableRecord
100
AcDbLayerTableRecord
2
PERIMETER
70
0
62
5
6
CONTINUOUS
0
ENDTAB
0
TABLE
2
STYLE
5
3
100
AcDbSymbolTable
70
1
0
STYLE
5
11
100
AcDbSymbolTableRecord
100
AcDbTextStyleTableRecord
2
STANDARD
70
0
0
ENDTAB
0
TABLE
2
VIEW
5
6
100
AcDbSymbolTable
0
ENDTAB
0
TABLE
2
UCS
5
7
100
AcDbSymbolTable
0
ENDTAB
0
TABLE
2
APPID
5
9
100
AcDbSymbolTable
70
1
0
APPID
5
12
100
AcDbSymbolTableRecord
100
AcDbRegAppTableRecord
2
ACAD
70
0
0
ENDTAB
0
TABLE
2
DIMSTYLE
5
A
100
AcDbSymbolTable
0
ENDTAB
0
TABLE
2
BLOCK_RECORD
5
1
100
AcDbSymbolTable
70
2
0
BLOCK_RECORD
5
1F
100
AcDbSymbolTableRecord
100
AcDbBlockTableRecord
2
*MODEL_SPACE
0
BLOCK_RECORD
5
1B
100
AcDbSymbolTableRecord
100
AcDbBlockTableRecord
2
*PAPER_SPACE
0
ENDTAB
0
ENDSEC
0
SECTION
2
BLOCKS
0
BLOCK
5
20
100
AcDbEntity
100
AcDbBlockBegin
2
*MODEL_SPACE
0
ENDBLK
5
21
100
AcDbEntity
100
AcDbBlockEnd
0
BLOCK
5
1C
100
AcDbEntity
100
AcDbBlockBegin
2
*PAPER_SPACE
0
ENDBLK
5
1D
100
AcDbEntity
100
AcDbBlockEnd
0
ENDSEC
0
SECTION
2
ENTITIES
0
CIRCLE
5
100
100
AcDbEntity
8
CUTOUTS
100
AcDbCircle
10
-91.755000000000024
20
-39.485000000000014
30
0
40
1.4250000000000007
0
CIRCLE
5
101
100
AcDbEntity
8
CUTOUTS
100
AcDbCircle
10
-20.585000000000022
20
39.485000000000007
30
0
40
1.4249999999999852
0
CIRCLE
5
102
100
AcDbEntity
8
CUTOUTS
100
AcDbCircle
10
-162.92500000000004
20
31.685000000000002
30
0
40
1.4249999999999829
0
CIRCLE
5
103
100
AcDbEntity
8
CUTOUTS
100
AcDbCircle
10
-162.92500000000004
20
39.485000000000007
30
0
40
1.4249999999999829
0
CIRCLE
5
104
100
AcDbEntity
8
CUTOUTS
100
AcDbCircle
10
-162.92500000000004
20
-31.684999999999999
30
0
40
1.4249999999999829
0
CIRCLE
5
105
100
AcDbEntity
8
CUTOUTS
100
AcDbCircle
10
-162.92500000000004
20
-39.485000000000014
30
0
40
1.4249999999999829
0
CIRCLE
5
106
100
AcDbEntity
8
CUTOUTS
100
AcDbCircle
10
-91.755000000000024
20
39.485000000000007
30
0
40
1.4250000000000007
0
CIRCLE
5
107
100
AcDbEntity
8
CUTOUTS
100
AcDbCircle
10
-91.755000000000024
20
31.685000000000002
30
0
40
1.4250000000000007
0
CIRCLE
5
108
100
AcDbEntity
8
CUTOUTS
100
AcDbCircle
10
-91.755000000000024
20
-31.684999999999999
30
0
40
1.4250000000000007
0
CIRCLE
5
109
100
AcDbEntity
8
CUTOUTS
100
AcDbCircle
10
192.92500000000004
20
-39.485000000000014
30
0
40
1.4249999999999829
0
CIRCLE
5
10A
100
AcDbEntity
8
CUTOUTS
100
AcDbCircle
10
192.92500000000004
20
-31.684999999999999
30
0
40
1.4249999999999829
0
CIRCLE
5
10B
100
AcDbEntity
8
CUTOUTS
100
AcDbCircle
10
192.92500000000004
20
31.685000000000002
30
0
40
1.4249999999999829
0
CIRCLE
5
10C
100
AcDbEntity
8
CUTOUTS
100
AcDbCircle
10
192.92500000000004
20
39.485000000000007
30
0
40
1.4249999999999829
0
CIRCLE
5
10D
100
AcDbEntity
8
CUTOUTS
100
AcDbCircle
10
121.755
20
-39.485000000000014
30
0
40
1.4249999999999829
0
CIRCLE
5
10E
100
AcDbEntity
8
CUTOUTS
100
AcDbCircle
10
121.755
20
-31.684999999999999
30
0
40
1.4249999999999829
0
CIRCLE
5
10F
100
AcDbEntity
8
CUTOUTS
100
AcDbCircle
10
121.755
20
31.685000000000002
30
0
40
1.4249999999999829
0
CIRCLE
5
110
100
AcDbEntity
8
CUTOUTS
100
AcDbCircle
10
121.755
20
39.485000000000007
30
0
40
1.4249999999999829
0
CIRCLE
5
111
100
AcDbEntity
8
CUTOUTS
100
AcDbCircle
10
50.585000000000022
20
-39.485000000000014
30
0
40
1.4249999999999829
0
CIRCLE
5
112
100
AcDbEntity
8
CUTOUTS
100
AcDbCircle
10
50.585000000000022
20
-31.684999999999999
30
0
40
1.4249999999999829
0
CIRCLE
5
113
100
AcDbEntity
8
CUTOUTS
100
AcDbCircle
10
50.585000000000022
20
31.685000000000002
30
0
40
1.4249999999999829
0
CIRCLE
5
114
100
AcDbEntity
8
CUTOUTS
100
AcDbCircle
10
50.585000000000022
20
39.485000000000007
30
0
40
1.4249999999999829
0
CIRCLE
5
115
100
AcDbEntity
8
CUTOUTS
100
AcDbCircle
10
-20.585000000000022
20
-39.485000000000014
30
0
40
1.4249999999999852
0
CIRCLE
5
116
100
AcDbEntity
8
CUTOUTS
100
AcDbCircle
10
-20.585000000000022
20
-31.684999999999999
30
0
40
1.4249999999999852
0
CIRCLE
5
117
100
AcDbEntity
8
CUTOUTS
100
AcDbCircle
10
-20.585000000000022
20
31.685000000000002
30
0
40
1.4249999999999852
0
LINE
5
118
100
AcDbEntity
8
CUTOUTS
100
AcDbLine
10
-236.58500000000006
20
5.510000000000006
30
0
11
-236.58500000000006
21
0.66000000000000281
31
0
0
LINE
5
119
100
AcDbEntity
8
CUTOUTS
100
AcDbLine
10
-236.58500000000006
20
0.66000000000000281
30
0
11
-246.43500000000006
21
0.66000000000000281
31
0
0
LINE
5
11A
100
AcDbEntity
8
CUTOUTS
100
AcDbLine
10
-246.43500000000006
20
0.66000000000000281
30
0
11
-246.43500000000006
21
5.510000000000006
31
0
0
LINE
5
11B
100
AcDbEntity
8
CUTOUTS
100
AcDbLine
10
-246.43500000000006
20
5.510000000000006
30
0
11
-236.58500000000006
21
5.510000000000006
31
0
0
LINE
5
11C
100
AcDbEntity
8
CUTOUTS
100
AcDbLine
10
-236.58500000000006
20
-4.4899999999999984
30
0
11
-236.58500000000006
21
-9.3399999999999928
31
0
0
LINE
5
11D
100
AcDbEntity
8
CUTOUTS
100
AcDbLine
10
-236.58500000000006
20
-9.3399999999999928
30
0
11
-246.43500000000006
21
-9.3399999999999928
31
0
0
LINE
5
11E
100
AcDbEntity
8
CUTOUTS
100
AcDbLine
10
-246.43500000000006
20
-9.3399999999999928
30
0
11
-246.43500000000006
21
-4.4899999999999984
31
0
0
LINE
5
11F
100
AcDbEntity
8
CUTOUTS
100
AcDbLine
10
-246.43500000000006
20
-4.4899999999999984
30
0
11
-236.58500000000006
21
-4.4899999999999984
31
0
0
LINE
5
120
100
AcDbEntity
8
CUTOUTS
100
AcDbLine
10
-246.43500000000006
20
20.510000000000002
30
0
11
-236.58500000000006
21
20.510000000000002
31
0
0
LINE
5
121
100
AcDbEntity
8
CUTOUTS
100
AcDbLine
10
-236.58500000000006
20
20.510000000000002
30
0
11
-236.58500000000006
21
15.660000000000004
31
0
0
LINE
5
122
100
AcDbEntity
8
CUTOUTS
100
AcDbLine
10
-236.58500000000006
20
15.660000000000005
30
0
11
-246.43500000000006
21
15.660000000000005
31
0
0
LINE
5
123
100
AcDbEntity
8
CUTOUTS
100
AcDbLine
10
-246.43500000000006
20
15.660000000000005
30
0
11
-246.43500000000006
21
20.510000000000002
31
0
0
LINE
5
124
100
AcDbEntity
8
CUTOUTS
100
AcDbLine
10
-246.43500000000006
20
30.510000000000005
30
0
11
-236.58500000000006
21
30.510000000000005
31
0
0
LINE
5
125
100
AcDbEntity
8
CUTOUTS
100
AcDbLine
10
-236.58500000000006
20
30.510000000000005
30
0
11
-236.58500000000006
21
25.660000000000007
31
0
0
LINE
5
126
100
AcDbEntity
8
CUTOUTS
100
AcDbLine
10
-236.58500000000006
20
25.660000000000004
30
0
11
-246.43500000000006
21
25.660000000000004
31
0
0
LINE
5
127
100
AcDbEntity
8
CUTOUTS
100
AcDbLine
10
-246.43500000000006
20
25.660000000000004
30
0
11
-246.43500000000006
21
30.510000000000002
31
0
0
LINE
5
128
100
AcDbEntity
8
CUTOUTS
100
AcDbLine
10
96.094999999999942
20
35.510000000000005
30
0
11
96.094999999999942
21
-35.510000000000005
31
0
0
LINE
5
129
100
AcDbEntity
8
CUTOUTS
100
AcDbLine
10
96.094999999999942
20
-35.510000000000005
30
0
11
76.244999999999976
21
-35.510000000000005
31
0
0
LINE
5
12A
100
AcDbEntity
8
CUTOUTS
100
AcDbLine
10
76.244999999999976
20
-35.510000000000005
30
0
11
76.244999999999976
21
35.510000000000005
31
0
0
LINE
5
12B
100
AcDbEntity
8
CUTOUTS
100
AcDbLine
10
76.244999999999976
20
35.510000000000005
30
0
11
96.094999999999942
21
35.510000000000005
31
0
0
LINE
5
12C
100
AcDbEntity
8
CUTOUTS
100
AcDbLine
10
-198.43500000000006
20
35.510000000000005
30
0
11
-188.58500000000006
21
35.510000000000005
31
0
0
LINE
5
12D
100
AcDbEntity
8
CUTOUTS
100
AcDbLine
10
-188.58500000000006
20
35.510000000000005
30
0
11
-188.58500000000006
21
-35.509999999999998
31
0
0
LINE
5
12E
100
AcDbEntity
8
CUTOUTS
100
AcDbLine
10
-188.58500000000006
20
-35.510000000000005
30
0
11
-198.43500000000006
21
-35.510000000000005
31
0
0
LINE
5
12F
100
AcDbEntity
8
CUTOUTS
100
AcDbLine
10
-198.43500000000006
20
-35.510000000000005
30
0
11
-198.43500000000006
21
35.510000000000005
31
0
0
LINE
5
130
100
AcDbEntity
8
CUTOUTS
100
AcDbLine
10
167.26500000000001
20
35.510000000000005
30
0
11
167.26500000000001
21
-35.510000000000005
31
0
0
LINE
5
131
100
AcDbEntity
8
CUTOUTS
100
AcDbLine
10
167.26500000000001
20
-35.510000000000005
30
0
11
147.41500000000002
21
-35.510000000000005
31
0
0
LINE
5
132
100
AcDbEntity
8
CUTOUTS
100
AcDbLine
10
147.41500000000002
20
-35.510000000000005
30
0
11
147.41500000000002
21
35.510000000000005
31
0
0
LINE
5
133
100
AcDbEntity
8
CUTOUTS
100
AcDbLine
10
147.41500000000002
20
35.510000000000005
30
0
11
167.26500000000001
21
35.510000000000005
31
0
0
LINE
5
134
100
AcDbEntity
8
CUTOUTS
100
AcDbLine
10
-117.41500000000005
20
-35.510000000000005
30
0
11
-137.26500000000004
21
-35.510000000000005
31
0
0
LINE
5
135
100
AcDbEntity
8
CUTOUTS
100
AcDbLine
10
-137.26500000000004
20
-35.510000000000005
30
0
11
-137.26500000000004
21
35.510000000000005
31
0
0
LINE
5
136
100
AcDbEntity
8
CUTOUTS
100
AcDbLine
10
-137.26500000000004
20
35.510000000000005
30
0
11
-117.41500000000005
21
35.510000000000005
31
0
0
LINE
5
137
100
AcDbEntity
8
CUTOUTS
100
AcDbLine
10
-117.41500000000005
20
35.510000000000005
30
0
11
-117.41500000000005
21
-35.510000000000005
31
0
0
LINE
5
138
100
AcDbEntity
8
CUTOUTS
100
AcDbLine
10
24.924999999999962
20
-35.510000000000005
30
0
11
5.0749999999999673
21
-35.510000000000005
31
0
0
LINE
5
139
100
AcDbEntity
8
CUTOUTS
100
AcDbLine
10
5.0749999999999673
20
-35.510000000000005
30
0
11
5.0749999999999673
21
35.510000000000005
31
0
0
LINE
5
13A
100
AcDbEntity
8
CUTOUTS
100
AcDbLine
10
5.0749999999999673
20
35.510000000000005
30
0
11
24.924999999999962
21
35.510000000000005
31
0
0
LINE
5
13B
100
AcDbEntity
8
CUTOUTS
100
AcDbLine
10
24.924999999999962
20
35.510000000000005
30
0
11
24.924999999999962
21
-35.510000000000005
31
0
0
LINE
5
13C
100
AcDbEntity
8
CUTOUTS
100
AcDbLine
10
-46.245000000000047
20
-35.510000000000005
30
0
11
-66.095000000000041
21
-35.510000000000005
31
0
0
LINE
5
13D
100
AcDbEntity
8
CUTOUTS
100
AcDbLine
10
-66.095000000000041
20
-35.510000000000005
30
0
11
-66.095000000000041
21
35.510000000000005
31
0
0
LINE
5
13E
100
AcDbEntity
8
CUTOUTS
100
AcDbLine
10
-66.095000000000041
20
35.510000000000005
30
0
11
-46.245000000000047
21
35.510000000000005
31
0
0
LINE
5
13F
100
AcDbEntity
8
CUTOUTS
100
AcDbLine
10
-46.245000000000047
20
35.510000000000005
30
0
11
-46.245000000000047
21
-35.510000000000005
31
0
0
LINE
5
140
100
AcDbEntity
8
CUTOUTS
100
AcDbLine
10
228.43500000000006
20
-35.510000000000005
30
0
11
218.58500000000006
21
-35.510000000000005
31
0
0
LINE
5
141
100
AcDbEntity
8
CUTOUTS
100
AcDbLine
10
218.58500000000006
20
-35.510000000000005
30
0
11
218.58500000000006
21
35.510000000000005
31
0
0
LINE
5
142
100
AcDbEntity
8
CUTOUTS
100
AcDbLine
10
218.58500000000006
20
35.510000000000005
30
0
11
228.43500000000006
21
35.510000000000005
31
0
0
LINE
5
143
100
AcDbEntity
8
CUTOUTS
100
AcDbLine
10
228.43500000000006
20
35.510000000000005
30
0
11
228.43500000000006
21
-35.510000000000005
31
0
0
LINE
5
144
100
AcDbEntity
8
PERIMETER
100
AcDbLine
10
-258.58500000000004
20
-55.660000000000011
30
0
11
258.58500000000004
21
-55.660000000000011
31
0
0
LINE
5
145
100
AcDbEntity
8
PERIMETER
100
AcDbLine
10
258.58500000000004
20
-55.660000000000011
30
0
11
258.58500000000004
21
55.660000000000011
31
0
0
LINE
5
146
100
AcDbEntity
8
PERIMETER
100
AcDbLine
10
258.58500000000004
20
55.660000000000011
30
0
11
-258.58500000000004
21
55.660000000000011
31
0
0
LINE
5
147
100
AcDbEntity
8
PERIMETER
100
AcDbLine
10
-258.58500000000004
20
55.660000000000011
30
0
11
-258.58500000000004
21
-55.660000000000011
31
0
0
ENDSEC
0
SECTION
2
OBJECTS
0
DICTIONARY
5
C
100
AcDbDictionary
3
ACAD_GROUP
350
D
3
ACAD_MLINESTYLE
350
17
0
DICTIONARY
5
D
100
AcDbDictionary
0
DICTIONARY
5
1A
330
C
100
AcDbDictionary
0
DICTIONARY
5
17
100
AcDbDictionary
0
ENDSEC
0
EOF
