0
SECTION
2
HEADER
9
$INSUNITS
70
4
9
$ACADVER
1
AC1014
9
$HANDSEED
5
FFFF
0
ENDSEC
0
SECTION
2
TABLES
0
TABLE
2
VPORT
5
8
100
AcDbSymbolTable
0
ENDTAB
0
TABLE
2
LTYPE
5
5
100
AcDbSymbolTable
0
LTYPE
5
14
100
AcDbSymbolTableRecord
100
AcDbLinetypeTableRecord
2
BYBLOCK
70
0
0
LTYPE
5
15
100
AcDbSymbolTableRecord
100
AcDbLinetypeTableRecord
2
BYLAYER
70
0
0
ENDTAB
0
TABLE
2
LAYER
5
2
100
AcDbSymbolTable
70
2
0
LAYER
5
50
100
AcDbSymbolTableRecord
100
AcDbLayerTableRecord
2
0
70
0
6
CONTINUOUS
0
ENDTAB
0
TABLE
2
STYLE
5
3
100
AcDbSymbolTable
70
1
0
STYLE
5
11
100
AcDbSymbolTableRecord
100
AcDbTextStyleTableRecord
2
STANDARD
70
0
0
ENDTAB
0
TABLE
2
VIEW
5
6
100
AcDbSymbolTable
70
0
0
ENDTAB
0
TABLE
2
UCS
5
7
100
AcDbSymbolTable
70
0
0
ENDTAB
0
TABLE
2
APPID
5
9
100
AcDbSymbolTable
70
2
0
APPID
5
12
100
AcDbSymbolTableRecord
100
AcDbRegAppTableRecord
2
ACAD
70
0
0
ENDTAB
0
TABLE
2
DIMSTYLE
5
A
100
AcDbSymbolTable
70
1
0
ENDTAB
0
TABLE
2
BLOCK_RECORD
5
1
100
AcDbSymbolTable
70
1
0
BLOCK_RECORD
5
1F
100
AcDbSymbolTableRecord
100
AcDbBlockTableRecord
2
*MODEL_SPACE
0
BLOCK_RECORD
5
1B
100
AcDbSymbolTableRecord
100
AcDbBlockTableRecord
2
*PAPER_SPACE
0
ENDTAB
0
ENDSEC
0
SECTION
2
BLOCKS
0
BLOCK
5
20
100
AcDbEntity
100
AcDbBlockBegin
2
*MODEL_SPACE
0
ENDBLK
5
21
100
AcDbEntity
100
AcDbBlockEnd
0
BLOCK
5
1C
100
AcDbEntity
100
AcDbBlockBegin
2
*PAPER_SPACE
0
ENDBLK
5
1D
100
AcDbEntity
100
AcDbBlockEnd
0
ENDSEC
0
SECTION
2
ENTITIES
0
CIRCLE
5
100
100
AcDbEntity
8
0
100
AcDbCircle
10
216.17381556108924
20
-90.86929881260987
30
0
40
1.4999999999999947
0
CIRCLE
5
101
100
AcDbEntity
8
0
100
AcDbCircle
10
216.17381556108924
20
-15.569298812609835
30
0
40
1.5000000000000036
0
CIRCLE
5
102
100
AcDbEntity
8
0
100
AcDbCircle
10
340.17381556108938
20
-15.569298812609835
30
0
40
1.5000000000000213
0
LWPOLYLINE
5
103
100
AcDbEntity
8
0
100
AcDbPolyline
90
4
70
1
43
0.0
10
219.87381556108926
20
-69.869298812609898
10
224.87381556108926
20
-69.869298812609898
10
224.87381556108926
20
-67.86929881260987
10
219.87381556108926
20
-67.86929881260987
0
LWPOLYLINE
5
104
100
AcDbEntity
8
0
100
AcDbPolyline
90
4
70
1
43
0.0
10
212.61432111509657
20
-69.869298812609884
10
217.61432111509657
20
-69.869298812609884
10
217.61432111509657
20
-67.869298812609898
10
212.61432111509657
20
-67.869298812609898
0
LWPOLYLINE
5
105
100
AcDbEntity
8
0
100
AcDbPolyline
90
4
70
1
43
0.0
10
212.61432111509657
20
-63.869298812609834
10
217.61432111509657
20
-63.869298812609834
10
217.61432111509657
20
-61.869298812609834
10
212.61432111509657
20
-61.869298812609834
0
LWPOLYLINE
5
106
100
AcDbEntity
8
0
100
AcDbPolyline
90
4
70
1
43
0.0
10
219.87381556108926
20
-63.869298812609834
10
224.87381556108926
20
-63.869298812609834
10
224.87381556108926
20
-61.869298812609834
10
219.87381556108926
20
-61.869298812609834
0
CIRCLE
5
107
100
AcDbEntity
8
0
100
AcDbCircle
10
288.87381556108926
20
-29.069298812609819
30
0
40
1.5000000000000036
0
CIRCLE
5
108
100
AcDbEntity
8
0
100
AcDbCircle
10
290.17381556108933
20
-77.369298812609841
30
0
40
1.5000000000000036
0
CIRCLE
5
109
100
AcDbEntity
8
0
100
AcDbCircle
10
340.97381556108928
20
-33.569298812609823
30
0
40
1.4999999999999858
0
CIRCLE
5
110
100
AcDbEntity
8
0
100
AcDbCircle
10
340.97381556108934
20
-61.569298812609816
30
0
40
1.4999999999999858
0
LWPOLYLINE
5
111
100
AcDbEntity
8
0
100
AcDbPolyline
90
4
70
1
43
0.0
10
239.87381556108926
20
-59.029841085937271
10
239.87381556108926
20
-61.029841085937271
10
244.87381556108929
20
-61.029841085937271
10
244.87381556108929
20
-59.029841085937271
0
LWPOLYLINE
5
112
100
AcDbEntity
8
0
100
AcDbPolyline
90
4
70
1
43
0.0
10
259.87381556108926
20
-60.869298812609827
10
264.87381556108926
20
-60.869298812609827
10
264.87381556108926
20
-58.869298812609827
10
259.87381556108926
20
-58.869298812609827
0
CIRCLE
5
113
100
AcDbEntity
8
0
100
AcDbCircle
10
340.17381556108938
20
-90.869298812609856
30
0
40
1.5000000000000213
0
LWPOLYLINE
5
114
100
AcDbEntity
8
0
100
AcDbPolyline
90
4
70
1
43
0.0
10
244.87381556108929
20
-72.708756539282433
10
244.87381556108929
20
-70.708756539282433
10
239.87381556108929
20
-70.708756539282433
10
239.87381556108929
20
-72.708756539282447
0
LWPOLYLINE
5
115
100
AcDbEntity
8
0
100
AcDbPolyline
90
4
70
1
43
0.0
10
259.87381556108926
20
-72.869298812609856
10
264.87381556108926
20
-72.869298812609856
10
264.87381556108926
20
-70.869298812609841
10
259.87381556108926
20
-70.869298812609841
0
LWPOLYLINE
5
116
100
AcDbEntity
8
0
100
AcDbPolyline
90
4
70
1
43
0.0
10
349.17381556108933
20
-99.869298812609856
10
207.17381556108921
20
-99.869298812609884
10
207.17381556108921
20
-6.5692988126098362
10
349.17381556108933
20
-6.5692988126098406
0
CIRCLE
5
117
100
AcDbEntity
8
0
100
AcDbCircle
10
474.90381556108935
20
-65.719298812609821
30
0
40
0.24999999999998579
0
CIRCLE
5
118
100
AcDbEntity
8
0
100
AcDbCircle
10
477.44381556108942
20
-65.719298812609821
30
0
40
0.24999999999998579
0
CIRCLE
5
119
100
AcDbEntity
8
0
100
AcDbCircle
10
474.90381556108935
20
-40.719298812609821
30
0
40
0.24999999999998579
0
CIRCLE
5
120
100
AcDbEntity
8
0
100
AcDbCircle
10
483.1738155610895
20
-90.869298812609827
30
0
40
1.5000000000000213
0
CIRCLE
5
121
100
AcDbEntity
8
0
100
AcDbCircle
10
483.1738155610895
20
-15.569298812609818
30
0
40
1.4999999999999858
0
CIRCLE
5
122
100
AcDbEntity
8
0
100
AcDbCircle
10
477.44381556108942
20
-40.719298812609821
30
0
40
0.24999999999998579
0
CIRCLE
5
123
100
AcDbEntity
8
0
100
AcDbCircle
10
359.17381556108933
20
-15.569298812609818
30
0
40
1.4999999999999947
0
LWPOLYLINE
5
124
100
AcDbEntity
8
0
100
AcDbPolyline
90
8
70
1
43
0.0
10
385.17381556108938
20
-39.404221520585864
10
385.17381556108933
20
-67.034376104633765
10
409.17381556108944
20
-67.034376104633765
10
409.17381556108944
20
-74.21929881260975
10
473.17381556108944
20
-74.219298812609821
10
473.17381556108944
20
-32.219298812609821
10
409.17381556108944
20
-32.219298812609871
10
409.17381556108944
20
-39.404221520585864
0
CIRCLE
5
125
100
AcDbEntity
8
0
100
AcDbCircle
10
359.17381556108933
20
-90.869298812609827
30
0
40
1.4999999999999947
0
LWPOLYLINE
5
126
100
AcDbEntity
8
0
100
AcDbPolyline
90
4
70
1
43
0.0
10
350.17381556108938
20
-6.5692988126098228
10
350.17381556108938
20
-99.869298812609856
10
492.17381556108955
20
-99.869298812609827
10
492.17381556108944
20
-6.5692988126098184
0
LWPOLYLINE
5
127
100
AcDbEntity
8
0
100
AcDbPolyline
90
4
70
1
43
0.0
10
360.87381556108943
20
-113.8692988126099
10
360.87381556108943
20
-115.86929881260993
10
365.87381556108943
20
-115.86929881260993
10
365.87381556108943
20
-113.86929881260991
0
LWPOLYLINE
5
128
100
AcDbEntity
8
0
100
AcDbPolyline
90
4
70
1
43
0.0
10
353.61432111509669
20
-113.86929881260994
10
353.61432111509669
20
-115.86929881260991
10
358.61432111509669
20
-115.86929881260991
10
358.61432111509669
20
-113.86929881260991
0
LWPOLYLINE
5
129
100
AcDbEntity
8
0
100
AcDbPolyline
90
4
70
1
43
0.0
10
353.61432111509669
20
-107.86929881260986
10
353.61432111509669
20
-109.86929881260986
10
358.61432111509669
20
-109.86929881260986
10
358.61432111509669
20
-107.86929881260987
0
LWPOLYLINE
5
130
100
AcDbEntity
8
0
100
AcDbPolyline
90
4
70
1
43
0.0
10
400.87381556108943
20
-104.86929881260984
10
400.87381556108943
20
-106.86929881260986
10
405.87381556108943
20
-106.86929881260986
10
405.87381556108943
20
-104.86929881260986
0
LWPOLYLINE
5
131
100
AcDbEntity
8
0
100
AcDbPolyline
90
4
70
1
43
0.0
10
385.87381556108943
20
-105.02984108593731
10
380.87381556108943
20
-105.02984108593731
10
380.87381556108943
20
-107.02984108593731
10
385.87381556108943
20
-107.02984108593731
0
LWPOLYLINE
5
132
100
AcDbEntity
8
0
100
AcDbPolyline
90
4
70
1
43
0.0
10
360.87381556108943
20
-107.86929881260986
10
360.87381556108943
20
-109.86929881260986
10
365.87381556108943
20
-109.86929881260986
10
365.87381556108943
20
-107.86929881260987
0
LWPOLYLINE
5
133
100
AcDbEntity
8
0
100
AcDbPolyline
90
4
70
1
43
0.0
10
380.87381556108943
20
-118.70875653928249
10
385.87381556108943
20
-118.70875653928246
10
385.87381556108943
20
-116.70875653928248
10
380.87381556108943
20
-116.70875653928248
0
LWPOLYLINE
5
134
100
AcDbEntity
8
0
100
AcDbPolyline
90
4
70
1
43
0.0
10
400.87381556108943
20
-116.86929881260987
10
400.87381556108943
20
-118.86929881260988
10
405.87381556108943
20
-118.86929881260988
10
405.87381556108943
20
-116.86929881260987
0
LWPOLYLINE
5
135
100
AcDbEntity
8
0
100
AcDbPolyline
90
4
70
1
43
0.0
10
413.87381556108943
20
-122.86929881260988
10
413.87381556108943
20
-100.86929881260986
10
350.17381556108938
20
-100.86929881260986
10
350.17381556108938
20
-122.86929881260988
0
SPLINE
5
136
100
AcDbEntity
8
0
100
AcDbSpline
70
1064
71
3
72
8
73
4
74
0
42
0.000000001
43
0.0000000001
44
0.0000000001
40
0
40
0
40
0
40
0
40
1
40
1
40
1
40
1
10
421.83951057935076
20
-147.77717029907714
30
0
10
420.18167670304058
20
-149.67761611773253
30
0
10
419.3729784550606
20
-152.06326114156636
30
0
10
419.08994147212115
20
-154.57023064620674
30
0
0
SPLINE
5
137
100
AcDbEntity
8
0
100
AcDbSpline
70
1064
71
3
72
8
73
4
74
0
42
0.000000001
43
0.0000000001
44
0.0000000001
40
0
40
0
40
0
40
0
40
1
40
1
40
1
40
1
10
421.79907319900053
20
-145.18932603373636
30
0
10
422.56733406663039
20
-146.07889904241674
30
0
10
422.72907124827509
20
-146.72584776899598
30
0
10
421.83951057935076
20
-147.77717029907714
30
0
0
SPLINE
5
138
100
AcDbEntity
8
0
100
AcDbSpline
70
1064
71
3
72
8
73
4
74
0
42
0.000000001
43
0.0000000001
44
0.0000000001
40
0
40
0
40
0
40
0
40
1
40
1
40
1
40
1
10
419.13036651271534
20
-138.80061481059673
30
0
10
419.49427825635507
20
-141.14583479383637
30
0
10
420.22211408339075
20
-143.36975497578135
30
0
10
421.79907319900053
20
-145.18932603373636
30
0
0
SPLINE
5
139
100
AcDbEntity
8
0
100
AcDbSpline
70
1064
71
3
72
8
73
4
74
0
42
0.000000001
43
0.0000000001
44
0.0000000001
40
0
40
0
40
0
40
0
40
1
40
1
40
1
40
1
10
418.24079350403497
20
-137.22364335523093
30
0
10
419.13036651271534
20
-137.30451811593133
30
0
10
419.00905437166477
20
-138.11321636391136
30
0
10
419.13036651271534
20
-138.80061481059673
30
0
0
SPLINE
5
140
100
AcDbEntity
8
0
100
AcDbSpline
70
1064
71
3
72
8
73
4
74
0
42
0.000000001
43
0.0000000001
44
0.0000000001
40
0
40
0
40
0
40
0
40
1
40
1
40
1
40
1
10
416.86600895042022
20
-138.51756548790135
30
0
10
417.10862089276537
20
-137.87061676132214
30
0
10
417.51297001675539
20
-137.18321831463675
30
0
10
418.24079350403497
20
-137.22364335523093
30
0
0
SPLINE
5
141
100
AcDbEntity
8
0
100
AcDbSpline
70
1064
71
3
72
8
73
4
74
0
42
0.000000001
43
0.0000000001
44
0.0000000001
40
0
40
0
40
0
40
0
40
1
40
1
40
1
40
1
10
415.28904983481033
20
-146.48324816640672
30
0
10
415.49122439680531
20
-143.69322933907097
30
0
10
415.85513614044515
20
-141.06496003313597
30
0
10
416.86600895042022
20
-138.51756548790135
30
0
0
SPLINE
5
142
100
AcDbEntity
8
0
100
AcDbSpline
70
1064
71
3
72
8
73
4
74
0
42
0.000000001
43
0.0000000001
44
0.0000000001
40
0
40
0
40
0
40
0
40
1
40
1
40
1
40
1
10
417.10862089276537
20
-154.97457977019673
30
0
10
415.85513614044515
20
-152.26543570356139
30
0
10
415.53166177715553
20
-149.31369203433675
30
0
10
415.28904983481033
20
-146.48324816640672
30
0
0
SPLINE
5
143
100
AcDbEntity
8
0
100
AcDbSpline
70
1064
71
3
72
8
73
4
74
0
42
0.000000001
43
0.0000000001
44
0.0000000001
40
0
40
0
40
0
40
0
40
1
40
1
40
1
40
1
10
418.44298040578593
20
-155.9045778194714
30
0
10
417.6747071984002
20
-156.06632734087216
30
0
10
417.35123283511058
20
-155.54067841558751
30
0
10
417.10862089276537
20
-154.97457977019673
30
0
0
SPLINE
5
144
100
AcDbEntity
8
0
100
AcDbSpline
70
1064
71
3
72
8
73
4
74
0
42
0.000000001
43
0.0000000001
44
0.0000000001
40
0
40
0
40
0
40
0
40
1
40
1
40
1
40
1
10
419.08994147212115
20
-154.57023064620674
30
0
10
419.04950409177098
20
-155.09587957149137
30
0
10
419.13037885247138
20
-155.70240325747633
30
0
10
418.44298040578593
20
-155.9045778194714
30
0
0
SPLINE
5
145
100
AcDbEntity
8
0
100
AcDbSpline
70
1064
71
3
72
8
73
4
74
0
42
0.000000001
43
0.0000000001
44
0.0000000001
40
0
40
0
40
0
40
0
40
1
40
1
40
1
40
1
10
440.19697068030155
20
-146.4427984463006
30
0
10
440.31827048159613
20
-151.13323841277975
30
0
10
438.3773996223465
20
-153.03368423143522
30
0
10
434.73825750643653
20
-154.61065568680098
30
0
0
SPLINE
5
146
100
AcDbEntity
8
0
100
AcDbSpline
70
1064
71
3
72
8
73
4
74
0
42
0.000000001
43
0.0000000001
44
0.0000000001
40
0
40
0
40
0
40
0
40
1
40
1
40
1
40
1
10
437.40696419272172
20
-140.01363750305478
30
0
10
439.91393369736215
20
-141.42885943701981
30
0
10
440.19697068030155
20
-143.2484304949748
30
0
10
440.19697068030155
20
-146.4427984463006
30
0
0
SPLINE
5
147
100
AcDbEntity
8
0
100
AcDbSpline
70
1064
71
3
72
8
73
4
74
0
42
0.000000001
43
0.0000000001
44
0.0000000001
40
0
40
0
40
0
40
0
40
1
40
1
40
1
40
1
10
426.32780066334698
20
-134.27187500649441
30
0
10
430.04781753995729
20
-136.09144606444943
30
0
10
433.80825945716197
20
-137.99189188310481
30
0
10
437.40696419272172
20
-140.01363750305478
30
0
0
SPLINE
5
148
100
AcDbEntity
8
0
100
AcDbSpline
70
1064
71
3
72
8
73
4
74
0
42
0.000000001
43
0.0000000001
44
0.0000000001
40
0
40
0
40
0
40
0
40
1
40
1
40
1
40
1
10
422.64822116708672
20
-136.49579518843944
30
0
10
422.80995834873153
20
-134.35274976719481
30
0
10
424.38691746434131
20
-133.34187695721977
30
0
10
426.32780066334698
20
-134.27187500649441
30
0
0
SPLINE
5
149
100
AcDbEntity
8
0
100
AcDbSpline
70
1064
71
3
72
8
73
4
74
0
42
0.000000001
43
0.0000000001
44
0.0000000001
40
0
40
0
40
0
40
0
40
1
40
1
40
1
40
1
10
424.75084154773708
20
-143.2484304949748
30
0
10
423.21431981247758
20
-141.26710991561902
30
0
10
422.44604660509174
20
-139.0027646930798
30
0
10
422.64822116708672
20
-136.49579518843944
30
0
0
SPLINE
5
150
100
AcDbEntity
8
0
100
AcDbSpline
70
1064
71
3
72
8
73
4
74
0
42
0.000000001
43
0.0000000001
44
0.0000000001
40
0
40
0
40
0
40
0
40
1
40
1
40
1
40
1
10
428.59215822564209
20
-143.04625593297985
30
0
10
427.78345997766212
20
-144.98712679222939
30
0
10
426.28736328299675
20
-145.22975107433058
30
0
10
424.75084154773708
20
-143.2484304949748
30
0
0
SPLINE
5
151
100
AcDbEntity
8
0
100
AcDbSpline
70
1064
71
3
72
8
73
4
74
0
42
0.000000001
43
0.0000000001
44
0.0000000001
40
0
40
0
40
0
40
0
40
1
40
1
40
1
40
1
10
431.17999015122689
20
-141.63103399901479
30
0
10
429.9669427792569
20
-141.42885943701981
30
0
10
429.03694472998234
20
-141.99495808241062
30
0
10
428.59215822564209
20
-143.04625593297985
30
0
0
SPLINE
5
152
100
AcDbEntity
8
0
100
AcDbSpline
70
1064
71
3
72
8
73
4
74
0
42
0.000000001
43
0.0000000001
44
0.0000000001
40
0
40
0
40
0
40
0
40
1
40
1
40
1
40
1
10
433.52521013446653
20
-143.81452914036561
30
0
10
433.1612983908268
20
-142.60148176839562
30
0
10
432.43346256379112
20
-141.8332085610098
30
0
10
431.17999015122689
20
-141.63103399901479
30
0
0
SPLINE
5
153
100
AcDbEntity
8
0
100
AcDbSpline
70
1064
71
3
72
8
73
4
74
0
42
0.000000001
43
0.0000000001
44
0.0000000001
40
0
40
0
40
0
40
0
40
1
40
1
40
1
40
1
10
433.52521013446653
20
-149.15194251293599
30
0
10
434.01043401915695
20
-147.33237145498097
30
0
10
434.05085905975113
20
-145.59367515772635
30
0
10
433.52521013446653
20
-143.81452914036561
30
0
0
SPLINE
5
154
100
AcDbEntity
8
0
100
AcDbSpline
70
1064
71
3
72
8
73
4
74
0
42
0.000000001
43
0.0000000001
44
0.0000000001
40
0
40
0
40
0
40
0
40
1
40
1
40
1
40
1
10
431.05867801017638
20
-151.53761221628176
30
0
10
432.27172538214631
20
-151.29501261369253
30
0
10
433.1612983908268
20
-150.48631436571256
30
0
10
433.52521013446653
20
-149.15194251293599
30
0
0
SPLINE
5
155
100
AcDbEntity
8
0
100
AcDbSpline
70
1064
71
3
72
8
73
4
74
0
42
0.000000001
43
0.0000000001
44
0.0000000001
40
0
40
0
40
0
40
0
40
1
40
1
40
1
40
1
10
428.34953394354096
20
-149.87979067972756
30
0
10
428.99649500987613
20
-150.93108853029673
30
0
10
429.84563063820633
20
-151.82066153897716
30
0
10
431.05867801017638
20
-151.53761221628176
30
0
0
SPLINE
5
156
100
AcDbEntity
8
0
100
AcDbSpline
70
1064
71
3
72
8
73
4
74
0
42
0.000000001
43
0.0000000001
44
0.0000000001
40
0
40
0
40
0
40
0
40
1
40
1
40
1
40
1
10
424.95300376997619
20
-149.59674135703219
30
0
10
426.12561376159596
20
-148.06021962177257
30
0
10
427.33866113356601
20
-148.18151942306716
30
0
10
428.34953394354096
20
-149.87979067972756
30
0
0
SPLINE
5
157
100
AcDbEntity
8
0
100
AcDbSpline
70
1064
71
3
72
8
73
4
74
0
42
0.000000001
43
0.0000000001
44
0.0000000001
40
0
40
0
40
0
40
0
40
1
40
1
40
1
40
1
10
422.64820882733079
20
-156.10675238146638
30
0
10
422.60777144698056
20
-153.64023259693212
30
0
10
423.49734445566099
20
-151.49716249617558
30
0
10
424.95300376997619
20
-149.59674135703219
30
0
0
SPLINE
5
158
100
AcDbEntity
8
0
100
AcDbSpline
70
1064
71
3
72
8
73
4
74
0
42
0.000000001
43
0.0000000001
44
0.0000000001
40
0
40
0
40
0
40
0
40
1
40
1
40
1
40
1
10
427.01518677027639
20
-158.57327216600058
30
0
10
424.62951706693053
20
-159.98851877947754
30
0
10
422.68863386792498
20
-158.89677120880214
30
0
10
422.64820882733079
20
-156.10675238146638
30
0
0
SPLINE
5
159
100
AcDbEntity
8
0
100
AcDbSpline
70
1064
71
3
72
8
73
4
74
0
42
0.000000001
43
0.0000000001
44
0.0000000001
40
0
40
0
40
0
40
0
40
1
40
1
40
1
40
1
10
434.73825750643653
20
-154.61065568680098
30
0
10
432.10998820050156
20
-155.78327801817676
30
0
10
429.52215627491677
20
-157.07717547133515
30
0
10
427.01518677027639
20
-158.57327216600058
30
0
0
CIRCLE
5
160
100
AcDbEntity
8
0
100
AcDbCircle
10
443.39131395211541
20
-134.15059988471177
30
0
40
2.5473994811370022
0
CIRCLE
5
161
100
AcDbEntity
8
0
100
AcDbCircle
10
443.39131395211541
20
-159.01807101009672
30
0
40
2.5473994811370022
0
SPLINE
5
162
100
AcDbEntity
8
0
100
AcDbSpline
70
1064
71
3
72
8
73
4
74
0
42
0.000000001
43
0.0000000001
44
0.0000000001
40
0
40
0
40
0
40
0
40
1
40
1
40
1
40
1
10
411.60945799879414
20
-166.98377836811409
30
0
10
414.48033924707437
20
-172.2403169799841
30
0
10
418.56426786732459
20
-176.28380821988407
30
0
10
424.3868927848294
20
-177.98207947654447
30
0
0
SPLINE
5
163
100
AcDbEntity
8
0
100
AcDbSpline
70
1064
71
3
72
8
73
4
74
0
42
0.000000001
43
0.0000000001
44
0.0000000001
40
0
40
0
40
0
40
0
40
1
40
1
40
1
40
1
10
406.51465656856897
20
-145.9171988800399
30
0
10
406.63595636986361
20
-153.8424318384391
30
0
10
408.17249044487914
20
-160.67594190567488
30
0
10
411.60945799879414
20
-166.98377836811409
30
0
0
SPLINE
5
164
100
AcDbEntity
8
0
100
AcDbSpline
70
1064
71
3
72
8
73
4
74
0
42
0.000000001
43
0.0000000001
44
0.0000000001
40
0
40
0
40
0
40
0
40
1
40
1
40
1
40
1
10
413.87381556108943
20
-122.86929881260988
30
0
10
408.53640218851893
20
-129.90498344184067
30
0
10
406.91900569255898
20
-138.1132657229353
30
0
10
406.51465656856897
20
-145.9171988800399
30
0
0
SPLINE
5
165
100
AcDbEntity
8
0
100
AcDbSpline
70
1064
71
3
72
8
73
4
74
0
42
0.000000001
43
0.0000000001
44
0.0000000001
40
0
40
0
40
0
40
0
40
1
40
1
40
1
40
1
10
428.95603295001399
20
-114.21621768741913
30
0
10
422.68862152816899
20
-114.98449089480488
30
0
10
417.67469485864416
20
-117.85535980332911
30
0
10
413.87381556108943
20
-122.86929881260988
30
0
0
SPLINE
5
166
100
AcDbEntity
8
0
100
AcDbSpline
70
1064
71
3
72
8
73
4
74
0
42
0.000000001
43
0.0000000001
44
0.0000000001
40
0
40
0
40
0
40
0
40
1
40
1
40
1
40
1
10
449.41610109185916
20
-117.1679613566437
30
0
10
442.82521530672454
20
-114.58011709130292
30
0
10
436.07258000018919
20
-113.32664467873876
30
0
10
428.95603295001399
20
-114.21621768741913
30
0
0
SPLINE
5
167
100
AcDbEntity
8
0
100
AcDbSpline
70
1064
71
3
72
8
73
4
74
0
42
0.000000001
43
0.0000000001
44
0.0000000001
40
0
40
0
40
0
40
0
40
1
40
1
40
1
40
1
10
450.50784866253457
20
-117.69361028192831
30
0
10
450.22479933983914
20
-117.45101067933911
30
0
10
449.78002517525499
20
-117.32968619853253
30
0
10
449.41610109185916
20
-117.1679613566437
30
0
0
SPLINE
5
168
100
AcDbEntity
8
0
100
AcDbSpline
70
1064
71
3
72
8
73
4
74
0
42
0.000000001
43
0.0000000001
44
0.0000000001
40
0
40
0
40
0
40
0
40
1
40
1
40
1
40
1
10
451.35698429086483
20
-118.30013396791333
30
0
10
451.0739349681694
20
-118.13838444651256
30
0
10
450.79089798523
20
-117.93620988451755
30
0
10
450.50784866253457
20
-117.69361028192831
30
0
0
SPLINE
5
169
100
AcDbEntity
8
0
100
AcDbSpline
70
1064
71
3
72
8
73
4
74
0
42
0.000000001
43
0.0000000001
44
0.0000000001
40
0
40
0
40
0
40
0
40
1
40
1
40
1
40
1
10
458.27135677904499
20
-115.46969009998334
30
0
10
455.56221271240958
20
-115.46969009998334
30
0
10
453.13611796846953
20
-116.56143767065873
30
0
10
451.35698429086483
20
-118.30013396791333
30
0
0
SPLINE
5
170
100
AcDbEntity
8
0
100
AcDbSpline
70
1064
71
3
72
8
73
4
74
0
42
0.000000001
43
0.0000000001
44
0.0000000001
40
0
40
0
40
0
40
0
40
1
40
1
40
1
40
1
10
468.09703555609957
20
-125.29536887703796
30
0
10
468.09703555609957
20
-119.87708074376715
30
0
10
463.68963257255984
20
-115.46969009998334
30
0
10
458.27135677904499
20
-115.46969009998334
30
0
0
SPLINE
5
171
100
AcDbEntity
8
0
100
AcDbSpline
70
1064
71
3
72
8
73
4
74
0
42
0.000000001
43
0.0000000001
44
0.0000000001
40
0
40
0
40
0
40
0
40
1
40
1
40
1
40
1
10
464.33659363889501
20
-133.01842727344217
30
0
10
466.60095120119024
20
-131.19885621548715
30
0
10
468.09703555609957
20
-128.40883738815137
30
0
10
468.09703555609957
20
-125.29536887703796
30
0
0
SPLINE
5
172
100
AcDbEntity
8
0
100
AcDbSpline
70
1064
71
3
72
8
73
4
74
0
42
0.000000001
43
0.0000000001
44
0.0000000001
40
0
40
0
40
0
40
0
40
1
40
1
40
1
40
1
10
464.49833082053976
20
-133.42277639743219
30
0
10
464.41745605983942
20
-133.26102687603137
30
0
10
464.37703101924524
20
-133.13972707473678
30
0
10
464.33659363889501
20
-133.01842727344217
30
0
0
SPLINE
5
173
100
AcDbEntity
8
0
100
AcDbSpline
70
1064
71
3
72
8
73
4
74
0
42
0.000000001
43
0.0000000001
44
0.0000000001
40
0
40
0
40
0
40
0
40
1
40
1
40
1
40
1
10
467.36921206882005
20
-146.48324816640678
30
0
10
467.36921206882005
20
-141.99498276192259
30
0
10
466.35833925884498
20
-137.54714239803258
30
0
10
464.49833082053976
20
-133.42277639743219
30
0
0
SPLINE
5
174
100
AcDbEntity
8
0
100
AcDbSpline
70
1064
71
3
72
8
73
4
74
0
42
0.000000001
43
0.0000000001
44
0.0000000001
40
0
40
0
40
0
40
0
40
1
40
1
40
1
40
1
10
464.74094276288497
20
-159.17982053149754
30
0
10
466.47963906013956
20
-155.13632929159758
30
0
10
467.36921206882005
20
-150.80978872900215
30
0
10
467.36921206882005
20
-146.48324816640678
30
0
0
SPLINE
5
175
100
AcDbEntity
8
0
100
AcDbSpline
70
1064
71
3
72
8
73
4
74
0
42
0.000000001
43
0.0000000001
44
0.0000000001
40
0
40
0
40
0
40
0
40
1
40
1
40
1
40
1
10
464.33659363889501
20
-160.23111838206674
30
0
10
464.45789344018965
20
-159.90764401877715
30
0
10
464.57920558124016
20
-159.54371993538138
30
0
10
464.74094276288497
20
-159.17982053149754
30
0
0
SPLINE
5
176
100
AcDbEntity
8
0
100
AcDbSpline
70
1064
71
3
72
8
73
4
74
0
42
0.000000001
43
0.0000000001
44
0.0000000001
40
0
40
0
40
0
40
0
40
1
40
1
40
1
40
1
10
468.05661051550538
20
-167.95417677847098
30
0
10
468.05661051550538
20
-164.8406835878456
30
0
10
466.60095120119024
20
-162.05068944002178
30
0
10
464.33659363889501
20
-160.23111838206674
30
0
0
SPLINE
5
177
100
AcDbEntity
8
0
100
AcDbSpline
70
1064
71
3
72
8
73
4
74
0
42
0.000000001
43
0.0000000001
44
0.0000000001
40
0
40
0
40
0
40
0
40
1
40
1
40
1
40
1
10
458.23093173845081
20
-177.77985555552561
30
0
10
463.64920753196554
20
-177.77985555552561
30
0
10
468.05661051550538
20
-173.37244023222982
30
0
10
468.05661051550538
20
-167.95417677847098
30
0
0
SPLINE
5
178
100
AcDbEntity
8
0
100
AcDbSpline
70
1064
71
3
72
8
73
4
74
0
42
0.000000001
43
0.0000000001
44
0.0000000001
40
0
40
0
40
0
40
0
40
1
40
1
40
1
40
1
10
451.27612186992042
20
-174.9089866470014
30
0
10
453.05525554752523
20
-176.68813266436217
30
0
10
455.52178767181539
20
-177.77985555552561
30
0
10
458.23093173845081
20
-177.77985555552561
30
0
0
SPLINE
5
179
100
AcDbEntity
8
0
100
AcDbSpline
70
1064
71
3
72
8
73
4
74
0
42
0.000000001
43
0.0000000001
44
0.0000000001
40
0
40
0
40
0
40
0
40
1
40
1
40
1
40
1
10
424.3868927848294
20
-177.98207947654447
30
0
10
433.72737235670559
20
-180.61032410296752
30
0
10
442.70391550542996
20
-179.27595225019098
30
0
10
451.27612186992042
20
-174.9089866470014
30
0
0
CIRCLE
5
180
100
AcDbEntity
8
0
100
AcDbCircle
10
322.17381556108927
20
-134.51929881260986
30
0
40
1.6000000000000014
0
CIRCLE
5
181
100
AcDbEntity
8
0
100
AcDbCircle
10
322.17381556108927
20
-160.51929881260986
30
0
40
1.6000000000000014
0
CIRCLE
5
182
100
AcDbEntity
8
0
100
AcDbCircle
10
340.17381556108938
20
-185.16929881260984
30
0
40
1.5000000000000213
0
CIRCLE
5
183
100
AcDbEntity
8
0
100
AcDbCircle
10
216.17381556108921
20
-185.16929881260984
30
0
40
1.4999999999999947
0
CIRCLE
5
184
100
AcDbEntity
8
0
100
AcDbCircle
10
216.17381556108921
20
-109.86929881260988
30
0
40
1.4999999999999947
0
CIRCLE
5
185
100
AcDbEntity
8
0
100
AcDbCircle
10
340.17381556108938
20
-109.86929881260988
30
0
40
1.4999999999999858
0
LWPOLYLINE
5
186
100
AcDbEntity
8
0
100
AcDbPolyline
90
4
70
1
43
0.0
10
329.17381556108927
20
-127.51929881260986
10
344.17381556108927
20
-127.51929881260992
10
344.17381556108921
20
-167.51929881260989
10
329.17381556108927
20
-167.51929881260989
0
LWPOLYLINE
5
187
100
AcDbEntity
8
0
100
AcDbPolyline
90
8
70
1
43
0.0
10
267.17381556108927
20
-133.70422152058592
10
267.17381556108927
20
-127.51929881260993
10
298.17381556108927
20
-127.51929881260989
10
298.17381556108927
20
-167.51929881260986
10
267.17381556108927
20
-167.5192988126098
10
267.17381556108927
20
-161.3343761046338
10
242.17381556108919
20
-161.3343761046338
10
242.17381556108927
20
-133.70422152058592
0
LWPOLYLINE
5
188
100
AcDbEntity
8
0
100
AcDbPolyline
90
4
70
1
43
0.0
10
349.17381556108933
20
-194.16929881260987
10
349.17381556108933
20
-100.86929881260987
10
207.17381556108921
20
-100.86929881260987
10
207.17381556108921
20
-194.1692988126099
0
ENDSEC
0
SECTION
2
OBJECTS
0
DICTIONARY
5
C
100
AcDbDictionary
3
ACAD_GROUP
350
D
3
ACAD_MLINESTYLE
350
17
0
DICTIONARY
5
D
100
AcDbDictionary
0
DICTIONARY
5
1A
330
C
100
AcDbDictionary
0
DICTIONARY
5
17
100
AcDbDictionary
0
ENDSEC
0
EOF
