0
SECTION
2
HEADER
9
$INSUNITS
70
4
9
$ACADVER
1
AC1014
9
$HANDSEED
5
FFFF
0
ENDSEC
0
SECTION
2
TABLES
0
TABLE
2
VPORT
5
8
100
AcDbSymbolTable
0
ENDTAB
0
TABLE
2
LTYPE
5
5
100
AcDbSymbolTable
70
2
0
LTYPE
5
14
100
AcDbSymbolTableRecord
100
AcDbLinetypeTableRecord
2
BYBLOCK
70
0
0
LTYPE
5
15
100
AcDbSymbolTableRecord
100
AcDbLinetypeTableRecord
2
BYLAYER
70
0
0
ENDTAB
0
TABLE
2
LAYER
5
2
100
AcDbSymbolTable
70
3
0
LAYER
5
50
100
AcDbSymbolTableRecord
100
AcDbLayerTableRecord
2
0
70
0
6
CONTINUOUS
0
LAYER
5
51
100
AcDbSymbolTableRecord
100
AcDbLayerTableRecord
2
CUTOUTS
70
0
62
1
6
CONTINUOUS
0
LAYER
5
52
100
AcDbSymbolTableRecord
100
AcDbLayerTableRecord
2
PERIMETER
70
0
62
5
6
CONTINUOUS
0
ENDTAB
0
TABLE
2
STYLE
5
3
100
AcDbSymbolTable
70
1
0
STYLE
5
11
100
AcDbSymbolTableRecord
100
AcDbTextStyleTableRecord
2
STANDARD
70
0
0
ENDTAB
0
TABLE
2
VIEW
5
6
100
AcDbSymbolTable
0
ENDTAB
0
TABLE
2
UCS
5
7
100
AcDbSymbolTable
0
ENDTAB
0
TABLE
2
APPID
5
9
100
AcDbSymbolTable
70
1
0
APPID
5
12
100
AcDbSymbolTableRecord
100
AcDbRegAppTableRecord
2
ACAD
70
0
0
ENDTAB
0
TABLE
2
DIMSTYLE
5
A
100
AcDbSymbolTable
0
ENDTAB
0
TABLE
2
BLOCK_RECORD
5
1
100
AcDbSymbolTable
70
2
0
BLOCK_RECORD
5
1F
100
AcDbSymbolTableRecord
100
AcDbBlockTableRecord
2
*MODEL_SPACE
0
BLOCK_RECORD
5
1B
100
AcDbSymbolTableRecord
100
AcDbBlockTableRecord
2
*PAPER_SPACE
0
ENDTAB
0
ENDSEC
0
SECTION
2
BLOCKS
0
BLOCK
5
20
100
AcDbEntity
100
AcDbBlockBegin
2
*MODEL_SPACE
0
ENDBLK
5
21
100
AcDbEntity
100
AcDbBlockEnd
0
BLOCK
5
1C
100
AcDbEntity
100
AcDbBlockBegin
2
*PAPER_SPACE
0
ENDBLK
5
1D
100
AcDbEntity
100
AcDbBlockEnd
0
ENDSEC
0
SECTION
2
ENTITIES
0
CIRCLE
5
100
100
AcDbEntity
8
CUTOUTS
100
AcDbCircle
10
-77
20
-63
30
0
40
1.4499999999999957
0
CIRCLE
5
101
100
AcDbEntity
8
CUTOUTS
100
AcDbCircle
10
77.000000000000014
20
-63
30
0
40
1.4500000000000046
0
CIRCLE
5
102
100
AcDbEntity
8
CUTOUTS
100
AcDbCircle
10
77.000000000000014
20
63
30
0
40
1.4500000000000046
0
CIRCLE
5
103
100
AcDbEntity
8
CUTOUTS
100
AcDbCircle
10
-46.499999999999993
20
32.500000000000007
30
0
40
1.2000000000000011
0
CIRCLE
5
104
100
AcDbEntity
8
CUTOUTS
100
AcDbCircle
10
11.500000000000012
20
32.500000000000007
30
0
40
1.2000000000000099
0
CIRCLE
5
105
100
AcDbEntity
8
CUTOUTS
100
AcDbCircle
10
-46.499999999999986
20
-16.500000000000004
30
0
40
1.2000000000000011
0
CIRCLE
5
106
100
AcDbEntity
8
CUTOUTS
100
AcDbCircle
10
-77
20
63
30
0
40
1.4499999999999957
0
CIRCLE
5
107
100
AcDbEntity
8
CUTOUTS
100
AcDbCircle
10
11.500000000000021
20
-16.500000000000004
30
0
40
1.2000000000000011
0
LINE
5
108
100
AcDbEntity
8
CUTOUTS
100
AcDbLine
10
-14.049999999999985
20
-60.949999999999996
30
0
11
-15.949999999999989
21
-60.949999999999996
31
0
0
LINE
5
109
100
AcDbEntity
8
CUTOUTS
100
AcDbLine
10
-15.949999999999989
20
-60.949999999999996
30
0
11
-15.949999999999989
21
-56.049999999999997
31
0
0
LINE
5
10A
100
AcDbEntity
8
CUTOUTS
100
AcDbLine
10
-15.949999999999989
20
-56.049999999999997
30
0
11
-14.049999999999985
21
-56.049999999999997
31
0
0
LINE
5
10B
100
AcDbEntity
8
CUTOUTS
100
AcDbLine
10
-14.049999999999985
20
-56.049999999999997
30
0
11
-14.049999999999985
21
-60.949999999999996
31
0
0
LINE
5
10C
100
AcDbEntity
8
CUTOUTS
100
AcDbLine
10
-20.04999999999999
20
-60.949999999999996
30
0
11
-21.949999999999996
21
-60.949999999999996
31
0
0
LINE
5
10D
100
AcDbEntity
8
CUTOUTS
100
AcDbLine
10
-21.949999999999996
20
-60.949999999999996
30
0
11
-21.949999999999996
21
-56.049999999999997
31
0
0
LINE
5
10E
100
AcDbEntity
8
CUTOUTS
100
AcDbLine
10
-21.949999999999996
20
-56.049999999999997
30
0
11
-20.04999999999999
21
-56.049999999999997
31
0
0
LINE
5
10F
100
AcDbEntity
8
CUTOUTS
100
AcDbLine
10
-20.04999999999999
20
-56.049999999999997
30
0
11
-20.04999999999999
21
-60.949999999999996
31
0
0
LINE
5
110
100
AcDbEntity
8
CUTOUTS
100
AcDbLine
10
7.7637236000735665
20
-56.795390401815915
30
0
11
7.7637236000735665
21
-61.69539047632172
31
0
0
LINE
5
111
100
AcDbEntity
8
CUTOUTS
100
AcDbLine
10
7.7637236000735665
20
-61.69539047632172
30
0
11
5.863723570271242
21
-61.69539047632172
31
0
0
LINE
5
112
100
AcDbEntity
8
CUTOUTS
100
AcDbLine
10
5.863723570271242
20
-61.69539047632172
30
0
11
5.863723570271242
21
-56.795390401815915
31
0
0
LINE
5
113
100
AcDbEntity
8
CUTOUTS
100
AcDbLine
10
5.863723570271242
20
-56.795390401815915
30
0
11
7.7637236000735665
21
-56.795390401815915
31
0
0
LINE
5
114
100
AcDbEntity
8
CUTOUTS
100
AcDbLine
10
-48.049999999999997
20
-55.795390386914754
30
0
11
-48.049999999999997
21
-60.695390461420558
31
0
0
LINE
5
115
100
AcDbEntity
8
CUTOUTS
100
AcDbLine
10
-48.049999999999997
20
-60.695390461420558
30
0
11
-49.950000029802325
21
-60.695390461420558
31
0
0
LINE
5
116
100
AcDbEntity
8
CUTOUTS
100
AcDbLine
10
-49.950000029802325
20
-60.695390461420558
30
0
11
-49.950000029802325
21
-55.795390386914754
31
0
0
LINE
5
117
100
AcDbEntity
8
CUTOUTS
100
AcDbLine
10
-49.950000029802325
20
-55.795390386914754
30
0
11
-48.049999999999997
21
-55.795390386914754
31
0
0
LINE
5
118
100
AcDbEntity
8
CUTOUTS
100
AcDbLine
10
0.13627642972878995
20
-61.69539047632172
30
0
11
-1.7637236000735346
21
-61.69539047632172
31
0
0
LINE
5
119
100
AcDbEntity
8
CUTOUTS
100
AcDbLine
10
-1.7637236000735346
20
-61.69539047632172
30
0
11
-1.7637236000735346
21
-56.795390401815915
31
0
0
LINE
5
11A
100
AcDbEntity
8
CUTOUTS
100
AcDbLine
10
-1.7637236000735346
20
-56.795390401815915
30
0
11
0.13627642972878995
21
-56.795390401815915
31
0
0
LINE
5
11B
100
AcDbEntity
8
CUTOUTS
100
AcDbLine
10
0.13627642972878995
20
-56.795390401815915
30
0
11
0.13627642972878995
21
-61.69539047632172
31
0
0
LINE
5
11C
100
AcDbEntity
8
CUTOUTS
100
AcDbLine
10
74.950000000000017
20
3.050000000000006
30
0
11
70.050000000000026
21
3.050000000000006
31
0
0
LINE
5
11D
100
AcDbEntity
8
CUTOUTS
100
AcDbLine
10
70.050000000000026
20
3.050000000000006
30
0
11
70.050000000000026
21
4.9499999999999922
31
0
0
LINE
5
11E
100
AcDbEntity
8
CUTOUTS
100
AcDbLine
10
70.050000000000026
20
4.9499999999999922
30
0
11
74.950000000000017
21
4.9499999999999922
31
0
0
LINE
5
11F
100
AcDbEntity
8
CUTOUTS
100
AcDbLine
10
74.950000000000017
20
4.9499999999999922
30
0
11
74.950000000000017
21
3.050000000000006
31
0
0
LINE
5
120
100
AcDbEntity
8
CUTOUTS
100
AcDbLine
10
-40.049999970197668
20
-55.795390386914754
30
0
11
-40.049999970197668
21
-60.695390461420558
31
0
0
LINE
5
121
100
AcDbEntity
8
CUTOUTS
100
AcDbLine
10
-40.049999970197668
20
-60.695390461420558
30
0
11
-41.949999999999996
21
-60.695390461420558
31
0
0
LINE
5
122
100
AcDbEntity
8
CUTOUTS
100
AcDbLine
10
-41.949999999999996
20
-60.695390461420558
30
0
11
-41.949999999999996
21
-55.795390386914754
31
0
0
LINE
5
123
100
AcDbEntity
8
CUTOUTS
100
AcDbLine
10
-41.949999999999996
20
-55.795390386914754
30
0
11
-40.049999970197668
21
-55.795390386914754
31
0
0
LINE
5
124
100
AcDbEntity
8
CUTOUTS
100
AcDbLine
10
74.950000000000017
20
12.94999999999999
30
0
11
74.950000000000017
21
11.049999999999995
31
0
0
LINE
5
125
100
AcDbEntity
8
CUTOUTS
100
AcDbLine
10
74.950000000000017
20
11.049999999999995
30
0
11
70.050000000000026
21
11.049999999999995
31
0
0
LINE
5
126
100
AcDbEntity
8
CUTOUTS
100
AcDbLine
10
70.050000000000026
20
11.049999999999995
30
0
11
70.050000000000026
21
12.94999999999999
31
0
0
LINE
5
127
100
AcDbEntity
8
CUTOUTS
100
AcDbLine
10
70.050000000000026
20
12.94999999999999
30
0
11
74.950000000000017
21
12.94999999999999
31
0
0
LINE
5
128
100
AcDbEntity
8
PERIMETER
100
AcDbLine
10
-85.049999999999983
20
-71.049999999999997
30
0
11
85.049999999999983
21
-71.049999999999997
31
0
0
LINE
5
129
100
AcDbEntity
8
PERIMETER
100
AcDbLine
10
85.050000000000011
20
-71.049999999999997
30
0
11
85.050000000000026
21
71.049999999999997
31
0
0
LINE
5
12A
100
AcDbEntity
8
PERIMETER
100
AcDbLine
10
85.050000000000026
20
71.049999999999997
30
0
11
-85.049999999999983
21
71.049999999999997
31
0
0
LINE
5
12B
100
AcDbEntity
8
PERIMETER
100
AcDbLine
10
-85.049999999999983
20
71.049999999999997
30
0
11
-85.049999999999983
21
-71.049999999999997
31
0
0
ENDSEC
0
SECTION
2
OBJECTS
0
DICTIONARY
5
C
100
AcDbDictionary
3
ACAD_GROUP
350
D
3
ACAD_MLINESTYLE
350
17
0
DICTIONARY
5
D
100
AcDbDictionary
0
DICTIONARY
5
1A
330
C
100
AcDbDictionary
0
DICTIONARY
5
17
100
AcDbDictionary
0
ENDSEC
0
EOF
